<?xml version="1.0" encoding="UTF-8" standalone="no"?>
<!-- Created with Inkscape (http://www.inkscape.org/) -->

<svg
   xmlns:dc="http://purl.org/dc/elements/1.1/"
   xmlns:cc="http://creativecommons.org/ns#"
   xmlns:rdf="http://www.w3.org/1999/02/22-rdf-syntax-ns#"
   xmlns:svg="http://www.w3.org/2000/svg"
   xmlns="http://www.w3.org/2000/svg"
   xmlns:sodipodi="http://sodipodi.sourceforge.net/DTD/sodipodi-0.dtd"
   xmlns:inkscape="http://www.inkscape.org/namespaces/inkscape"
   id="svg2"
   version="1.1"
   inkscape:version="0.48.3.1 r9886"
   width="1052.5"
   height="744.025"
   xml:space="preserve"
   sodipodi:docname="Lesson_13B_Multiprocessors.pdf"><metadata
     id="metadata8"><rdf:RDF><cc:Work
         rdf:about=""><dc:format>image/svg+xml</dc:format><dc:type
           rdf:resource="http://purl.org/dc/dcmitype/StillImage" /><dc:title></dc:title></cc:Work></rdf:RDF></metadata><defs
     id="defs6"><clipPath
       clipPathUnits="userSpaceOnUse"
       id="clipPath16"><path
         d="m 567.48,61.011 -540,0 0,720 540,0 0,-720 z"
         clip-rule="evenodd"
         id="path18" /></clipPath><clipPath
       clipPathUnits="userSpaceOnUse"
       id="clipPath22"><path
         d="m 0,841.98 595.2,0 L 595.2,0 0,0 0,841.98 z"
         id="path24" /></clipPath></defs><sodipodi:namedview
     pagecolor="#ffffff"
     bordercolor="#666666"
     borderopacity="1"
     objecttolerance="10"
     gridtolerance="10"
     guidetolerance="10"
     inkscape:pageopacity="0"
     inkscape:pageshadow="2"
     inkscape:window-width="1366"
     inkscape:window-height="692"
     id="namedview4"
     showgrid="false"
     inkscape:zoom="0.63438726"
     inkscape:cx="526.25"
     inkscape:cy="372.01251"
     inkscape:window-x="0"
     inkscape:window-y="24"
     inkscape:window-maximized="1"
     inkscape:current-layer="g10" /><g
     id="g10"
     inkscape:groupmode="layer"
     inkscape:label="Lesson_13B_Multiprocessors"
     transform="matrix(0,1.25,1.25,0,0,0)"><g
       id="g32"
       transform="translate(427.86,261.171)"><path
         d="M 0,0 -0.96,0 -1.86,0.06 -2.7,0.12 C -21.086,1.569 -34.361,18.097 -35.04,36 l -0.06,1.98 0.06,1.92 c 0.699,18.034 13.807,34.341 32.28,36 l 0.9,0.06 0.9,0 0.9,0.06 0.9,-0.06 C 18.63,75.547 32.245,60.919 34.62,43.8 l 0.24,-1.92 0.12,-1.92 C 35.968,20.792 23.154,2.538 3.54,0.18 L 2.7,0.12 0.9,0 0,0 z m 0.78,2.28 0.84,0 1.68,0.12 c 17.669,2.156 29.583,18.269 29.46,35.58 l -0.06,1.8 -0.12,1.86 C 31.18,58.115 18.676,72.687 1.68,73.68 l -0.84,0.06 -1.74,0 -0.78,-0.06 C -18.696,72.804 -31.183,58.122 -32.7,41.7 l -0.12,-1.86 -0.06,-1.8 C -32.917,20.417 -20.691,4.018 -2.58,2.34 l 0.84,-0.06 0.84,0 0.84,-0.06"
         style="fill:#002060;fill-opacity:1;fill-rule:nonzero;stroke:none"
         id="path34" /></g><g
       id="g36"
       transform="translate(403.56,325.551)"><path
         d="M 0,0 8.94,7.56 9.42,6.96 0.48,-0.6 0,0 z m 6.48,8.88 6.54,1.62 -2.64,-6.18"
         style="fill:#000099;fill-opacity:1;fill-rule:nonzero;stroke:none"
         id="path38" /></g><g
       id="g40"
       transform="translate(159.96,669.411)"><path
         d="M 0,0 -0.9,0 -2.7,0.12 C -21.154,1.71 -34.248,18.024 -35.04,36 l -0.06,1.98 0.06,1.98 c 0.785,17.993 13.829,34.302 32.28,35.94 l 0.9,0.06 0.9,0 0.9,0.06 0.96,0 C 18.684,75.386 32.326,61.014 34.62,43.8 l 0.24,-1.92 0.12,-1.92 C 36.109,20.982 23.057,2.444 3.6,0.18 L 0.9,0 0,0 z m 0.84,2.28 0.84,0 0.78,0.06 0.84,0.12 C 20.854,4.3 33.011,20.897 32.76,37.98 l 0,1.86 -0.12,1.8 C 31.118,58.205 18.754,72.68 1.68,73.68 l -0.84,0.06 -1.68,0 -0.84,-0.06 C -18.633,72.812 -31.248,58.083 -32.64,41.7 l -0.12,-1.8 -0.06,-1.86 C -32.991,20.49 -20.568,3.927 -2.52,2.34 l 0.78,-0.06 1.74,0"
         style="fill:#002060;fill-opacity:1;fill-rule:nonzero;stroke:none"
         id="path42" /></g><g
       id="g44"
       transform="translate(135.72,733.791)"><path
         d="M 0,0 8.94,7.56 9.42,6.96 0.48,-0.6 0,0 z m 6.48,8.88 6.48,1.62 -2.64,-6.18"
         style="fill:#000099;fill-opacity:1;fill-rule:nonzero;stroke:none"
         id="path46" /></g><g
       id="g52"
       transform="translate(459.78,318.171)"><path
         d="m 0,0 c -29.28,0 -53.04,24.72 -53.04,55.26 0,30.48 23.76,55.26 53.04,55.26 29.22,0 52.98,-24.78 52.98,-55.26 C 52.98,24.72 29.22,0 0,0"
         style="fill:#b2e2ff;fill-opacity:1;fill-rule:evenodd;stroke:none"
         id="path54" /></g><g
       id="g56"
       transform="translate(458.76,318.171)"><path
         d="m 0,0 0.96,-1.02 -1.32,0.06 -1.38,0 -1.38,0.12 c -28.3,2.273 -49.261,26.608 -49.86,54.6 l -0.06,1.44 0.06,1.5 c 0.669,28.586 22.183,53.02 51.18,54.72 l 1.38,0.06 2.82,0 1.38,-0.06 C 32.073,109.912 53.706,86.027 54.9,58.14 l 0.06,-1.44 0.06,-1.44 C 55.006,26.644 34.117,1.57 5.16,-0.84 L 3.78,-0.96 2.4,-1.02 l -1.38,0 c -0.3,0 -0.54,0.12 -0.72,0.3 C 0.12,-0.54 0,-0.3 0,0 z m 1.98,0 -1.02,0.96 1.38,0.06 1.32,0 1.32,0.12 c 27.25,2.203 47.459,25.758 48,52.68 l 0,2.82 c -0.59,27.486 -21.42,51.22 -49.32,52.8 l -1.32,0.06 -1.32,0 -1.38,-0.06 -1.32,0 C -29.118,107.781 -49.571,85.128 -50.94,58.08 L -51,56.64 -51,55.26 C -51.13,27.771 -30.838,3.453 -3,1.14 l 2.64,-0.12 1.38,0 C 1.56,0.96 1.98,0.54 1.98,0"
         style="fill:#000099;fill-opacity:1;fill-rule:nonzero;stroke:none"
         id="path58" /></g><g
       id="g60"
       transform="translate(185.28,585.171)"><path
         d="m 0,0 c -29.28,0 -53.04,24.72 -53.04,55.26 0,30.48 23.76,55.26 53.04,55.26 29.22,0 52.98,-24.78 52.98,-55.26 C 52.98,24.72 29.22,0 0,0"
         style="fill:#b2e2ff;fill-opacity:1;fill-rule:evenodd;stroke:none"
         id="path62" /></g><g
       id="g64"
       transform="translate(184.26,585.171)"><path
         d="m 0,0 0.96,-1.02 -1.32,0.06 -1.38,0 -1.38,0.12 c -28.3,2.273 -49.261,26.608 -49.86,54.6 l -0.06,1.44 0.06,1.5 c 0.669,28.586 22.183,53.02 51.18,54.72 l 1.38,0.06 2.82,0 1.38,-0.06 C 32.068,109.919 53.709,86.017 54.9,58.14 l 0.06,-1.44 0.06,-1.44 C 55.006,26.644 34.117,1.57 5.16,-0.84 L 3.78,-0.96 2.4,-1.02 l -1.38,0 c -0.3,0 -0.54,0.12 -0.72,0.3 C 0.12,-0.54 0,-0.3 0,0 z m 1.98,0 -1.02,0.96 1.38,0.06 1.32,0 1.32,0.12 c 27.25,2.203 47.459,25.758 48,52.68 l 0,2.82 c -0.59,27.486 -21.42,51.22 -49.32,52.8 l -1.32,0.06 -1.32,0 -1.38,-0.06 -1.32,0 C -29.118,107.781 -49.571,85.128 -50.94,58.08 L -51,56.64 -51,55.26 C -51.13,27.771 -30.838,3.453 -3,1.14 l 2.64,-0.12 1.38,0 C 1.56,0.96 1.98,0.54 1.98,0"
         style="fill:#000099;fill-opacity:1;fill-rule:nonzero;stroke:none"
         id="path66" /></g><g
       id="g68"
       transform="translate(185.28,318.171)"><path
         d="m 0,0 c -29.28,0 -53.04,24.72 -53.04,55.26 0,30.48 23.76,55.26 53.04,55.26 29.22,0 52.98,-24.78 52.98,-55.26 C 52.98,24.72 29.22,0 0,0"
         style="fill:#b2e2ff;fill-opacity:1;fill-rule:evenodd;stroke:none"
         id="path70" /></g><g
       id="g72"
       transform="translate(184.26,318.171)"><path
         d="m 0,0 0.96,-1.02 -1.32,0.06 -1.38,0 -1.38,0.12 c -28.3,2.273 -49.261,26.608 -49.86,54.6 l -0.06,1.44 0.06,1.5 c 0.669,28.586 22.183,53.02 51.18,54.72 l 1.38,0.06 2.82,0 1.38,-0.06 C 32.073,109.912 53.706,86.027 54.9,58.14 l 0.06,-1.44 0.06,-1.44 C 55.006,26.644 34.117,1.57 5.16,-0.84 L 3.78,-0.96 2.4,-1.02 l -1.38,0 c -0.3,0 -0.54,0.12 -0.72,0.3 C 0.12,-0.54 0,-0.3 0,0 z m 1.98,0 -1.02,0.96 1.38,0.06 1.32,0 1.32,0.12 c 27.25,2.203 47.459,25.758 48,52.68 l 0,2.82 c -0.59,27.486 -21.42,51.22 -49.32,52.8 l -1.32,0.06 -1.32,0 -1.38,-0.06 -1.32,0 C -29.118,107.781 -49.571,85.128 -50.94,58.08 L -51,56.64 -51,55.26 C -51.13,27.771 -30.838,3.453 -3,1.14 l 2.64,-0.12 1.38,0 C 1.56,0.96 1.98,0.54 1.98,0"
         style="fill:#000099;fill-opacity:1;fill-rule:nonzero;stroke:none"
         id="path74" /></g><text
       transform="matrix(0,1,1,0,296.04,199.7905)"
       id="text76"><tspan
         style="fill:#9a6533;fill-opacity:1;fill-rule:nonzero;stroke:none;font-family:Arial;font-variant:normal;font-weight:bold;font-stretch:normal;font-size:18;writing-mode:lr;-inkscape-font-specification:Arial-BoldMT"
         x="0 12.9978 23.0076 29.0034 39.0132 43.9668 60.6492 67.6656 72.6714 78.6672 88.677 93.6306 106.6284 116.6382 126.648 136.6578"
         y="0"
         sodipodi:role="line"
         id="tspan78">Data Write Back:</tspan><tspan
         style="fill:#9a6533;fill-opacity:1;fill-rule:nonzero;stroke:none;font-family:Arial;font-variant:normal;font-weight:bold;font-stretch:normal;font-size:18;writing-mode:lr;-inkscape-font-specification:Arial-BoldMT"
         x="41.22 53.2296 64.2312 74.2428 81.2484 91.26 98.2656 108.2772 113.2308 123.7464 128.7 135.7056"
         y="21.6"
         sodipodi:role="line"
         id="tspan80">Sharers = {}</tspan></text>
<text
       transform="matrix(0,1,1,0,339.24,198.4711)"
       id="text82"><tspan
         style="fill:#00009a;fill-opacity:1;fill-rule:nonzero;stroke:none;font-family:Arial;font-style:italic;font-variant:normal;font-weight:normal;font-stretch:normal;font-size:18;writing-mode:lr;-inkscape-font-specification:Arial-ItalicMT"
         x="0 5.9958 22.9896 28.9854 32.9832 37.989 47.9988 52.9812 62.991 73.0008 82.0026 91.0044 95.9868 105.9966 109.9944 120.0042 129.006 138.0078"
         y="0"
         sodipodi:role="line"
         id="tspan84">(Write back block)</tspan></text>
<text
       transform="matrix(0,1,1,0,192.54,333.6511)"
       id="text86"><tspan
         style="fill:#00009a;fill-opacity:1;fill-rule:nonzero;stroke:none;font-family:Arial;font-variant:normal;font-weight:bold;font-stretch:normal;font-size:18;writing-mode:lr;-inkscape-font-specification:Arial-BoldMT"
         x="0 13.0014 24.0048 34.0182 44.0316 54.045 65.0484 75.0618"
         y="0"
         sodipodi:role="line"
         id="tspan88">Uncached</tspan><tspan
         style="fill:#00009a;fill-opacity:1;fill-rule:nonzero;stroke:none;font-family:Arial;font-variant:normal;font-weight:bold;font-stretch:normal;font-size:18;writing-mode:lr;-inkscape-font-specification:Arial-BoldMT"
         x="278.64 290.6496 301.6512 311.6628 318.6684 328.68"
         y="-13.5"
         sodipodi:role="line"
         id="tspan90">Shared</tspan><tspan
         style="fill:#00009a;fill-opacity:1;fill-rule:nonzero;stroke:none;font-family:Arial;font-variant:normal;font-weight:bold;font-stretch:normal;font-size:18;writing-mode:lr;-inkscape-font-specification:Arial-BoldMT"
         x="287.1 293.0994 300.1068 310.1202 320.1336 331.137"
         y="8.1"
         sodipodi:role="line"
         id="tspan92">(read </tspan><tspan
         style="fill:#00009a;fill-opacity:1;fill-rule:nonzero;stroke:none;font-family:Arial;font-variant:normal;font-weight:bold;font-stretch:normal;font-size:18;writing-mode:lr;-inkscape-font-specification:Arial-BoldMT"
         x="287.64 298.6308 309.6216 314.6184 324.6192"
         y="29.7"
         sodipodi:role="line"
         id="tspan94">only)</tspan><tspan
         style="fill:#00009a;fill-opacity:1;fill-rule:nonzero;stroke:none;font-family:Arial;font-variant:normal;font-weight:bold;font-stretch:normal;font-size:18;writing-mode:lr;-inkscape-font-specification:Arial-BoldMT"
         x="2.7594 17.7462 28.737 39.7278 44.7246 50.7114 55.7082 65.709"
         y="252"
         sodipodi:role="line"
         id="tspan96">Modified</tspan><tspan
         style="fill:#00009a;fill-opacity:1;fill-rule:nonzero;stroke:none;font-family:Arial;font-variant:normal;font-weight:bold;font-stretch:normal;font-size:18;writing-mode:lr;-inkscape-font-specification:Arial-BoldMT"
         x="15.1794 21.1788 28.1862 38.1996 48.213 59.2164"
         y="273.6"
         sodipodi:role="line"
         id="tspan98">(read/</tspan><tspan
         style="fill:#00009a;fill-opacity:1;fill-rule:nonzero;stroke:none;font-family:Arial;font-variant:normal;font-weight:bold;font-stretch:normal;font-size:18;writing-mode:lr;-inkscape-font-specification:Arial-BoldMT"
         x="15.7194 29.7216 36.7218 41.724 47.7162 57.7224"
         y="295.2"
         sodipodi:role="line"
         id="tspan100">write)</tspan><tspan
         style="fill:#00009a;fill-opacity:1;fill-rule:nonzero;stroke:none;font-family:Arial;font-variant:normal;font-weight:bold;font-stretch:normal;font-size:18;writing-mode:lr;-inkscape-font-specification:Arial-BoldMT"
         x="103.5 116.4978 126.5076 136.5174 147.5172 152.4996 168.5034 173.5092 183.519 193.5288"
         y="-72"
         sodipodi:role="line"
         id="tspan102">Read miss:</tspan><tspan
         style="fill:#00009a;fill-opacity:1;fill-rule:nonzero;stroke:none;font-family:Arial;font-variant:normal;font-weight:bold;font-stretch:normal;font-size:18;writing-mode:lr;-inkscape-font-specification:Arial-BoldMT"
         x="103.5 115.5078 126.5076 136.5174 143.5212 153.531 160.5348 170.5446 175.4982 186.012 190.9656 197.9694 209.9772"
         y="-50.4"
         sodipodi:role="line"
         id="tspan104">Sharers = {P}</tspan><tspan
         style="fill:#00009a;fill-opacity:1;fill-rule:nonzero;stroke:none;font-family:Arial;font-variant:normal;font-weight:bold;font-stretch:normal;font-size:18;writing-mode:lr;-inkscape-font-specification:Arial-BoldMT"
         x="103.5 113.5062 123.5124 134.5086 145.5048 150.4872 163.4814 173.4876 179.4798 189.486 194.4684 205.4484 215.4654 220.4676 231.4638 241.47"
         y="-28.8"
         sodipodi:role="line"
         id="tspan106">send Data Value </tspan><tspan
         style="fill:#00009a;fill-opacity:1;fill-rule:nonzero;stroke:none;font-family:Arial;font-variant:normal;font-weight:bold;font-stretch:normal;font-size:18;writing-mode:lr;-inkscape-font-specification:Arial-BoldMT"
         x="103.5 116.4942 126.5004 137.4966 142.4988"
         y="-7.2"
         sodipodi:role="line"
         id="tspan108">Reply</tspan><tspan
         style="fill:#9a6533;fill-opacity:1;fill-rule:nonzero;stroke:none;font-family:Arial;font-variant:normal;font-weight:bold;font-stretch:normal;font-size:18;writing-mode:lr;-inkscape-font-specification:Arial-BoldMT"
         x="255.6 272.2824 279.2988 284.3046 290.3004 300.3102 305.2926 320.2884 325.2942 335.304 345.3138 351.3096"
         y="79.5006"
         sodipodi:role="line"
         id="tspan110">Write Miss: </tspan><tspan
         style="fill:#9a6533;fill-opacity:1;fill-rule:nonzero;stroke:none;font-family:Arial;font-variant:normal;font-weight:bold;font-stretch:normal;font-size:18;writing-mode:lr;-inkscape-font-specification:Arial-BoldMT"
         x="255.6 265.6044 275.6088 286.6032 297.5976 302.58 307.5804 318.5748 328.5792 338.5836 343.584 348.5844 359.5788 369.5832 375.5736 385.578"
         y="101.1006"
         sodipodi:role="line"
         id="tspan112">send Invalidate </tspan><tspan
         style="fill:#9a6533;fill-opacity:1;fill-rule:nonzero;stroke:none;font-family:Arial;font-variant:normal;font-weight:bold;font-stretch:normal;font-size:18;writing-mode:lr;-inkscape-font-specification:Arial-BoldMT"
         x="255.6 261.6012 272.6064 277.65 289.6632 300.6684 310.6836 317.6928 327.708 334.7172 344.7324"
         y="122.7006"
         sodipodi:role="line"
         id="tspan114">to Sharers;</tspan><tspan
         style="fill:#9a6533;fill-opacity:1;fill-rule:nonzero;stroke:none;font-family:Arial;font-variant:normal;font-weight:bold;font-stretch:normal;font-size:18;writing-mode:lr;-inkscape-font-specification:Arial-BoldMT"
         x="255.6 261.6012 272.6064 282.6216 293.6268 298.6416 310.6548 321.66 331.6752 338.6844 348.6996 355.7088 365.724 370.6488 381.168 386.1828 393.192 405.2052 412.2144"
         y="144.3006"
         sodipodi:role="line"
         id="tspan116">then Sharers = {P};</tspan><tspan
         style="fill:#9a6533;fill-opacity:1;fill-rule:nonzero;stroke:none;font-family:Arial;font-variant:normal;font-weight:bold;font-stretch:normal;font-size:18;writing-mode:lr;-inkscape-font-specification:Arial-BoldMT"
         x="255.6 265.6062 275.6124 286.6086 297.6048 302.5872 315.5814 325.5876 331.5798 341.586 346.5684 357.5484 367.5654 372.5676 383.5638 393.57"
         y="165.9006"
         sodipodi:role="line"
         id="tspan118">send Data Value </tspan><tspan
         style="fill:#9a6533;fill-opacity:1;fill-rule:nonzero;stroke:none;font-family:Arial;font-variant:normal;font-weight:bold;font-stretch:normal;font-size:18;writing-mode:lr;-inkscape-font-specification:Arial-BoldMT"
         x="255.6 268.6014 278.6148 289.6182 294.6276 304.641 309.6234 325.6308 335.6442"
         y="187.5006"
         sodipodi:role="line"
         id="tspan120">Reply msg</tspan></text>
<path
       d="m 192.24,429.651 -1.98,0 0,152.52 1.98,0 0,-152.52 z m -1.98,0 z m -1.98,151.5 3,6 3,-6"
       style="fill:#000099;fill-opacity:1;fill-rule:nonzero;stroke:none"
       id="path122" /><path
       d="m 237.78,372.171 161.46,0 0,-1.98 -161.46,0 0,1.98 z m 160.5,1.98 6,-3 -6,-3"
       style="fill:#000099;fill-opacity:1;fill-rule:nonzero;stroke:none"
       id="path124" /><path
       d="m 238.26,352.671 172.02,0 0,-1.98 -172.02,0 0,1.98 z m 1.02,-4.02 -6,3 6,3"
       style="fill:#996633;fill-opacity:1;fill-rule:nonzero;stroke:none"
       id="path126" /><text
       transform="matrix(0,1,1,0,261.54,384.6505)"
       id="text128"><tspan
         style="fill:#9a6533;fill-opacity:1;fill-rule:nonzero;stroke:none;font-family:Arial;font-variant:normal;font-weight:bold;font-stretch:normal;font-size:18;writing-mode:lr;-inkscape-font-specification:Arial-BoldMT"
         x="0 16.6824 23.6988 28.7046 34.7004 44.7102 49.6926 64.6884 69.6942 79.704 89.7138"
         y="0"
         sodipodi:role="line"
         id="tspan130">Write Miss:</tspan><tspan
         style="fill:#9a6533;fill-opacity:1;fill-rule:nonzero;stroke:none;font-family:Arial;font-variant:normal;font-weight:bold;font-stretch:normal;font-size:18;writing-mode:lr;-inkscape-font-specification:Arial-BoldMT"
         x="0 12.0096 23.0112 33.0228 40.0284 50.04 57.0456 67.0572 72.0108 82.5264 87.48 94.4856 106.4952 113.5008 119.4984"
         y="21.6"
         sodipodi:role="line"
         id="tspan132">Sharers = {P}; </tspan><tspan
         style="fill:#9a6533;fill-opacity:1;fill-rule:nonzero;stroke:none;font-family:Arial;font-variant:normal;font-weight:bold;font-stretch:normal;font-size:18;writing-mode:lr;-inkscape-font-specification:Arial-BoldMT"
         x="0 10.0098 20.0196 31.0194 42.0192 47.0016 59.9994 70.0092 76.005 86.0148"
         y="43.2"
         sodipodi:role="line"
         id="tspan134">send Data </tspan><tspan
         style="fill:#9a6533;fill-opacity:1;fill-rule:nonzero;stroke:none;font-family:Arial;font-variant:normal;font-weight:bold;font-stretch:normal;font-size:18;writing-mode:lr;-inkscape-font-specification:Arial-BoldMT"
         x="0 10.98 20.997 25.9794 36.963 46.98 52.0236 65.0412 75.0582 86.0418 91.0242"
         y="64.8"
         sodipodi:role="line"
         id="tspan136">Value Reply</tspan><tspan
         style="fill:#9a6533;fill-opacity:1;fill-rule:nonzero;stroke:none;font-family:Arial;font-variant:normal;font-weight:bold;font-stretch:normal;font-size:18;writing-mode:lr;-inkscape-font-specification:Arial-BoldMT"
         x="0 16.0146 26.0352"
         y="86.4"
         sodipodi:role="line"
         id="tspan138">msg</tspan></text>
<g
       id="g140"
       transform="translate(226.5,611.99)"><path
         d="m 0,0 179.76,-212.16 1.5,1.32 L 1.5,1.32 0,0 z m 177.6,-212.7 6.18,-2.64 -1.62,6.54"
         style="fill:#000099;fill-opacity:1;fill-rule:nonzero;stroke:none"
         id="path142" /></g><g
       id="g144"
       transform="translate(218.64,586.31)"><path
         d="m 0,0 213.54,-163.44 1.2,1.56 L 1.2,1.62 0,0 z m 3.18,2.58 -6.54,1.26 2.94,-6"
         style="fill:#000099;fill-opacity:1;fill-rule:nonzero;stroke:none"
         id="path146" /></g><text
       transform="matrix(0,1,1,0,407.04,465.6505)"
       id="text148"><tspan
         style="fill:#00009a;fill-opacity:1;fill-rule:nonzero;stroke:none;font-family:Arial;font-variant:normal;font-weight:bold;font-stretch:normal;font-size:18;writing-mode:lr;-inkscape-font-specification:Arial-BoldMT"
         x="0 12.9978 23.0076 33.0174 44.0172 48.9996 65.0034 70.0092 80.019 90.0288"
         y="0"
         sodipodi:role="line"
         id="tspan150">Read miss:</tspan><tspan
         style="fill:#00009a;fill-opacity:1;fill-rule:nonzero;stroke:none;font-family:Arial;font-variant:normal;font-weight:bold;font-stretch:normal;font-size:18;writing-mode:lr;-inkscape-font-specification:Arial-BoldMT"
         x="0 12.0078 23.0076 33.0174 40.0212 50.031 57.0348 71.9712 82.485 92.9988 97.9812 104.985 116.9928 123.9966 129.9924"
         y="21.6"
         sodipodi:role="line"
         id="tspan152">Sharers+= {P}; </tspan><tspan
         style="fill:#00009a;fill-opacity:1;fill-rule:nonzero;stroke:none;font-family:Arial;font-variant:normal;font-weight:bold;font-stretch:normal;font-size:18;writing-mode:lr;-inkscape-font-specification:Arial-BoldMT"
         x="0 10.0098 20.0196 31.0194 46.9818 57.9654 67.9752 73.971 83.9808 94.9806"
         y="43.2"
         sodipodi:role="line"
         id="tspan154">sendFetch;</tspan><tspan
         style="fill:#00009a;fill-opacity:1;fill-rule:nonzero;stroke:none;font-family:Arial;font-variant:normal;font-weight:bold;font-stretch:normal;font-size:18;writing-mode:lr;-inkscape-font-specification:Arial-BoldMT"
         x="0 10.008 20.016 31.014 46.9764 59.994 70.002 75.996 86.004 90.9864 101.9664 111.9834 116.9874 127.9854 137.9934 142.9758 155.9718 165.9798 176.9778 181.9818"
         y="64.8"
         sodipodi:role="line"
         id="tspan156">sendData Value Reply</tspan><tspan
         style="fill:#00009a;fill-opacity:1;fill-rule:nonzero;stroke:none;font-family:Arial;font-variant:normal;font-weight:bold;font-stretch:normal;font-size:18;writing-mode:lr;-inkscape-font-specification:Arial-BoldMT"
         x="0 16.002 26.01 37.008 41.9922 47.9862 58.9842 63.9684 70.9704 80.9784 96.9804 107.9784 113.9724 123.9804 128.9646 138.9726 148.9806 158.9886 169.9866"
         y="86.4"
         sodipodi:role="line"
         id="tspan158">msg to remote cache</tspan></text>
<text
       transform="matrix(0,1,1,0,515.04,465.6505)"
       id="text160"><tspan
         style="fill:#00009a;fill-opacity:1;fill-rule:nonzero;stroke:none;font-family:Arial;font-style:italic;font-variant:normal;font-weight:normal;font-stretch:normal;font-size:18;writing-mode:lr;-inkscape-font-specification:Arial-ItalicMT"
         x="0 5.9958 22.9896 28.9854 32.9832 37.989 47.9988 52.9812 62.991 73.0008 82.0026 91.0044 95.9868 105.9966 109.9944 120.0042 129.006 138.0078"
         y="0"
         sodipodi:role="line"
         id="tspan162">(Write back block)</tspan></text>
<text
       transform="matrix(0,1,1,0,443.04,116.1499)"
       id="text164"><tspan
         style="fill:#9a6533;fill-opacity:1;fill-rule:nonzero;stroke:none;font-family:Arial;font-variant:normal;font-weight:bold;font-stretch:normal;font-size:18;writing-mode:lr;-inkscape-font-specification:Arial-BoldMT"
         x="0 16.6824 23.6988 28.7046 34.7004 44.7102 49.6926 64.6884 69.6942 79.704 89.7138"
         y="0"
         sodipodi:role="line"
         id="tspan166">Write Miss:</tspan><tspan
         style="fill:#9a6533;fill-opacity:1;fill-rule:nonzero;stroke:none;font-family:Arial;font-variant:normal;font-weight:bold;font-stretch:normal;font-size:18;writing-mode:lr;-inkscape-font-specification:Arial-BoldMT"
         x="0 12.0096 23.0112 33.0228 40.0284 50.04 57.0456 67.0572 72.0108 82.5264 87.48 94.4856 106.4952 113.5008 119.4984"
         y="21.6"
         sodipodi:role="line"
         id="tspan168">Sharers = {P}; </tspan><tspan
         style="fill:#9a6533;fill-opacity:1;fill-rule:nonzero;stroke:none;font-family:Arial;font-variant:normal;font-weight:bold;font-stretch:normal;font-size:18;writing-mode:lr;-inkscape-font-specification:Arial-BoldMT"
         x="0 10.0044 20.0088 31.0032 41.9976 46.98 57.9744 67.9788 73.9692 83.9736 94.968 99.9684 104.9688 115.9632 125.9676 135.972 140.9724 145.9728 156.9672 166.9716 172.962 182.9664"
         y="43.2"
         sodipodi:role="line"
         id="tspan170">send Fetch/Invalidate;</tspan><tspan
         style="fill:#9a6533;fill-opacity:1;fill-rule:nonzero;stroke:none;font-family:Arial;font-variant:normal;font-weight:bold;font-stretch:normal;font-size:18;writing-mode:lr;-inkscape-font-specification:Arial-BoldMT"
         x="0 10.0062 20.0124 31.0086 42.0048 46.989 59.9832 69.9894 75.9816 85.9878 90.972 101.952 111.969 116.9712 127.9674 137.9736 142.9578 155.952 165.9582 176.9544 181.9566"
         y="64.8"
         sodipodi:role="line"
         id="tspan172">send Data Value Reply</tspan><tspan
         style="fill:#9a6533;fill-opacity:1;fill-rule:nonzero;stroke:none;font-family:Arial;font-variant:normal;font-weight:bold;font-stretch:normal;font-size:18;writing-mode:lr;-inkscape-font-specification:Arial-BoldMT"
         x="0 16.002 26.01 37.008 41.994 47.988 58.986 63.972 70.974 80.982 96.984 107.982 113.976 123.984 128.97 138.978 148.986 158.994 169.992"
         y="86.4"
         sodipodi:role="line"
         id="tspan174">msg to remote cache</tspan></text>
<text
       transform="matrix(0,1,1,0,551.04,116.1499)"
       id="text176"><tspan
         style="fill:#00009a;fill-opacity:1;fill-rule:nonzero;stroke:none;font-family:Arial;font-style:italic;font-variant:normal;font-weight:normal;font-stretch:normal;font-size:18;writing-mode:lr;-inkscape-font-specification:Arial-ItalicMT"
         x="0 5.9958 22.9896 28.9854 32.9832 37.989 47.9988 52.9812 62.991 73.0008 82.0026 91.0044 95.9868 105.9966 109.9944 120.0042 129.006 138.0078"
         y="0"
         sodipodi:role="line"
         id="tspan178">(Write back block)</tspan></text>
<text
       transform="matrix(0,0.94619086,0.94619086,-0.3236091,140.4,90.6505)"
       id="text184"><tspan
         style="fill:#00009a;fill-opacity:1;fill-rule:nonzero;stroke:none;font-family:Tahoma;font-variant:normal;font-weight:bold;font-stretch:normal;font-size:25.3648613;writing-mode:lr;-inkscape-font-specification:Tahoma-Bold"
         x="0 16.05088423 26.59759356 41.78607251 52.33278184 67.39443648 74.94048272 99.13348743 114.32196638 127.68417531 143.91261357 151.56772871 167.79616697"
         y="0"
         sodipodi:role="line"
         id="tspan186">State machine</tspan><tspan
         style="fill:#00009a;fill-opacity:1;fill-rule:nonzero;stroke:none;font-family:Tahoma;font-variant:normal;font-weight:bold;font-stretch:normal;font-size:25.3648613;writing-mode:lr;-inkscape-font-specification:Tahoma-Bold"
         x="10.40973908 20.09657961 35.74416255 46.74997587 54.13875996 70.09072124 77.74837286 88.75418618 96.69085128 104.07963538 115.0854487 130.14963983 146.1016011 162.33257585 177.39676698 190.45713406 201.00637988 214.06674696"
         y="30.437834"
         sodipodi:role="line"
         id="tspan188">for dir. requests </tspan><tspan
         style="fill:#00009a;fill-opacity:1;fill-rule:nonzero;stroke:none;font-family:Tahoma;font-variant:normal;font-weight:bold;font-stretch:normal;font-size:25.3648613;writing-mode:lr;-inkscape-font-specification:Tahoma-Bold"
         x="20.81947816 30.5037822 46.14882865 57.15210549 64.57132742 79.63298206 94.82146101 108.18366994 124.4121082"
         y="60.875667"
         sodipodi:role="line"
         id="tspan190">for each </tspan><tspan
         style="fill:#9a6533;fill-opacity:1;fill-rule:nonzero;stroke:none;font-family:Tahoma;font-variant:normal;font-weight:bold;font-stretch:normal;font-size:25.3648613;writing-mode:lr;-inkscape-font-specification:Tahoma-Bold"
         x="31.22921724 55.42729492 70.49402253 94.69210021 110.34221964 121.35056944 135.96072955 143.50677579 159.53736813 167.19755625 182.84767567 196.21495758"
         y="91.313501"
         sodipodi:role="line"
         id="tspan192">memory block</tspan></text>
<text
       transform="matrix(0,1,1,0,48.54,580.9105)"
       id="text194"><tspan
         style="fill:#00009a;fill-opacity:1;fill-rule:nonzero;stroke:none;font-family:Arial;font-variant:normal;font-weight:bold;font-stretch:normal;font-size:18;writing-mode:lr;-inkscape-font-specification:Arial-BoldMT"
         x="0 12.9978 23.0076 33.0174 44.0172 48.9996 65.0034 70.0092 80.019 90.0288 96.0246"
         y="0"
         sodipodi:role="line"
         id="tspan196">Read miss: </tspan><tspan
         style="fill:#00009a;fill-opacity:1;fill-rule:nonzero;stroke:none;font-family:Arial;font-variant:normal;font-weight:bold;font-stretch:normal;font-size:18;writing-mode:lr;-inkscape-font-specification:Arial-BoldMT"
         x="0 12.0078 23.0076 33.0174 40.0212 50.031 57.0348 67.0446 71.9982 82.512 93.0258 97.9794 104.9832 116.991 123.9948"
         y="21.6"
         sodipodi:role="line"
         id="tspan198">Sharers += {P};</tspan><tspan
         style="fill:#00009a;fill-opacity:1;fill-rule:nonzero;stroke:none;font-family:Arial;font-variant:normal;font-weight:bold;font-stretch:normal;font-size:18;writing-mode:lr;-inkscape-font-specification:Arial-BoldMT"
         x="0 10.0062 20.0124 31.0086 42.0048 46.9872 59.9814 69.9876 75.9798 85.986 90.9684 101.9484 111.9654 116.9676 127.9638 137.97 142.9524 155.9466 165.9528 176.949 181.9512"
         y="43.2"
         sodipodi:role="line"
         id="tspan200">send Data Value Reply</tspan></text>
</g></svg>