<?xml version="1.0" encoding="UTF-8" standalone="no"?>
<!-- Created with Inkscape (http://www.inkscape.org/) -->

<svg
   xmlns:dc="http://purl.org/dc/elements/1.1/"
   xmlns:cc="http://creativecommons.org/ns#"
   xmlns:rdf="http://www.w3.org/1999/02/22-rdf-syntax-ns#"
   xmlns:svg="http://www.w3.org/2000/svg"
   xmlns="http://www.w3.org/2000/svg"
   xmlns:sodipodi="http://sodipodi.sourceforge.net/DTD/sodipodi-0.dtd"
   xmlns:inkscape="http://www.inkscape.org/namespaces/inkscape"
   id="svg2"
   version="1.1"
   inkscape:version="0.48.3.1 r9886"
   width="1052.5"
   height="744.025"
   xml:space="preserve"
   sodipodi:docname="Lesson_13B_Multiprocessors.pdf"><metadata
     id="metadata8"><rdf:RDF><cc:Work
         rdf:about=""><dc:format>image/svg+xml</dc:format><dc:type
           rdf:resource="http://purl.org/dc/dcmitype/StillImage" /><dc:title></dc:title></cc:Work></rdf:RDF></metadata><defs
     id="defs6"><clipPath
       clipPathUnits="userSpaceOnUse"
       id="clipPath16"><path
         d="m 567.48,61.011 -540,0 0,720 540,0 0,-720 z"
         clip-rule="evenodd"
         id="path18" /></clipPath><clipPath
       clipPathUnits="userSpaceOnUse"
       id="clipPath22"><path
         d="m 0,841.98 595.2,0 L 595.2,0 0,0 0,841.98 z"
         id="path24" /></clipPath><clipPath
       clipPathUnits="userSpaceOnUse"
       id="clipPath42"><path
         d="m 147.48,564.831 265.56,0 0,113.58 -265.56,0 0,-113.58 z"
         id="path44" /></clipPath><clipPath
       clipPathUnits="userSpaceOnUse"
       id="clipPath60"><path
         d="m 147.48,265.191 266.46,0 0,118.14 -266.46,0 0,-118.14 z"
         id="path62" /></clipPath><clipPath
       clipPathUnits="userSpaceOnUse"
       id="clipPath102"><path
         d="m 432.12,271.071 37.38,0 0,407.28 -37.38,0 0,-407.28 z"
         id="path104" /></clipPath><clipPath
       clipPathUnits="userSpaceOnUse"
       id="clipPath220"><path
         d="m 349.56,169.011 60.36,0 0,101.94 -60.36,0 0,-101.94 z"
         id="path222" /></clipPath></defs><sodipodi:namedview
     pagecolor="#ffffff"
     bordercolor="#666666"
     borderopacity="1"
     objecttolerance="10"
     gridtolerance="10"
     guidetolerance="10"
     inkscape:pageopacity="0"
     inkscape:pageshadow="2"
     inkscape:window-width="640"
     inkscape:window-height="480"
     id="namedview4"
     showgrid="false"
     inkscape:zoom="0.31719363"
     inkscape:cx="526.25"
     inkscape:cy="372.01251"
     inkscape:window-x="0"
     inkscape:window-y="24"
     inkscape:window-maximized="0"
     inkscape:current-layer="g10" /><g
     id="g10"
     inkscape:groupmode="layer"
     inkscape:label="Lesson_13B_Multiprocessors"
     transform="matrix(0,1.25,1.25,0,0,0)"><path
       d="m 41.836951,652.42612 409.424889,0 0,167.80671 -409.424889,0 0,-167.80671 z"
       style="fill:#ffff9a;fill-opacity:1;fill-rule:nonzero;stroke:none"
       id="path36"
       inkscape:connector-curvature="0" /><g
       id="g38"
       transform="matrix(1.5795713,0,0,1.5854754,-191.40255,-252.80265)"><g
         id="g40"
         clip-path="url(#clipPath42)"><path
           d="m 406.86,676.791 -259.2,0 0,-105.84 259.2,0 0,105.84 z m -259.2,0 z"
           style="fill:none;stroke:#000000;stroke-width:1.09500003;stroke-linecap:round;stroke-linejoin:miter;stroke-miterlimit:10;stroke-opacity:1;stroke-dasharray:none"
           id="path46"
           inkscape:connector-curvature="0" /></g></g><path
       d="m 48.755473,685.24546 51.936307,0 0,104.26086 -51.936307,0 0,-104.26086 z"
       style="fill:#ffff9a;fill-opacity:1;fill-rule:nonzero;stroke:none"
       id="path48"
       inkscape:connector-curvature="0" /><text
       transform="matrix(0,1.0018671,0.99813636,0,0,0)"
       id="text50"
       x="707.04071"
       y="80.275368"
       style="font-size:18.99024773px"><tspan
         style="font-size:23.9914875px;font-variant:normal;font-weight:normal;font-stretch:normal;writing-mode:lr-tb;fill:#000000;fill-opacity:1;fill-rule:nonzero;stroke:none;font-family:Arial;-inkscape-font-specification:ArialMT"
         x="707.04071 724.33618 737.64911 750.96198"
         y="80.275368"
         sodipodi:role="line"
         id="tspan52">Node</tspan></text>
<path
       d="m 41.836951,177.35427 410.846499,0 0,167.80672 -410.846499,0 0,-167.80672 z"
       style="fill:#ffff9a;fill-opacity:1;fill-rule:nonzero;stroke:none"
       id="path54"
       inkscape:connector-curvature="0" /><g
       id="g56"
       transform="matrix(1.5795713,0,0,1.5854754,-191.40255,-252.80265)"><g
         id="g58"
         clip-path="url(#clipPath60)"><path
           d="m 407.76,377.151 -260.1,0 0,-105.84 260.1,0 0,105.84 z m -260.1,0 z"
           style="fill:none;stroke:#000000;stroke-width:1.09500003;stroke-linecap:round;stroke-linejoin:miter;stroke-miterlimit:10;stroke-opacity:1;stroke-dasharray:none"
           id="path64"
           inkscape:connector-curvature="0" /></g></g><path
       d="m 186.08341,338.40686 -75.81943,0 0,-151.72999 75.81943,0 0,151.72999 z m -75.81943,0 z"
       style="fill:#00ccff;fill-opacity:1;fill-rule:evenodd;stroke:#000000;stroke-width:1.73286009;stroke-linecap:round;stroke-linejoin:miter;stroke-miterlimit:10;stroke-opacity:1;stroke-dasharray:none"
       id="path66"
       inkscape:connector-curvature="0" /><text
       transform="matrix(0,1.0018671,0.99813636,0,0,0)"
       id="text68"
       x="207.6922"
       y="153.38782"
       style="font-size:18.99024773px"><tspan
         style="font-size:23.9914875px;font-variant:normal;font-weight:normal;font-stretch:normal;writing-mode:lr-tb;fill:#000000;fill-opacity:1;fill-rule:nonzero;stroke:none;font-family:Arial;-inkscape-font-specification:ArialMT"
         x="207.6922 223.64415 231.71487 245.00377 257.15784 270.44672 282.6008 294.75488 308.04379 316.11453"
         y="153.38782"
         sodipodi:role="line"
         id="tspan70">Processor </tspan></text>
<g
       id="g72"
       transform="matrix(1.5795713,0,0,1.5854754,203.99575,262.30404)"><path
         d="M 0,0 11.7,0"
         style="fill:none;stroke:#000000;stroke-width:1.09500003;stroke-linecap:round;stroke-linejoin:round;stroke-miterlimit:10;stroke-opacity:1;stroke-dasharray:none"
         id="path74"
         inkscape:connector-curvature="0" /></g><g
       id="g76"
       transform="matrix(1.5795713,0,0,1.5854754,204.84871,268.67765)"><path
         d="M 0,0 -12.06,-3.84 0,-7.86"
         style="fill:#000000;fill-opacity:1;fill-rule:evenodd;stroke:none"
         id="path78"
         inkscape:connector-curvature="0" /></g><g
       id="g80"
       transform="matrix(1.5795713,0,0,1.5854754,221.90809,256.21582)"><path
         d="M 0,0 11.88,4.02 0,7.86"
         style="fill:#000000;fill-opacity:1;fill-rule:evenodd;stroke:none"
         id="path82"
         inkscape:connector-curvature="0" /></g><g
       id="g84"
       transform="matrix(1.5795713,0,0,1.5854754,334.12083,262.30404)"><path
         d="M 0,0 11.7,0"
         style="fill:none;stroke:#000000;stroke-width:1.09500003;stroke-linecap:round;stroke-linejoin:round;stroke-miterlimit:10;stroke-opacity:1;stroke-dasharray:none"
         id="path86"
         inkscape:connector-curvature="0" /></g><g
       id="g88"
       transform="matrix(1.5795713,0,0,1.5854754,334.9738,268.67765)"><path
         d="M 0,0 -11.88,-3.84 0,-7.86"
         style="fill:#000000;fill-opacity:1;fill-rule:evenodd;stroke:none"
         id="path90"
         inkscape:connector-curvature="0" /></g><g
       id="g92"
       transform="matrix(1.5795713,0,0,1.5854754,352.03317,256.21582)"><path
         d="M 0,0 12.06,4.02 0,7.86"
         style="fill:#000000;fill-opacity:1;fill-rule:evenodd;stroke:none"
         id="path94"
         inkscape:connector-curvature="0" /></g><path
       d="m 500.82879,186.67687 48.52443,0 0,626.23107 -48.52443,0 0,-626.23107 z"
       style="fill:#969696;fill-opacity:1;fill-rule:nonzero;stroke:none"
       id="path96"
       inkscape:connector-curvature="0" /><g
       id="g98"
       transform="matrix(1.5795713,0,0,1.5854754,-191.40255,-252.80265)"><g
         id="g100"
         clip-path="url(#clipPath102)"><path
           d="m 468.96,672.171 -30.72,0 0,-394.98 30.72,0 0,394.98 z m -30.72,0 z"
           style="fill:none;stroke:#000000;stroke-width:1.09500003;stroke-linecap:round;stroke-linejoin:miter;stroke-miterlimit:10;stroke-opacity:1;stroke-dasharray:none"
           id="path106"
           inkscape:connector-curvature="0" /></g></g><text
       transform="matrix(0,1.0018671,0.99813636,0,0,0)"
       id="text108"
       x="357.81009"
       y="530.724"
       style="font-size:18.99024773px"><tspan
         style="font-size:23.9914875px;font-variant:normal;font-weight:bold;font-stretch:normal;writing-mode:lr-tb;fill:#000000;fill-opacity:1;fill-rule:nonzero;stroke:none;font-family:Arial;-inkscape-font-specification:Arial-BoldMT"
         x="357.81009 364.50851 379.19611 387.21405 400.58212 409.9436 423.31165 437.99924 452.68683 467.37442 480.74246 494.11053 502.12848 508.8269 523.51447 538.20209 544.85254 562.20319 575.57123 583.58917 602.6792 617.36682 626.72827 640.09631"
         y="530.724"
         sodipodi:role="line"
         id="tspan110">Interconnection Network </tspan></text>
<path
       d="m 316.20849,338.40686 -75.5351,0 0,-151.72999 75.5351,0 0,151.72999 z m -75.5351,0 z"
       style="fill:#ccffcc;fill-opacity:1;fill-rule:evenodd;stroke:#000000;stroke-width:1.73286009;stroke-linecap:round;stroke-linejoin:miter;stroke-miterlimit:10;stroke-opacity:1;stroke-dasharray:none"
       id="path112"
       inkscape:connector-curvature="0" /><text
       transform="matrix(0,1.0018671,0.99813636,0,0,0)"
       id="text114"
       x="227.06226"
       y="283.75586"
       style="font-size:18.99024773px"><tspan
         style="font-size:23.9914875px;font-variant:normal;font-weight:normal;font-stretch:normal;writing-mode:lr-tb;fill:#000000;fill-opacity:1;fill-rule:nonzero;stroke:none;font-family:Arial;-inkscape-font-specification:ArialMT"
         x="227.06226 244.35292 257.66098 269.81506 283.12314 296.43121"
         y="283.75586"
         sodipodi:role="line"
         id="tspan116">Cache </tspan></text>
<text
       transform="matrix(0,1.0018671,0.99813636,0,0,0)"
       id="text118"
       x="385.25012"
       y="421.81488"
       style="font-size:18.99024773px"><tspan
         style="font-size:23.9914875px;font-variant:normal;font-weight:bold;font-stretch:normal;writing-mode:lr-tb;fill:#000000;fill-opacity:1;fill-rule:nonzero;stroke:none;font-family:Arial;-inkscape-font-specification:Arial-BoldMT"
         x="385.25012 409.2728"
         y="421.81488"
         sodipodi:role="line"
         id="tspan120">… </tspan><tspan
         style="font-size:23.9914875px;font-variant:normal;font-weight:bold;font-stretch:normal;writing-mode:lr-tb;fill:#000000;fill-opacity:1;fill-rule:nonzero;stroke:none;font-family:Arial;-inkscape-font-specification:Arial-BoldMT"
         x="385.25012 409.2728"
         y="291.44754"
         sodipodi:role="line"
         id="tspan122">… </tspan><tspan
         style="font-size:23.9914875px;font-variant:normal;font-weight:bold;font-stretch:normal;writing-mode:lr-tb;fill:#000000;fill-opacity:1;fill-rule:nonzero;stroke:none;font-family:Arial;-inkscape-font-specification:Arial-BoldMT"
         x="385.25012 409.2728"
         y="161.0802"
         sodipodi:role="line"
         id="tspan124">… </tspan></text>
<g
       id="g126"
       transform="matrix(1.5795713,0,0,1.5854754,464.24592,262.30404)"><path
         d="M 0,0 11.7,0"
         style="fill:none;stroke:#000000;stroke-width:1.09500003;stroke-linecap:round;stroke-linejoin:round;stroke-miterlimit:10;stroke-opacity:1;stroke-dasharray:none"
         id="path128"
         inkscape:connector-curvature="0" /></g><g
       id="g130"
       transform="matrix(1.5795713,0,0,1.5854754,465.09889,268.67765)"><path
         d="M 0,0 -12.06,-3.84 0,-7.86"
         style="fill:#000000;fill-opacity:1;fill-rule:evenodd;stroke:none"
         id="path132"
         inkscape:connector-curvature="0" /></g><g
       id="g134"
       transform="matrix(1.5795713,0,0,1.5854754,482.15826,256.21582)"><path
         d="M 0,0 11.82,4.02 0,7.86"
         style="fill:#000000;fill-opacity:1;fill-rule:evenodd;stroke:none"
         id="path136"
         inkscape:connector-curvature="0" /></g><path
       d="m 446.6179,338.40686 -75.81942,0 0,-151.72999 75.81942,0 0,151.72999 z m -75.81942,0 z"
       style="fill:#ff00ff;fill-opacity:1;fill-rule:evenodd;stroke:#000000;stroke-width:1.73286009;stroke-linecap:round;stroke-linejoin:miter;stroke-miterlimit:10;stroke-opacity:1;stroke-dasharray:none"
       id="path138"
       inkscape:connector-curvature="0" /><text
       transform="matrix(0,1.0018671,0.99813636,0,0,0)"
       id="text140"
       x="236.08263"
       y="399.69131"
       style="font-size:18.99024773px"><tspan
         style="font-size:23.9914875px;font-variant:normal;font-weight:normal;font-stretch:normal;writing-mode:lr-tb;fill:#000000;fill-opacity:1;fill-rule:nonzero;stroke:none;font-family:Arial;-inkscape-font-specification:ArialMT"
         x="236.08263 256.00275 269.27722 274.53857 287.81305"
         y="399.69131"
         sodipodi:role="line"
         id="tspan142">Main </tspan><tspan
         style="font-size:23.9914875px;font-variant:normal;font-weight:normal;font-stretch:normal;writing-mode:lr-tb;fill:#000000;fill-opacity:1;fill-rule:nonzero;stroke:none;font-family:Arial;-inkscape-font-specification:ArialMT"
         x="218.70558 238.64252 251.93379 272.44412 285.733 293.89969 305.10373"
         y="427.13278"
         sodipodi:role="line"
         id="tspan144">Memory </tspan></text>
<path
       d="m 186.08341,812.90794 -75.81943,0 0,-151.73 75.81943,0 0,151.73 z m -75.81943,0 z"
       style="fill:#00ccff;fill-opacity:1;fill-rule:evenodd;stroke:#000000;stroke-width:1.73286009;stroke-linecap:round;stroke-linejoin:miter;stroke-miterlimit:10;stroke-opacity:1;stroke-dasharray:none"
       id="path146"
       inkscape:connector-curvature="0" /><text
       transform="matrix(0,1.0018671,0.99813636,0,0,0)"
       id="text148"
       x="681.30896"
       y="153.38782"
       style="font-size:18.99024773px"><tspan
         style="font-size:23.9914875px;font-variant:normal;font-weight:normal;font-stretch:normal;writing-mode:lr-tb;fill:#000000;fill-opacity:1;fill-rule:nonzero;stroke:none;font-family:Arial;-inkscape-font-specification:ArialMT"
         x="681.30896 697.26331 705.33643 718.62769 730.78418 744.0755 756.23199 768.38843 781.67975 789.75287"
         y="153.38782"
         sodipodi:role="line"
         id="tspan150">Processor </tspan></text>
<g
       id="g152"
       transform="matrix(1.5795713,0,0,1.5854754,203.99575,737.0905)"><path
         d="M 0,0 11.7,0"
         style="fill:none;stroke:#000000;stroke-width:1.09500003;stroke-linecap:round;stroke-linejoin:round;stroke-miterlimit:10;stroke-opacity:1;stroke-dasharray:none"
         id="path154"
         inkscape:connector-curvature="0" /></g><g
       id="g156"
       transform="matrix(1.5795713,0,0,1.5854754,204.84871,743.46253)"><path
         d="M 0,0 -12.06,-4.02 0,-7.86"
         style="fill:#000000;fill-opacity:1;fill-rule:evenodd;stroke:none"
         id="path158"
         inkscape:connector-curvature="0" /></g><g
       id="g160"
       transform="matrix(1.5795713,0,0,1.5854754,221.90809,731.00069)"><path
         d="M 0,0 11.88,3.84 0,7.86"
         style="fill:#000000;fill-opacity:1;fill-rule:evenodd;stroke:none"
         id="path162"
         inkscape:connector-curvature="0" /></g><g
       id="g164"
       transform="matrix(1.5795713,0,0,1.5854754,334.12083,737.0905)"><path
         d="M 0,0 11.7,0"
         style="fill:none;stroke:#000000;stroke-width:1.09500003;stroke-linecap:round;stroke-linejoin:round;stroke-miterlimit:10;stroke-opacity:1;stroke-dasharray:none"
         id="path166"
         inkscape:connector-curvature="0" /></g><g
       id="g168"
       transform="matrix(1.5795713,0,0,1.5854754,334.9738,743.46253)"><path
         d="M 0,0 -11.88,-4.02 0,-7.86"
         style="fill:#000000;fill-opacity:1;fill-rule:evenodd;stroke:none"
         id="path170"
         inkscape:connector-curvature="0" /></g><g
       id="g172"
       transform="matrix(1.5795713,0,0,1.5854754,352.03317,731.00069)"><path
         d="M 0,0 12.06,3.84 0,7.86"
         style="fill:#000000;fill-opacity:1;fill-rule:evenodd;stroke:none"
         id="path174"
         inkscape:connector-curvature="0" /></g><path
       d="m 316.20849,812.90794 -75.5351,0 0,-151.73 75.5351,0 0,151.73 z m -75.5351,0 z"
       style="fill:#ccffcc;fill-opacity:1;fill-rule:evenodd;stroke:#000000;stroke-width:1.73286009;stroke-linecap:round;stroke-linejoin:miter;stroke-miterlimit:10;stroke-opacity:1;stroke-dasharray:none"
       id="path176"
       inkscape:connector-curvature="0" /><text
       transform="matrix(0,1.0018671,0.99813636,0,0,0)"
       id="text178"
       x="700.67902"
       y="283.75586"
       style="font-size:18.99024773px"><tspan
         style="font-size:23.9914875px;font-variant:normal;font-weight:normal;font-stretch:normal;writing-mode:lr-tb;fill:#000000;fill-opacity:1;fill-rule:nonzero;stroke:none;font-family:Arial;-inkscape-font-specification:ArialMT"
         x="700.67902 717.96967 731.27777 743.43182 756.73993 770.04797"
         y="283.75586"
         sodipodi:role="line"
         id="tspan180">Cache </tspan></text>
<g
       id="g182"
       transform="matrix(1.5795713,0,0,1.5854754,464.24592,737.0905)"><path
         d="M 0,0 11.7,0"
         style="fill:none;stroke:#000000;stroke-width:1.09500003;stroke-linecap:round;stroke-linejoin:round;stroke-miterlimit:10;stroke-opacity:1;stroke-dasharray:none"
         id="path184"
         inkscape:connector-curvature="0" /></g><g
       id="g186"
       transform="matrix(1.5795713,0,0,1.5854754,465.09889,743.46253)"><path
         d="M 0,0 -12.06,-4.02 0,-7.86"
         style="fill:#000000;fill-opacity:1;fill-rule:evenodd;stroke:none"
         id="path188"
         inkscape:connector-curvature="0" /></g><g
       id="g190"
       transform="matrix(1.5795713,0,0,1.5854754,482.15826,731.00069)"><path
         d="M 0,0 11.82,3.84 0,7.86"
         style="fill:#000000;fill-opacity:1;fill-rule:evenodd;stroke:none"
         id="path192"
         inkscape:connector-curvature="0" /></g><path
       d="m 446.6179,812.90794 -75.81942,0 0,-151.73 75.81942,0 0,151.73 z m -75.81942,0 z"
       style="fill:#ff00ff;fill-opacity:1;fill-rule:evenodd;stroke:#000000;stroke-width:1.73286009;stroke-linecap:round;stroke-linejoin:miter;stroke-miterlimit:10;stroke-opacity:1;stroke-dasharray:none"
       id="path194"
       inkscape:connector-curvature="0" /><text
       transform="matrix(0,1.0018671,0.99813636,0,0,0)"
       id="text196"
       x="709.6994"
       y="399.69131"
       style="font-size:18.99024773px"><tspan
         style="font-size:23.9914875px;font-variant:normal;font-weight:normal;font-stretch:normal;writing-mode:lr-tb;fill:#000000;fill-opacity:1;fill-rule:nonzero;stroke:none;font-family:Arial;-inkscape-font-specification:ArialMT"
         x="709.6994 729.61951 742.89398 748.15533 761.42981"
         y="399.69131"
         sodipodi:role="line"
         id="tspan198">Main </tspan><tspan
         style="font-size:23.9914875px;font-variant:normal;font-weight:normal;font-stretch:normal;writing-mode:lr-tb;fill:#000000;fill-opacity:1;fill-rule:nonzero;stroke:none;font-family:Arial;-inkscape-font-specification:ArialMT"
         x="692.32233 712.25928 725.55054 746.06085 759.34973 767.51648 778.72046"
         y="427.13278"
         sodipodi:role="line"
         id="tspan200">Memory </tspan></text>
<path
       d="m 48.755473,210.07848 51.936307,0 0,104.35599 -51.936307,0 0,-104.35599 z"
       style="fill:#ffff9a;fill-opacity:1;fill-rule:nonzero;stroke:none"
       id="path202"
       inkscape:connector-curvature="0" /><text
       transform="matrix(0,1.0018671,0.99813636,0,0,0)"
       id="text204"
       x="232.85428"
       y="80.275368"
       style="font-size:18.99024773px"><tspan
         style="font-size:23.9914875px;font-variant:normal;font-weight:normal;font-stretch:normal;writing-mode:lr-tb;fill:#000000;fill-opacity:1;fill-rule:nonzero;stroke:none;font-family:Arial;-inkscape-font-specification:ArialMT"
         x="232.85428 250.14975 263.46262 276.77548"
         y="80.275368"
         sodipodi:role="line"
         id="tspan206">Node</tspan></text>
<path
       d="m 448.03952,635.39811 -75.81943,0 0,-151.53974 75.81943,0 0,151.53974 z m -75.81943,0 z"
       style="fill:#00ff00;fill-opacity:1;fill-rule:evenodd;stroke:#000000;stroke-width:1.73286009;stroke-linecap:round;stroke-linejoin:miter;stroke-miterlimit:10;stroke-opacity:1;stroke-dasharray:none"
       id="path208"
       inkscape:connector-curvature="0" /><text
       transform="matrix(0,1.0018671,0.99813636,0,0,0)"
       id="text210"
       x="510.39673"
       y="415.54816"
       style="font-size:18.99024773px"><tspan
         style="font-size:23.9914875px;font-variant:normal;font-weight:normal;font-stretch:normal;writing-mode:lr-tb;fill:#000000;fill-opacity:1;fill-rule:nonzero;stroke:none;font-family:Arial;-inkscape-font-specification:ArialMT"
         x="510.39673 527.74017 532.95831 540.96906 554.32996 566.34729 573.03851 586.39935 594.56604 605.77008"
         y="415.54816"
         sodipodi:role="line"
         id="tspan212">Directory </tspan></text>
<path
       d="m 370.41938,15.16014 75.9142,0 0,151.82512 -75.9142,0 0,-151.82512 z"
       style="fill:#00ff00;fill-opacity:1;fill-rule:nonzero;stroke:none"
       id="path214"
       inkscape:connector-curvature="0" /><g
       id="g216"
       transform="matrix(1.5795713,0,0,1.5854754,-191.40255,-252.80265)"><g
         id="g218"
         clip-path="url(#clipPath220)"><path
           d="m 403.74,264.771 -48.06,0 0,-95.76 48.06,0 0,95.76 z m -48.06,0 z"
           style="fill:none;stroke:#000000;stroke-width:1.09500003;stroke-linecap:round;stroke-linejoin:miter;stroke-miterlimit:10;stroke-opacity:1;stroke-dasharray:none"
           id="path224"
           inkscape:connector-curvature="0" /></g></g><text
       transform="matrix(0,1.0018671,0.99813636,0,0,0)"
       id="text226"
       x="42.856853"
       y="414.1239"
       style="font-size:18.99024773px"><tspan
         style="font-size:23.9914875px;font-variant:normal;font-weight:normal;font-stretch:normal;writing-mode:lr-tb;fill:#000000;fill-opacity:1;fill-rule:nonzero;stroke:none;font-family:Arial;-inkscape-font-specification:ArialMT"
         x="42.856853 60.217091 65.435249 73.462799 86.840454 98.87458 105.5826 118.96025 126.98781 138.2878"
         y="414.1239"
         sodipodi:role="line"
         id="tspan228">Directory </tspan></text>
</g></svg>