<?xml version="1.0" encoding="UTF-8" standalone="no"?>
<!-- Created with Inkscape (http://www.inkscape.org/) -->

<svg
   xmlns:dc="http://purl.org/dc/elements/1.1/"
   xmlns:cc="http://creativecommons.org/ns#"
   xmlns:rdf="http://www.w3.org/1999/02/22-rdf-syntax-ns#"
   xmlns:svg="http://www.w3.org/2000/svg"
   xmlns="http://www.w3.org/2000/svg"
   xmlns:sodipodi="http://sodipodi.sourceforge.net/DTD/sodipodi-0.dtd"
   xmlns:inkscape="http://www.inkscape.org/namespaces/inkscape"
   id="svg2"
   version="1.1"
   inkscape:version="0.48.3.1 r9886"
   width="1052.5"
   height="744.025"
   xml:space="preserve"
   sodipodi:docname="Lesson_13B_Multiprocessors.pdf"><metadata
     id="metadata8"><rdf:RDF><cc:Work
         rdf:about=""><dc:format>image/svg+xml</dc:format><dc:type
           rdf:resource="http://purl.org/dc/dcmitype/StillImage" /><dc:title></dc:title></cc:Work></rdf:RDF></metadata><defs
     id="defs6"><clipPath
       clipPathUnits="userSpaceOnUse"
       id="clipPath16"><path
         d="m 567.48,61.011 -540,0 0,720 540,0 0,-720 z"
         clip-rule="evenodd"
         id="path18" /></clipPath><clipPath
       clipPathUnits="userSpaceOnUse"
       id="clipPath22"><path
         d="m 0,841.98 595.2,0 L 595.2,0 0,0 0,841.98 z"
         id="path24" /></clipPath></defs><sodipodi:namedview
     pagecolor="#ffffff"
     bordercolor="#666666"
     borderopacity="1"
     objecttolerance="10"
     gridtolerance="10"
     guidetolerance="10"
     inkscape:pageopacity="0"
     inkscape:pageshadow="2"
     inkscape:window-width="1366"
     inkscape:window-height="692"
     id="namedview4"
     showgrid="false"
     inkscape:zoom="0.63438726"
     inkscape:cx="526.25"
     inkscape:cy="372.01251"
     inkscape:window-x="0"
     inkscape:window-y="24"
     inkscape:window-maximized="1"
     inkscape:current-layer="g10" /><g
     id="g10"
     inkscape:groupmode="layer"
     inkscape:label="Lesson_13B_Multiprocessors"
     transform="matrix(0,1.25,1.25,0,0,0)"><path
       d="m 91.416027,373.41717 35.234543,0 0,183.2121 -35.234543,0 0,-183.2121 z"
       style="fill:#ccecff;fill-opacity:1;fill-rule:nonzero;stroke:none"
       id="path32"
       inkscape:connector-curvature="0" /><text
       transform="matrix(0,0.9982941,1.0017088,0,0,0)"
       id="text34"
       x="382.81146"
       y="117.089"
       style="font-size:14.7173357px"><tspan
         style="font-size:22.07600403px;font-variant:normal;font-weight:bold;font-stretch:normal;writing-mode:lr-tb;fill:#9a6533;fill-opacity:1;fill-rule:nonzero;stroke:none;font-family:Arial;-inkscape-font-specification:Arial-BoldMT"
         x="382.81146 398.75919 413.49271 429.4404 435.51572 451.46344 463.74652 476.0296 489.52689 495.60217 514.00031 520.1463 532.42938"
         y="117.089"
         sodipodi:role="line"
         id="tspan36">CPU Read Miss</tspan></text>
<g
       id="g38"
       transform="matrix(1.2285405,0,0,1.2243525,163.58049,663.14794)"><path
         d="m 0,0 -0.9,0 -1.8,0.12 c -18.448,1.571 -31.617,17.966 -32.34,35.94 l -0.06,1.92 0.06,1.98 c 0.694,17.978 13.852,34.343 32.28,35.94 l 1.8,0.12 1.8,0 C 18.745,75.416 32.191,61.061 34.62,43.8 l 0.24,-1.92 0.12,-1.92 C 36.071,21.038 23.04,2.382 3.6,0.24 L 2.7,0.12 0.9,0 0,0 z m 0.78,2.28 0.84,0 0.84,0.06 0.84,0.12 c 17.482,1.831 29.737,18.498 29.46,35.52 l 0,1.86 -0.12,1.8 C 31.035,58.23 18.826,72.642 1.68,73.74 l -3.36,0 C -18.666,72.718 -31.252,58.205 -32.64,41.7 l -0.18,-1.8 0,-1.86 C -32.926,20.4 -20.713,4.141 -2.58,2.34 l 0.84,0 0.84,-0.06 0.84,0"
         style="fill:#002060;fill-opacity:1;fill-rule:nonzero;stroke:none"
         id="path40"
         inkscape:connector-curvature="0" /></g><g
       id="g42"
       transform="matrix(1.2285405,0,0,1.2243525,133.80068,741.97175)"><path
         d="M 0,0 8.88,7.56 9.36,6.96 0.48,-0.6 0,0 z m 6.42,8.94 6.54,1.56 -2.64,-6.18"
         style="fill:#000099;fill-opacity:1;fill-rule:nonzero;stroke:none"
         id="path44"
         inkscape:connector-curvature="0" /></g><g
       id="g46"
       transform="matrix(1.2285405,0,0,1.2243525,72.840496,534.00324)"><path
         d="M 0,0 -0.96,0 -1.86,0.06 -2.7,0.12 C -21.086,1.569 -34.361,18.097 -35.04,36 l -0.06,1.98 0.06,1.92 c 0.699,18.033 13.807,34.341 32.28,36 l 0.9,0.06 0.9,0 0.9,0.06 0.9,-0.06 C 18.63,75.547 32.245,60.919 34.62,43.8 l 0.24,-1.92 0.12,-1.92 C 35.968,20.792 23.154,2.538 3.54,0.18 L 2.7,0.12 0.9,0 0,0 z m 0.78,2.28 0.84,0 1.68,0.12 c 17.667,2.154 29.585,18.271 29.46,35.58 l -0.06,1.8 -0.12,1.86 C 31.18,58.115 18.676,72.687 1.68,73.68 l -0.84,0.06 -1.74,0 -0.78,-0.06 C -18.7,72.795 -31.173,58.129 -32.7,41.7 l -0.12,-1.86 -0.06,-1.8 C -32.917,20.417 -20.691,4.018 -2.58,2.34 l 0.84,-0.06 0.84,0 0.84,-0.06"
         style="fill:#002060;fill-opacity:1;fill-rule:nonzero;stroke:none"
         id="path48"
         inkscape:connector-curvature="0" /></g><g
       id="g50"
       transform="matrix(1.2285405,0,0,1.2243525,42.986962,612.82705)"><path
         d="M 0,0 8.94,7.56 9.42,6.96 0.48,-0.6 0,0 z m 6.48,8.88 6.54,1.62 -2.64,-6.18"
         style="fill:#000099;fill-opacity:1;fill-rule:nonzero;stroke:none"
         id="path52"
         inkscape:connector-curvature="0" /></g><g
       id="g54"
       transform="matrix(1.2285405,0,0,1.2243525,504.94274,323.09628)"><path
         d="M 0,0 -0.9,0 -2.7,0.12 C -21.157,1.712 -34.246,18.021 -35.04,36 l -0.06,1.98 0.06,1.98 c 0.805,17.962 13.861,34.369 32.34,35.94 l 0.84,0.06 0.9,0 0.96,0.06 0.9,0 C 18.712,75.367 32.316,61.038 34.62,43.8 l 0.24,-1.92 0.12,-1.92 C 36.081,20.948 23.102,2.466 3.6,0.18 L 0.9,0 0,0 z m 0.84,2.28 0.84,0 0.84,0.06 0.78,0.12 c 17.679,1.904 29.564,18.351 29.52,35.52 l -0.06,1.86 -0.12,1.8 C 31.167,58.138 18.727,72.721 1.68,73.68 l -0.84,0.06 -1.68,0 -0.84,-0.06 C -18.576,72.861 -31.288,58.033 -32.64,41.7 l -0.12,-1.8 -0.06,-1.86 C -32.971,20.462 -20.583,3.943 -2.52,2.34 l 0.84,-0.06 1.68,0"
         style="fill:#002060;fill-opacity:1;fill-rule:nonzero;stroke:none"
         id="path56"
         inkscape:connector-curvature="0" /></g><g
       id="g58"
       transform="matrix(1.2285405,0,0,1.2243525,475.16293,401.92009)"><path
         d="M 0,0 8.94,7.56 9.42,6.96 0.48,-0.6 0,0 z m 6.48,8.88 6.48,1.62 -2.64,-6.18"
         style="fill:#000099;fill-opacity:1;fill-rule:nonzero;stroke:none"
         id="path60"
         inkscape:connector-curvature="0" /></g><g
       id="g62"
       transform="matrix(1.2285405,0,0,1.2243525,414.20275,193.95158)"><path
         d="M 0,0 -0.9,0 -2.7,0.12 C -21.179,1.657 -34.266,17.999 -35.04,36 l -0.06,1.98 0.06,1.92 c 0.712,18.073 13.795,34.257 32.28,36 l 0.9,0.06 2.7,0 C 18.648,75.537 32.252,60.928 34.62,43.8 l 0.24,-1.92 0.12,-1.92 C 36.05,20.918 23.124,2.48 3.6,0.18 L 0.9,0 0,0 z M 0.78,2.22 3.3,2.4 c 17.562,2.012 29.707,18.415 29.46,35.58 l 0,1.8 -0.12,1.86 C 31.023,58.184 18.798,72.65 1.68,73.68 l -0.84,0.06 -1.68,0 -0.84,-0.06 C -18.658,72.738 -31.232,58.152 -32.64,41.7 l -0.18,-1.86 0,-1.86 C -32.988,20.518 -20.576,3.898 -2.58,2.34 l 1.68,-0.12 0.84,0"
         style="fill:#002060;fill-opacity:1;fill-rule:nonzero;stroke:none"
         id="path64"
         inkscape:connector-curvature="0" /></g><g
       id="g66"
       transform="matrix(1.2285405,0,0,1.2243525,384.42293,272.70194)"><path
         d="M 0,0 8.88,7.62 9.36,7.02 0.48,-0.54 0,0 z m 6.42,8.94 6.54,1.62 -2.64,-6.18"
         style="fill:#000099;fill-opacity:1;fill-rule:nonzero;stroke:none"
         id="path68"
         inkscape:connector-curvature="0" /></g><path
       d="m 30.603274,195.27388 0.663424,0 0,0.66116 -0.663424,0 0,-0.66116 z"
       style="fill:#ffffff;fill-opacity:1;fill-rule:nonzero;stroke:none"
       id="path74"
       inkscape:connector-curvature="0" /><path
       d="m 9.8900819,623.18385 35.1608291,0 0,159.48414 -35.1608291,0 0,-159.48414 z"
       style="fill:#ccecff;fill-opacity:1;fill-rule:nonzero;stroke:none"
       id="path76"
       inkscape:connector-curvature="0" /><text
       transform="matrix(0,0.9982941,1.0017088,0,0,0)"
       id="text78"
       x="633.00616"
       y="35.702133"
       style="font-size:14.7173357px"><tspan
         style="font-size:22.07600403px;font-variant:normal;font-weight:bold;font-stretch:normal;writing-mode:lr-tb;fill:#9a6533;fill-opacity:1;fill-rule:nonzero;stroke:none;font-family:Arial;-inkscape-font-specification:Arial-BoldMT"
         x="633.00616 648.95612 663.69183 679.64172 685.71704 701.66693 713.95227 726.23755 739.737 745.81232 761.76227 767.9104"
         y="35.702133"
         sodipodi:role="line"
         id="tspan80">CPU Read Hit</tspan></text>
<path
       d="m 135.34863,384.95057 61.77102,0 0,190.04399 -61.77102,0 0,-190.04399 z"
       style="fill:#ccecff;fill-opacity:1;fill-rule:nonzero;stroke:none"
       id="path82"
       inkscape:connector-curvature="0" /><text
       transform="matrix(0,0.9982941,1.0017088,0,0,0)"
       id="text84"
       x="394.29102"
       y="160.94666"
       style="font-size:14.7173357px"><tspan
         style="font-size:22.07600403px;font-variant:normal;font-weight:bold;font-stretch:normal;writing-mode:lr-tb;fill:#00009a;fill-opacity:1;fill-rule:nonzero;stroke:none;font-family:Arial;-inkscape-font-specification:Arial-BoldMT"
         x="394.29102 409.01129 415.14401 427.41385 439.68369 451.95352 458.02884 473.96329 486.23315 498.50299 511.98703 518.06232 536.4472 542.5799 554.84973"
         y="160.94666"
         sodipodi:role="line"
         id="tspan86">Place Read Miss</tspan><tspan
         style="font-size:22.07600403px;font-variant:normal;font-weight:bold;font-stretch:normal;writing-mode:lr-tb;fill:#00009a;fill-opacity:1;fill-rule:nonzero;stroke:none;font-family:Arial;-inkscape-font-specification:Arial-BoldMT"
         x="394.29102 407.7706 421.25021 427.43591 443.36597 456.84555"
         y="187.43787"
         sodipodi:role="line"
         id="tspan88">on Bus</tspan></text>
<path
       d="m 226.45719,338.74351 61.6973,0 0,197.39009 -61.6973,0 0,-197.39009 z"
       style="fill:#ccecff;fill-opacity:1;fill-rule:nonzero;stroke:none"
       id="path90"
       inkscape:connector-curvature="0" /><text
       transform="matrix(0,0.9982941,1.0017088,0,0,0)"
       id="text92"
       x="348.00497"
       y="251.8262"
       style="font-size:14.7173357px"><tspan
         style="font-size:22.07600403px;font-variant:normal;font-weight:bold;font-stretch:normal;writing-mode:lr-tb;fill:#9a6533;fill-opacity:1;fill-rule:nonzero;stroke:none;font-family:Arial;-inkscape-font-specification:Arial-BoldMT"
         x="348.00497 363.94388 378.66855 394.60742 400.68274 409.27032 421.54456 433.81882 447.30728 453.38257 473.00815 479.14526 491.41956"
         y="251.8262"
         sodipodi:role="line"
         id="tspan94">CPU read miss</tspan><tspan
         style="font-size:22.07600403px;font-variant:normal;font-weight:bold;font-stretch:normal;writing-mode:lr-tb;fill:#00009a;fill-opacity:1;fill-rule:nonzero;stroke:none;font-family:Arial;-inkscape-font-specification:Arial-BoldMT"
         x="348.00497 368.46503 377.07025 383.21179 390.56754 402.84619 408.92151 424.86478 437.14346 449.42215 461.70081 467.77615 483.71942 489.86096 503.35382 515.63245"
         y="278.31741"
         sodipodi:role="line"
         id="tspan96">Write Back Block</tspan></text>
<path
       d="m 212.15698,607.31746 88.30749,0 0,196.21473 -88.30749,0 0,-196.21473 z"
       style="fill:#ccecff;fill-opacity:1;fill-rule:nonzero;stroke:none"
       id="path98"
       inkscape:connector-curvature="0" /><text
       transform="matrix(0,0.9982941,1.0017088,0,0,0)"
       id="text100"
       x="617.03784"
       y="237.62398"
       style="font-size:14.7173357px"><tspan
         style="font-size:22.07600403px;font-variant:normal;font-weight:bold;font-stretch:normal;writing-mode:lr-tb;fill:#9a6533;fill-opacity:1;fill-rule:nonzero;stroke:none;font-family:Arial;-inkscape-font-specification:Arial-BoldMT"
         x="617.03784 632.98553 647.71912 663.66681 669.74213 685.68982 697.9729 710.25598 723.7533 729.82861 748.22675 754.37268 766.65576"
         y="237.62398"
         sodipodi:role="line"
         id="tspan102">CPU Read Miss</tspan><tspan
         style="font-size:22.07600403px;font-variant:normal;font-weight:bold;font-stretch:normal;writing-mode:lr-tb;fill:#00009a;fill-opacity:1;fill-rule:nonzero;stroke:none;font-family:Arial;-inkscape-font-specification:Arial-BoldMT"
         x="617.03784 631.76038 637.89526 650.16736 662.43939 674.71143 680.78668 696.72339 708.99548 721.26752 734.75372 740.82904 759.21619 765.35107 777.62311 789.8952"
         y="264.1152"
         sodipodi:role="line"
         id="tspan104">Place Read Miss </tspan><tspan
         style="font-size:22.07600403px;font-variant:normal;font-weight:bold;font-stretch:normal;writing-mode:lr-tb;fill:#00009a;fill-opacity:1;fill-rule:nonzero;stroke:none;font-family:Arial;-inkscape-font-specification:Arial-BoldMT"
         x="617.03784 630.51746 643.99707 650.18274 666.11285 679.59247"
         y="290.60641"
         sodipodi:role="line"
         id="tspan106">on Bus</tspan></text>
<path
       d="m 401.00823,25.872479 61.77101,0 0,160.732991 -61.77101,0 0,-160.732991 z"
       style="fill:#ccecff;fill-opacity:1;fill-rule:nonzero;stroke:none"
       id="path108"
       inkscape:connector-curvature="0" /><text
       transform="matrix(0,0.9982941,1.0017088,0,0,0)"
       id="text110"
       x="34.672897"
       y="426.15308"
       style="font-size:14.7173357px"><tspan
         style="font-size:22.07600403px;font-variant:normal;font-weight:bold;font-stretch:normal;writing-mode:lr-tb;fill:#9a6533;fill-opacity:1;fill-rule:nonzero;stroke:none;font-family:Arial;-inkscape-font-specification:Arial-BoldMT"
         x="34.672897 50.622807 65.358536 81.308456 87.383766 103.33369 115.61898 127.90428 141.40375 147.47906 163.42897 169.57715"
         y="426.15308"
         sodipodi:role="line"
         id="tspan112">CPU Read Hit</tspan><tspan
         style="font-size:22.07600403px;font-variant:normal;font-weight:bold;font-stretch:normal;writing-mode:lr-tb;fill:#9a6533;fill-opacity:1;fill-rule:nonzero;stroke:none;font-family:Arial;-inkscape-font-specification:Arial-BoldMT"
         x="34.672897 50.618393 65.349709 81.295204 87.405846 107.86589 116.47112 122.61487 129.97279 142.25368 148.3643 164.30981 170.45355"
         y="452.64426"
         sodipodi:role="line"
         id="tspan114">CPU Write Hit</tspan></text>
<g
       id="g116"
       transform="matrix(1.2285405,0,0,1.2243525,126.42943,240.59941)"><path
         d="m 0,0 c -29.22,0 -52.98,24.72 -52.98,55.26 0,30.54 23.76,55.26 52.98,55.26 29.28,0 53.04,-24.72 53.04,-55.26 C 53.04,24.72 29.28,0 0,0"
         style="fill:#00ffff;fill-opacity:1;fill-rule:evenodd;stroke:none"
         id="path118"
         inkscape:connector-curvature="0" /></g><g
       id="g120"
       transform="matrix(1.2285405,0,0,1.2243525,125.39745,241.1871)"><path
         d="m 0,0 0.84,-1.5 -4.14,0.18 c -28.315,2.357 -49.236,26.651 -49.8,54.66 l -0.06,1.44 0.06,1.44 c 0.602,28.508 22.263,53.137 51.18,54.72 l 1.38,0.06 2.76,0 1.44,-0.06 C 31.966,109.462 53.569,85.552 54.78,57.66 l 0.06,-1.44 0,-1.44 C 55,26.294 33.875,1.045 5.04,-1.32 L 3.66,-1.44 2.28,-1.44 0.9,-1.5 c -0.36,0 -0.72,0.18 -0.9,0.48 -0.18,0.3 -0.18,0.66 -0.06,0.96 L 0,0 z m 1.74,-0.96 -0.9,1.5 1.38,0 2.64,0.12 c 27.328,2.29 47.36,25.708 48,52.68 l 0,2.82 c -0.619,27.495 -21.418,51.247 -49.32,52.8 l -1.32,0.06 -2.7,0 -1.32,-0.06 C -29.172,107.43 -49.785,84.54 -51.06,57.6 l -0.06,-1.44 0,-1.38 c -0.127,-27.533 20.161,-51.747 48,-54.12 l 2.64,-0.12 1.38,0 c 0.3,0 0.66,-0.18 0.84,-0.48 0.18,-0.3 0.18,-0.66 0,-0.96"
         style="fill:#000099;fill-opacity:1;fill-rule:nonzero;stroke:none"
         id="path122"
         inkscape:connector-curvature="0" /></g><g
       id="g124"
       transform="matrix(1.2285405,0,0,1.2243525,126.42943,567.50152)"><path
         d="m 0,0 c -29.22,0 -52.98,24.72 -52.98,55.26 0,30.54 23.76,55.26 52.98,55.26 29.28,0 53.04,-24.72 53.04,-55.26 C 53.04,24.72 29.28,0 0,0"
         style="fill:#00ffff;fill-opacity:1;fill-rule:evenodd;stroke:none"
         id="path126"
         inkscape:connector-curvature="0" /></g><g
       id="g128"
       transform="matrix(1.2285405,0,0,1.2243525,125.39745,568.08799)"><path
         d="m 0,0 0.84,-1.5 -4.14,0.18 c -28.316,2.357 -49.236,26.651 -49.8,54.66 l -0.06,1.44 0.06,1.44 c 0.602,28.508 22.263,53.137 51.18,54.72 l 1.38,0.06 2.76,0 1.44,-0.06 C 31.966,109.462 53.569,85.552 54.78,57.66 l 0.06,-1.44 0,-1.44 C 55,26.294 33.875,1.045 5.04,-1.32 L 3.66,-1.44 2.28,-1.44 0.9,-1.5 c -0.36,0 -0.72,0.18 -0.9,0.48 -0.18,0.3 -0.18,0.66 -0.06,0.96 L 0,0 z m 1.74,-0.96 -0.9,1.5 1.38,0 2.64,0.12 c 27.328,2.29 47.36,25.708 48,52.68 l 0,2.82 c -0.619,27.495 -21.418,51.247 -49.32,52.8 l -1.32,0.06 -2.7,0 -1.32,-0.06 C -29.173,107.43 -49.784,84.541 -51.06,57.6 l -0.06,-1.44 0,-1.38 c -0.137,-27.517 20.173,-51.759 48,-54.12 l 2.64,-0.12 1.38,0 c 0.3,0 0.66,-0.18 0.84,-0.48 0.18,-0.3 0.18,-0.66 0,-0.96"
         style="fill:#000099;fill-opacity:1;fill-rule:nonzero;stroke:none"
         id="path130"
         inkscape:connector-curvature="0" /></g><g
       id="g132"
       transform="matrix(1.2285405,0,0,1.2243525,463.66379,240.59941)"><path
         d="m 0,0 c -29.22,0 -52.98,24.72 -52.98,55.26 0,30.54 23.76,55.26 52.98,55.26 29.28,0 53.04,-24.72 53.04,-55.26 C 53.04,24.72 29.28,0 0,0"
         style="fill:#00ffff;fill-opacity:1;fill-rule:evenodd;stroke:none"
         id="path134"
         inkscape:connector-curvature="0" /></g><g
       id="g136"
       transform="matrix(1.2285405,0,0,1.2243525,462.63182,241.1871)"><path
         d="m 0,0 0.84,-1.5 -4.14,0.18 c -28.315,2.357 -49.236,26.651 -49.8,54.66 l -0.06,1.44 0.06,1.44 c 0.602,28.508 22.263,53.137 51.18,54.72 l 1.38,0.06 2.76,0 1.44,-0.06 C 31.966,109.462 53.569,85.552 54.78,57.66 l 0.06,-1.44 0,-1.44 C 55,26.294 33.875,1.045 5.04,-1.32 L 3.66,-1.44 2.28,-1.44 0.9,-1.5 c -0.36,0 -0.72,0.18 -0.9,0.48 -0.18,0.3 -0.18,0.66 -0.06,0.96 L 0,0 z m 1.74,-0.96 -0.9,1.5 1.38,0 2.64,0.12 c 27.328,2.29 47.36,25.708 48,52.68 l 0,2.82 c -0.619,27.495 -21.418,51.247 -49.32,52.8 l -1.32,0.06 -2.7,0 -1.32,-0.06 C -29.172,107.43 -49.785,84.54 -51.06,57.6 l -0.06,-1.44 0,-1.38 c -0.127,-27.533 20.161,-51.747 48,-54.12 l 2.64,-0.12 1.38,0 c 0.3,0 0.66,-0.18 0.84,-0.48 0.18,-0.3 0.18,-0.66 0,-0.96"
         style="fill:#000099;fill-opacity:1;fill-rule:nonzero;stroke:none"
         id="path138"
         inkscape:connector-curvature="0" /></g><path
       d="m 135.64348,378.33906 -3.68561,0 0,181.22866 3.68561,0 0,-181.22866 z m -3.68561,0 z m -3.68563,179.39213 5.52844,11.01917 5.52842,-11.01917"
       style="fill:#000099;fill-opacity:1;fill-rule:nonzero;stroke:none"
       id="path140"
       inkscape:connector-curvature="0" /><path
       d="m 192.18092,307.30213 192.90542,0 0,-3.67306 -192.90542,0 0,3.67306 z m 191.06261,3.67306 11.05686,-5.50959 -11.05686,-5.50958"
       style="fill:#000099;fill-opacity:1;fill-rule:nonzero;stroke:none"
       id="path142"
       inkscape:connector-curvature="0" /><g
       id="g144"
       transform="matrix(1.2285405,0,0,1.2243525,412.7285,355.78649)"><path
         d="m 0,0 -188.58,180.3 -2.04,-2.16 L -2.04,-2.16 0,0 z m -185.4,181.44 -9.6,3 3.36,-9.48"
         style="fill:#000099;fill-opacity:1;fill-rule:nonzero;stroke:none"
         id="path146"
         inkscape:connector-curvature="0" /></g><g
       id="g148"
       transform="matrix(1.2285405,0,0,1.2243525,433.81025,382.37943)"><path
         d="m 0,0 -196.14,189.3 -2.1,-2.16 L -2.1,-2.16 0,0 z m -5.28,-3.3 9.6,-3 -3.36,9.48"
         style="fill:#000099;fill-opacity:1;fill-rule:nonzero;stroke:none"
         id="path150"
         inkscape:connector-curvature="0" /></g><path
       d="m 254.09935,25.872479 61.6973,0 0,272.100081 -61.6973,0 0,-272.100081 z"
       style="fill:#ccecff;fill-opacity:1;fill-rule:nonzero;stroke:none"
       id="path152"
       inkscape:connector-curvature="0" /><text
       transform="matrix(0,0.9982941,1.0017088,0,0,0)"
       id="text154"
       x="34.672897"
       y="279.42123"
       style="font-size:14.7173357px"><tspan
         style="font-size:22.07600403px;font-variant:normal;font-weight:bold;font-stretch:normal;writing-mode:lr-tb;fill:#9a6533;fill-opacity:1;fill-rule:nonzero;stroke:none;font-family:Arial;-inkscape-font-specification:Arial-BoldMT"
         x="34.672897 50.618393 65.349709 81.295204 87.405846 107.86589 116.47112 122.61487 129.97279 142.25368 148.3643 166.76025 172.90401 185.18489"
         y="279.42123"
         sodipodi:role="line"
         id="tspan156">CPU Write Miss</tspan><tspan
         style="font-size:22.07600403px;font-variant:normal;font-weight:bold;font-stretch:normal;writing-mode:lr-tb;fill:#00009a;fill-opacity:1;fill-rule:nonzero;stroke:none;font-family:Arial;-inkscape-font-specification:Arial-BoldMT"
         x="34.672897 49.397587 55.534718 67.808975 80.083237 92.357498 98.487999 118.94803 127.55327 133.6904 141.04172 153.31596 159.44647 177.8358 183.97292 196.24718 208.52142 214.65192 228.14038 241.62881 247.75931 263.69818 277.18665"
         y="305.91245"
         sodipodi:role="line"
         id="tspan158">Place Write Miss on Bus</tspan></text>
<path
       d="m 288.96533,338.3762 61.69731,0 0,190.11745 -61.69731,0 0,-190.11745 z"
       style="fill:#ccecff;fill-opacity:1;fill-rule:nonzero;stroke:none"
       id="path160"
       inkscape:connector-curvature="0" /><text
       transform="matrix(0,0.9982941,1.0017088,0,0,0)"
       id="text162"
       x="347.71066"
       y="314.22772"
       style="font-size:14.7173357px"><tspan
         style="font-size:22.07600403px;font-variant:normal;font-weight:bold;font-stretch:normal;writing-mode:lr-tb;fill:#00009a;fill-opacity:1;fill-rule:nonzero;stroke:none;font-family:Arial;-inkscape-font-specification:Arial-BoldMT"
         x="347.71066 362.43091 368.56363 380.83347 393.10333 405.37317 411.44849 427.38293 439.65277 451.92261 465.40665 471.48196 489.86688 495.99957 508.26944"
         y="314.22772"
         sodipodi:role="line"
         id="tspan164">Place Read Miss</tspan><tspan
         style="font-size:22.07600403px;font-variant:normal;font-weight:bold;font-stretch:normal;writing-mode:lr-tb;fill:#00009a;fill-opacity:1;fill-rule:nonzero;stroke:none;font-family:Arial;-inkscape-font-specification:Arial-BoldMT"
         x="347.71066 361.19025 374.66986 380.85556 396.78561 410.2652"
         y="340.71893"
         sodipodi:role="line"
         id="tspan166">on Bus</tspan></text>
<path
       d="m 108.95959,255.43856 35.16083,0 0,105.63713 -35.16083,0 0,-105.63713 z"
       style="fill:#00ffff;fill-opacity:1;fill-rule:nonzero;stroke:none"
       id="path168"
       inkscape:connector-curvature="0" /><text
       transform="matrix(0,0.9982941,1.0017088,0,0,0)"
       id="text170"
       x="264.63126"
       y="134.60263"
       style="font-size:14.7173357px"><tspan
         style="font-size:22.07600403px;font-variant:normal;font-weight:bold;font-stretch:normal;writing-mode:lr-tb;fill:#00009a;fill-opacity:1;fill-rule:nonzero;stroke:none;font-family:Arial;-inkscape-font-specification:Arial-BoldMT"
         x="264.63126 270.75735 286.68518 299.7829 315.74826 329.22565 335.35175"
         y="134.60263"
         sodipodi:role="line"
         id="tspan172">INVALID</tspan></text>
<path
       d="m 108.81217,578.52069 35.16082,0 0,113.42401 -35.16082,0 0,-113.42401 z"
       style="fill:#00ffff;fill-opacity:1;fill-rule:nonzero;stroke:none"
       id="path174"
       inkscape:connector-curvature="0" /><text
       transform="matrix(0,0.9982941,1.0017088,0,0,0)"
       id="text176"
       x="589.66364"
       y="134.45546"
       style="font-size:14.7173357px"><tspan
         style="font-size:22.07600403px;font-variant:normal;font-weight:bold;font-stretch:normal;writing-mode:lr-tb;fill:#00009a;fill-opacity:1;fill-rule:nonzero;stroke:none;font-family:Arial;-inkscape-font-specification:Arial-BoldMT"
         x="589.66364 604.40155 620.3537 636.30579 652.25793 666.99585"
         y="134.45546"
         sodipodi:role="line"
         id="tspan178">SHARED</tspan></text>
<path
       d="m 446.19394,242.43595 35.45568,0 0,130.54045 -35.45568,0 0,-130.54045 z"
       style="fill:#00ffff;fill-opacity:1;fill-rule:nonzero;stroke:none"
       id="path180"
       inkscape:connector-curvature="0" /><text
       transform="matrix(0,0.9982941,1.0017088,0,0,0)"
       id="text182"
       x="254.32913"
       y="471.26172"
       style="font-size:14.7173357px"><tspan
         style="font-size:22.07600403px;font-variant:normal;font-weight:bold;font-stretch:normal;writing-mode:lr-tb;fill:#00009a;fill-opacity:1;fill-rule:nonzero;stroke:none;font-family:Arial;-inkscape-font-specification:Arial-BoldMT"
         x="254.32913 272.70963 289.87592 305.80597 311.93427 325.41388 331.54218 346.25803"
         y="471.26172"
         sodipodi:role="line"
         id="tspan184">MODIFIED</tspan></text>
<path
       d="m 497.79264,421.68114 88.30749,0 0,272.1001 -88.30749,0 0,-272.1001 z"
       style="fill:#ccecff;fill-opacity:1;fill-rule:nonzero;stroke:none"
       id="path186"
       inkscape:connector-curvature="0" /><text
       transform="matrix(0,0.9982941,1.0017088,0,0,0)"
       id="text188"
       x="431.08435"
       y="522.77228"
       style="font-size:14.7173357px"><tspan
         style="font-size:22.07600403px;font-variant:normal;font-weight:bold;font-stretch:normal;writing-mode:lr-tb;fill:#9a6533;fill-opacity:1;fill-rule:nonzero;stroke:none;font-family:Arial;-inkscape-font-specification:Arial-BoldMT"
         x="431.08435 447.02985 461.76117 477.70663 483.81729 504.27734 512.88251 519.02625 526.38422 538.66504 544.77576 563.17163 569.31543 581.59625"
         y="522.77228"
         sodipodi:role="line"
         id="tspan190">CPU Write Miss</tspan><tspan
         style="font-size:22.07600403px;font-variant:normal;font-weight:bold;font-stretch:normal;writing-mode:lr-tb;fill:#00009a;fill-opacity:1;fill-rule:nonzero;stroke:none;font-family:Arial;-inkscape-font-specification:Arial-BoldMT"
         x="431.08435 451.5444 460.1496 466.29114 473.64688 485.92557 492.00089 507.94418 520.22278 532.50153 544.78015 550.85547 566.79877 572.94025 586.43311 598.71179"
         y="549.26349"
         sodipodi:role="line"
         id="tspan192">Write Back Block</tspan><tspan
         style="font-size:22.07600403px;font-variant:normal;font-weight:bold;font-stretch:normal;writing-mode:lr-tb;fill:#00009a;fill-opacity:1;fill-rule:nonzero;stroke:none;font-family:Arial;-inkscape-font-specification:Arial-BoldMT"
         x="431.08435 445.80905 451.94617 464.2204 476.49469 488.76895 494.89948 515.3595 523.96472 530.10181 537.45312 549.72736 555.85791 574.24719 580.38434 592.65857 604.93286 611.06335 624.55176 638.04022 644.17072 660.10962 673.59802"
         y="575.7547"
         sodipodi:role="line"
         id="tspan194">Place Write Miss on Bus</tspan></text>
<path
       d="m 352.50544,445.40909 61.77103,0 0,332.04439 -61.77103,0 0,-332.04439 z"
       style="fill:#ccecff;fill-opacity:1;fill-rule:nonzero;stroke:none"
       id="path196"
       inkscape:connector-curvature="0" /><text
       transform="matrix(0,0.9982941,1.0017088,0,0,0)"
       id="text198"
       x="454.85284"
       y="377.73303"
       style="font-size:14.7173357px"><tspan
         style="font-size:22.07600403px;font-variant:normal;font-weight:bold;font-stretch:normal;writing-mode:lr-tb;fill:#9a6533;fill-opacity:1;fill-rule:nonzero;stroke:none;font-family:Arial;-inkscape-font-specification:Arial-BoldMT"
         x="454.85284 470.79834 485.52963 501.47516 507.58578 528.04578 536.651 542.7948 550.15271 562.43359 568.54419 584.48969 590.63348"
         y="377.73303"
         sodipodi:role="line"
         id="tspan200">CPU Write Hit</tspan><tspan
         style="font-size:22.07600403px;font-variant:normal;font-weight:bold;font-stretch:normal;writing-mode:lr-tb;fill:#00009a;fill-opacity:1;fill-rule:nonzero;stroke:none;font-family:Arial;-inkscape-font-specification:Arial-BoldMT"
         x="454.85284 469.57092 481.83856 495.32034 508.80215 514.95032 535.41034 544.01556 550.14612 557.49078 569.75836 575.90662 582.03705 595.51892 607.78656 620.0542 626.18469 632.31519 645.797 658.06464 665.4093 677.677 683.82513 697.30695 710.78876 716.93695 732.8692 746.35101"
         y="404.22424"
         sodipodi:role="line"
         id="tspan202">Send Write Invalidate on Bus</tspan></text>
<path
       d="m 414.27647,442.47065 61.6973,0 0,272.10008 -61.6973,0 0,-272.10008 z"
       style="fill:#ccecff;fill-opacity:1;fill-rule:nonzero;stroke:none"
       id="path204"
       inkscape:connector-curvature="0" /><text
       transform="matrix(0,0.9982941,1.0017088,0,0,0)"
       id="text206"
       x="451.90936"
       y="439.32507"
       style="font-size:14.7173357px"><tspan
         style="font-size:22.07600403px;font-variant:normal;font-weight:bold;font-stretch:normal;writing-mode:lr-tb;fill:#9a6533;fill-opacity:1;fill-rule:nonzero;stroke:none;font-family:Arial;-inkscape-font-specification:Arial-BoldMT"
         x="451.90936 467.85489 482.58621 498.53168 504.64233 525.10236 533.70758 539.85132 547.20923 559.49011 565.60077 583.9967 590.14044 602.42133"
         y="439.32507"
         sodipodi:role="line"
         id="tspan208">CPU Write Miss</tspan><tspan
         style="font-size:22.07600403px;font-variant:normal;font-weight:bold;font-stretch:normal;writing-mode:lr-tb;fill:#00009a;fill-opacity:1;fill-rule:nonzero;stroke:none;font-family:Arial;-inkscape-font-specification:Arial-BoldMT"
         x="451.90936 466.63406 472.77121 485.04544 497.31973 509.59396 515.72443 536.18451 544.78967 550.92682 558.2782 570.55243 576.68292 595.0722 601.20941 613.48364 625.75787 631.88837 645.37683 658.86523 664.99579 680.93463 694.4231"
         y="465.81631"
         sodipodi:role="line"
         id="tspan210">Place Write Miss on Bus</tspan></text>
</g></svg>