<?xml version="1.0" encoding="UTF-8" standalone="no"?>
<!-- Created with Inkscape (http://www.inkscape.org/) -->

<svg
   xmlns:dc="http://purl.org/dc/elements/1.1/"
   xmlns:cc="http://creativecommons.org/ns#"
   xmlns:rdf="http://www.w3.org/1999/02/22-rdf-syntax-ns#"
   xmlns:svg="http://www.w3.org/2000/svg"
   xmlns="http://www.w3.org/2000/svg"
   xmlns:sodipodi="http://sodipodi.sourceforge.net/DTD/sodipodi-0.dtd"
   xmlns:inkscape="http://www.inkscape.org/namespaces/inkscape"
   id="svg2"
   version="1.1"
   inkscape:version="0.48.3.1 r9886"
   width="1052.5"
   height="744.025"
   xml:space="preserve"
   sodipodi:docname="Lesson_13A_Multiprocessors.pdf"><metadata
     id="metadata8"><rdf:RDF><cc:Work
         rdf:about=""><dc:format>image/svg+xml</dc:format><dc:type
           rdf:resource="http://purl.org/dc/dcmitype/StillImage" /><dc:title></dc:title></cc:Work></rdf:RDF></metadata><defs
     id="defs6"><clipPath
       clipPathUnits="userSpaceOnUse"
       id="clipPath16"><path
         d="m 567.48,61.011 -540,0 0,720 540,0 0,-720 z"
         clip-rule="evenodd"
         id="path18" /></clipPath><clipPath
       clipPathUnits="userSpaceOnUse"
       id="clipPath22"><path
         d="m 0,841.98 595.2,0 L 595.2,0 0,0 0,841.98 z"
         id="path24" /></clipPath><clipPath
       clipPathUnits="userSpaceOnUse"
       id="clipPath78"><path
         d="m 291.48,469.371 174.78,0 0,74.64 -174.78,0 0,-74.64 z"
         id="path80" /></clipPath><clipPath
       clipPathUnits="userSpaceOnUse"
       id="clipPath96"><path
         d="m 291.48,358.011 175.38,0 0,77.94 -175.38,0 0,-77.94 z"
         id="path98" /></clipPath><clipPath
       clipPathUnits="userSpaceOnUse"
       id="clipPath112"><path
         d="m 291.48,277.011 175.38,0 0,73.38 -175.38,0 0,-73.38 z"
         id="path114" /></clipPath><clipPath
       clipPathUnits="userSpaceOnUse"
       id="clipPath184"><path
         d="m 478.44,277.011 24.72,0 0,267 -24.72,0 0,-267 z"
         id="path186" /></clipPath></defs><sodipodi:namedview
     pagecolor="#ffffff"
     bordercolor="#666666"
     borderopacity="1"
     objecttolerance="10"
     gridtolerance="10"
     guidetolerance="10"
     inkscape:pageopacity="0"
     inkscape:pageshadow="2"
     inkscape:window-width="640"
     inkscape:window-height="480"
     id="namedview4"
     showgrid="false"
     inkscape:zoom="0.31719363"
     inkscape:cx="526.25"
     inkscape:cy="372.01251"
     inkscape:window-x="0"
     inkscape:window-y="24"
     inkscape:window-maximized="0"
     inkscape:current-layer="g10" /><g
     id="g10"
     inkscape:groupmode="layer"
     inkscape:label="Lesson_13A_Multiprocessors"
     transform="matrix(0,1.25,1.25,0,0,0)"><path
       d="m 16.966713,620.34295 454.521937,0 0,211.96593 -454.521937,0 0,-211.96593 z"
       style="fill:#ffff9a;fill-opacity:1;fill-rule:nonzero;stroke:none"
       id="path72"
       inkscape:connector-curvature="0" /><g
       id="g74"
       transform="matrix(2.6673822,0,0,3.0560256,-760.84195,-826.90215)"><g
         id="g76"
         clip-path="url(#clipPath78)"><path
           d="m 462,542.93 -170.4,0 0,-69.36 170.4,0 0,69.36 z m -170.4,0 z"
           style="fill:none;stroke:#000000;stroke-width:0.72000003;stroke-linecap:round;stroke-linejoin:miter;stroke-miterlimit:10;stroke-opacity:1;stroke-dasharray:none"
           id="path82"
           inkscape:connector-curvature="0" /></g></g><path
       d="m 24.648774,661.41593 57.615457,0 0,132.02031 -57.615457,0 0,-132.02031 z"
       style="fill:#ffff9a;fill-opacity:1;fill-rule:nonzero;stroke:none"
       id="path84"
       inkscape:connector-curvature="0" /><text
       transform="matrix(0,1.0703748,0.93425223,0,0,0)"
       id="text86"
       x="645.67944"
       y="68.353378"
       style="font-size:34.26118469px"><tspan
         style="font-size:28.45277214px;font-variant:normal;font-weight:normal;font-stretch:normal;writing-mode:lr-tb;fill:#000000;fill-opacity:1;fill-rule:nonzero;stroke:none;font-family:Arial;-inkscape-font-specification:ArialMT"
         x="645.67944 666.17682 681.95105 697.72522"
         y="68.353378"
         sodipodi:role="line"
         id="tspan88">Node</tspan></text>
<path
       d="m 16.966713,280.02395 456.122367,0 0,212.33265 -456.122367,0 0,-212.33265 z"
       style="fill:#ffff9a;fill-opacity:1;fill-rule:nonzero;stroke:none"
       id="path90"
       inkscape:connector-curvature="0" /><g
       id="g92"
       transform="matrix(2.6673822,0,0,3.0560256,-760.84195,-826.90215)"><g
         id="g94"
         clip-path="url(#clipPath96)"><path
           d="m 462.6,431.691 -171,0 0,-69.48 171,0 0,69.48 z m -171,0 z"
           style="fill:none;stroke:#000000;stroke-width:0.72000003;stroke-linecap:round;stroke-linejoin:miter;stroke-miterlimit:10;stroke-opacity:1;stroke-dasharray:none"
           id="path100"
           inkscape:connector-curvature="0" /></g></g><path
       d="m 24.648774,321.46365 57.615457,0 0,132.0203 -57.615457,0 0,-132.0203 z"
       style="fill:#ffff9a;fill-opacity:1;fill-rule:nonzero;stroke:none"
       id="path102"
       inkscape:connector-curvature="0" /><text
       transform="matrix(0,1.0703748,0.93425223,0,0,0)"
       id="text104"
       x="328.07828"
       y="68.353378"
       style="font-size:34.26118469px"><tspan
         style="font-size:28.45277214px;font-variant:normal;font-weight:normal;font-stretch:normal;writing-mode:lr-tb;fill:#000000;fill-opacity:1;fill-rule:nonzero;stroke:none;font-family:Arial;-inkscape-font-specification:ArialMT"
         x="328.07828 348.57565 364.34985 380.12408"
         y="68.353378"
         sodipodi:role="line"
         id="tspan106">Node</tspan></text>
<g
       id="g108"
       transform="matrix(2.6673822,0,0,3.0560256,-760.84195,-826.90215)"><g
         id="g110"
         clip-path="url(#clipPath112)"><path
           d="m 462.6,346.131 -171,0 0,-69.36 171,0 0,69.36 z m -171,0 z"
           style="fill:#ffff9a;fill-opacity:1;fill-rule:evenodd;stroke:#000000;stroke-width:0.72000003;stroke-linecap:round;stroke-linejoin:miter;stroke-miterlimit:10;stroke-opacity:1;stroke-dasharray:none"
           id="path116"
           inkscape:connector-curvature="0" /></g></g><path
       d="m 177.1697,222.08169 -84.342635,0 0,-192.162887 84.342635,0 0,192.162887 z m -84.342635,0 z"
       style="fill:#00ccff;fill-opacity:1;fill-rule:evenodd;stroke:#000000;stroke-width:2.05567122;stroke-linecap:round;stroke-linejoin:miter;stroke-miterlimit:10;stroke-opacity:1;stroke-dasharray:none"
       id="path118"
       inkscape:connector-curvature="0" /><text
       transform="matrix(0,1.0703748,0.93425223,0,0,0)"
       id="text120"
       x="53.646168"
       y="155.03418"
       style="font-size:34.26118469px"><tspan
         style="font-size:28.45277214px;font-variant:normal;font-weight:normal;font-stretch:normal;writing-mode:lr-tb;fill:#000000;fill-opacity:1;fill-rule:nonzero;stroke:none;font-family:Arial;-inkscape-font-specification:ArialMT"
         x="53.646168 72.49044 82.081871 97.83902 112.22758 127.98189 142.37045 156.759 172.51332"
         y="155.03418"
         sodipodi:role="line"
         id="tspan122">Processor</tspan></text>
<g
       id="g124"
       transform="matrix(2.6673822,0,0,3.0560256,197.01502,126.00025)"><path
         d="M 0,0 7.68,0"
         style="fill:none;stroke:#000000;stroke-width:0.72000003;stroke-linecap:round;stroke-linejoin:round;stroke-miterlimit:10;stroke-opacity:1;stroke-dasharray:none"
         id="path126"
         inkscape:connector-curvature="0" /></g><g
       id="g128"
       transform="matrix(2.6673822,0,0,3.0560256,197.65519,134.06816)"><path
         d="M 0,0 -7.8,-2.64 0,-5.16"
         style="fill:#000000;fill-opacity:1;fill-rule:evenodd;stroke:none"
         id="path130"
         inkscape:connector-curvature="0" /></g><g
       id="g132"
       transform="matrix(2.6673822,0,0,3.0560256,216.86034,117.93234)"><path
         d="M 0,0 7.8,2.64 0,5.16"
         style="fill:#000000;fill-opacity:1;fill-rule:evenodd;stroke:none"
         id="path134"
         inkscape:connector-curvature="0" /></g><g
       id="g136"
       transform="matrix(2.6673822,0,0,3.0560256,341.37374,126.00025)"><path
         d="M 0,0 7.68,0"
         style="fill:none;stroke:#000000;stroke-width:0.72000003;stroke-linecap:round;stroke-linejoin:round;stroke-miterlimit:10;stroke-opacity:1;stroke-dasharray:none"
         id="path138"
         inkscape:connector-curvature="0" /></g><g
       id="g140"
       transform="matrix(2.6673822,0,0,3.0560256,342.01392,134.06816)"><path
         d="M 0,0 -7.8,-2.64 0,-5.16"
         style="fill:#000000;fill-opacity:1;fill-rule:evenodd;stroke:none"
         id="path142"
         inkscape:connector-curvature="0" /></g><g
       id="g144"
       transform="matrix(2.6673822,0,0,3.0560256,361.21907,117.93234)"><path
         d="M 0,0 7.8,2.64 0,5.16"
         style="fill:#000000;fill-opacity:1;fill-rule:evenodd;stroke:none"
         id="path146"
         inkscape:connector-curvature="0" /></g><path
       d="m 177.1697,483.55525 -84.342635,0 0,-192.1629 84.342635,0 0,192.1629 z m -84.342635,0 z"
       style="fill:#00ccff;fill-opacity:1;fill-rule:evenodd;stroke:#000000;stroke-width:2.05567122;stroke-linecap:round;stroke-linejoin:miter;stroke-miterlimit:10;stroke-opacity:1;stroke-dasharray:none"
       id="path148"
       inkscape:connector-curvature="0" /><text
       transform="matrix(0,1.0703748,0.93425223,0,0,0)"
       id="text150"
       x="297.58582"
       y="155.03418"
       style="font-size:34.26118469px"><tspan
         style="font-size:28.45277214px;font-variant:normal;font-weight:normal;font-stretch:normal;writing-mode:lr-tb;fill:#000000;fill-opacity:1;fill-rule:nonzero;stroke:none;font-family:Arial;-inkscape-font-specification:ArialMT"
         x="297.58582 316.46991 326.06418 341.79004 356.17859 371.90445 386.29303 400.68158 416.43875"
         y="155.03418"
         sodipodi:role="line"
         id="tspan152">Processor</tspan></text>
<g
       id="g154"
       transform="matrix(2.6673822,0,0,3.0560256,197.01502,387.10708)"><path
         d="M 0,0 7.68,0"
         style="fill:none;stroke:#000000;stroke-width:0.72000003;stroke-linecap:round;stroke-linejoin:round;stroke-miterlimit:10;stroke-opacity:1;stroke-dasharray:none"
         id="path156"
         inkscape:connector-curvature="0" /></g><g
       id="g158"
       transform="matrix(2.6673822,0,0,3.0560256,197.65519,395.17499)"><path
         d="M 0,0 -7.8,-2.64 0,-5.16"
         style="fill:#000000;fill-opacity:1;fill-rule:evenodd;stroke:none"
         id="path160"
         inkscape:connector-curvature="0" /></g><g
       id="g162"
       transform="matrix(2.6673822,0,0,3.0560256,216.86034,379.03917)"><path
         d="M 0,0 7.8,2.64 0,5.16"
         style="fill:#000000;fill-opacity:1;fill-rule:evenodd;stroke:none"
         id="path164"
         inkscape:connector-curvature="0" /></g><g
       id="g166"
       transform="matrix(2.6673822,0,0,3.0560256,341.37374,387.10708)"><path
         d="M 0,0 7.68,0"
         style="fill:none;stroke:#000000;stroke-width:0.72000003;stroke-linecap:round;stroke-linejoin:round;stroke-miterlimit:10;stroke-opacity:1;stroke-dasharray:none"
         id="path168"
         inkscape:connector-curvature="0" /></g><g
       id="g170"
       transform="matrix(2.6673822,0,0,3.0560256,342.01392,395.17499)"><path
         d="M 0,0 -7.8,-2.64 0,-5.16"
         style="fill:#000000;fill-opacity:1;fill-rule:evenodd;stroke:none"
         id="path172"
         inkscape:connector-curvature="0" /></g><g
       id="g174"
       transform="matrix(2.6673822,0,0,3.0560256,361.21907,379.03917)"><path
         d="M 0,0 7.8,2.64 0,5.16"
         style="fill:#000000;fill-opacity:1;fill-rule:evenodd;stroke:none"
         id="path176"
         inkscape:connector-curvature="0" /></g><path
       d="m 526.54342,29.918803 53.77443,0 0,793.222007 -53.77443,0 0,-793.222007 z"
       style="fill:#969696;fill-opacity:1;fill-rule:nonzero;stroke:none"
       id="path178"
       inkscape:connector-curvature="0" /><g
       id="g180"
       transform="matrix(2.6673822,0,0,3.0560256,-760.84195,-826.90215)"><g
         id="g182"
         clip-path="url(#clipPath184)"><path
           d="m 502.8,539.93 -20.16,0 0,-259.56 20.16,0 0,259.56 z m -20.16,0 z"
           style="fill:none;stroke:#000000;stroke-width:0.72000003;stroke-linecap:round;stroke-linejoin:miter;stroke-miterlimit:10;stroke-opacity:1;stroke-dasharray:none"
           id="path188"
           inkscape:connector-curvature="0" /></g></g><text
       transform="matrix(0,1.0703748,0.93425223,0,0,0)"
       id="text190"
       x="231.46172"
       y="602.65625"
       style="font-size:34.26118469px"><tspan
         style="font-size:28.45277214px;font-variant:normal;font-weight:bold;font-stretch:normal;writing-mode:lr-tb;fill:#000000;fill-opacity:1;fill-rule:nonzero;stroke:none;font-family:Arial;-inkscape-font-specification:Arial-BoldMT"
         x="231.46172 239.44843 256.90988 266.46149 282.21579 293.17578 308.93292 326.39438 343.85587 361.31732 377.07162 392.8288 402.42303 410.40976 427.87122 445.33267 453.21692 473.83667 489.59097 499.14255 521.35565 538.81708 549.7771"
         y="602.65625"
         sodipodi:role="line"
         id="tspan192">Interconnection Network</tspan></text>
<path
       d="m 321.52842,222.08169 -83.8625,0 0,-192.162887 83.8625,0 0,192.162887 z m -83.8625,0 z"
       style="fill:#ccffcc;fill-opacity:1;fill-rule:evenodd;stroke:#000000;stroke-width:2.05567122;stroke-linecap:round;stroke-linejoin:miter;stroke-miterlimit:10;stroke-opacity:1;stroke-dasharray:none"
       id="path194"
       inkscape:connector-curvature="0" /><text
       transform="matrix(0,1.0703748,0.93425223,0,0,0)"
       id="text196"
       x="76.601158"
       y="309.72342"
       style="font-size:34.26118469px"><tspan
         style="font-size:28.45277214px;font-variant:normal;font-weight:normal;font-stretch:normal;writing-mode:lr-tb;fill:#000000;fill-opacity:1;fill-rule:nonzero;stroke:none;font-family:Arial;-inkscape-font-specification:ArialMT"
         x="76.601158 97.115616 112.9069 127.29546 143.04977"
         y="309.72342"
         sodipodi:role="line"
         id="tspan198">Cache</tspan></text>
<path
       d="m 321.52842,483.55525 -83.8625,0 0,-192.1629 83.8625,0 0,192.1629 z m -83.8625,0 z"
       style="fill:#ccffcc;fill-opacity:1;fill-rule:evenodd;stroke:#000000;stroke-width:2.05567122;stroke-linecap:round;stroke-linejoin:miter;stroke-miterlimit:10;stroke-opacity:1;stroke-dasharray:none"
       id="path200"
       inkscape:connector-curvature="0" /><text
       transform="matrix(0,1.0703748,0.93425223,0,0,0)"
       id="text202"
       x="320.5408"
       y="309.72342"
       style="font-size:34.26118469px"><tspan
         style="font-size:28.45277214px;font-variant:normal;font-weight:normal;font-stretch:normal;writing-mode:lr-tb;fill:#000000;fill-opacity:1;fill-rule:nonzero;stroke:none;font-family:Arial;-inkscape-font-specification:ArialMT"
         x="320.5408 341.05524 356.84656 371.23511 386.98938"
         y="309.72342"
         sodipodi:role="line"
         id="tspan204">Cache</tspan><tspan
         style="font-size:28.45277214px;font-variant:normal;font-weight:normal;font-stretch:normal;writing-mode:lr-tb;fill:#000000;fill-opacity:1;fill-rule:nonzero;stroke:none;font-family:Arial;-inkscape-font-specification:ArialMT"
         x="502.12354"
         y="465.61047"
         id="tspan206">…</tspan><tspan
         style="font-size:28.45277214px;font-variant:normal;font-weight:normal;font-stretch:normal;writing-mode:lr-tb;fill:#000000;fill-opacity:1;fill-rule:nonzero;stroke:none;font-family:Arial;-inkscape-font-specification:ArialMT"
         x="502.12354"
         y="311.09201"
         id="tspan208">…</tspan><tspan
         style="font-size:28.45277214px;font-variant:normal;font-weight:normal;font-stretch:normal;writing-mode:lr-tb;fill:#000000;fill-opacity:1;fill-rule:nonzero;stroke:none;font-family:Arial;-inkscape-font-specification:ArialMT"
         x="502.12354"
         y="156.06139"
         id="tspan210">…</tspan></text>
<g
       id="g212"
       transform="matrix(2.6673822,0,0,3.0560256,485.89252,126.00025)"><path
         d="M 0,0 7.68,0"
         style="fill:none;stroke:#000000;stroke-width:0.72000003;stroke-linecap:round;stroke-linejoin:round;stroke-miterlimit:10;stroke-opacity:1;stroke-dasharray:none"
         id="path214"
         inkscape:connector-curvature="0" /></g><g
       id="g216"
       transform="matrix(2.6673822,0,0,3.0560256,486.53269,134.06816)"><path
         d="M 0,0 -7.8,-2.64 0,-5.16"
         style="fill:#000000;fill-opacity:1;fill-rule:evenodd;stroke:none"
         id="path218"
         inkscape:connector-curvature="0" /></g><g
       id="g220"
       transform="matrix(2.6673822,0,0,3.0560256,505.73784,117.93234)"><path
         d="M 0,0 7.8,2.64 0,5.16"
         style="fill:#000000;fill-opacity:1;fill-rule:evenodd;stroke:none"
         id="path222"
         inkscape:connector-curvature="0" /></g><g
       id="g224"
       transform="matrix(2.6673822,0,0,3.0560256,485.89252,387.10708)"><path
         d="M 0,0 7.68,0"
         style="fill:none;stroke:#000000;stroke-width:0.72000003;stroke-linecap:round;stroke-linejoin:round;stroke-miterlimit:10;stroke-opacity:1;stroke-dasharray:none"
         id="path226"
         inkscape:connector-curvature="0" /></g><g
       id="g228"
       transform="matrix(2.6673822,0,0,3.0560256,486.53269,395.17499)"><path
         d="M 0,0 -7.8,-2.64 0,-5.16"
         style="fill:#000000;fill-opacity:1;fill-rule:evenodd;stroke:none"
         id="path230"
         inkscape:connector-curvature="0" /></g><g
       id="g232"
       transform="matrix(2.6673822,0,0,3.0560256,505.73784,379.03917)"><path
         d="M 0,0 7.8,2.64 0,5.16"
         style="fill:#000000;fill-opacity:1;fill-rule:evenodd;stroke:none"
         id="path234"
         inkscape:connector-curvature="0" /></g><path
       d="m 466.36727,222.08169 -84.34262,0 0,-192.162887 84.34262,0 0,192.162887 z m -84.34262,0 z"
       style="fill:#ff00ff;fill-opacity:1;fill-rule:evenodd;stroke:#000000;stroke-width:2.05567122;stroke-linecap:round;stroke-linejoin:miter;stroke-miterlimit:10;stroke-opacity:1;stroke-dasharray:none"
       id="path236"
       inkscape:connector-curvature="0" /><text
       transform="matrix(0,1.0703748,0.93425223,0,0,0)"
       id="text238"
       x="87.22213"
       y="447.11078"
       style="font-size:34.26118469px"><tspan
         style="font-size:28.45277214px;font-variant:normal;font-weight:normal;font-stretch:normal;writing-mode:lr-tb;fill:#000000;fill-opacity:1;fill-rule:nonzero;stroke:none;font-family:Arial;-inkscape-font-specification:ArialMT"
         x="87.22213 110.8294 126.55524 132.77786"
         y="447.11078"
         sodipodi:role="line"
         id="tspan240">Main</tspan><tspan
         style="font-size:28.45277214px;font-variant:normal;font-weight:normal;font-stretch:normal;writing-mode:lr-tb;fill:#000000;fill-opacity:1;fill-rule:nonzero;stroke:none;font-family:Arial;-inkscape-font-specification:ArialMT"
         x="66.32357 89.962135 105.71928 129.35783 145.11499 154.70927"
         y="481.37076"
         sodipodi:role="line"
         id="tspan242">Memory</tspan></text>
<path
       d="m 466.36727,483.55525 -84.34262,0 0,-192.1629 84.34262,0 0,192.1629 z m -84.34262,0 z"
       style="fill:#ff00ff;fill-opacity:1;fill-rule:evenodd;stroke:#000000;stroke-width:2.05567122;stroke-linecap:round;stroke-linejoin:miter;stroke-miterlimit:10;stroke-opacity:1;stroke-dasharray:none"
       id="path244"
       inkscape:connector-curvature="0" /><text
       transform="matrix(0,1.0703748,0.93425223,0,0,0)"
       id="text246"
       x="331.16177"
       y="447.11078"
       style="font-size:34.26118469px"><tspan
         style="font-size:28.45277214px;font-variant:normal;font-weight:normal;font-stretch:normal;writing-mode:lr-tb;fill:#000000;fill-opacity:1;fill-rule:nonzero;stroke:none;font-family:Arial;-inkscape-font-specification:ArialMT"
         x="331.16177 354.75479 370.46643 376.6748"
         y="447.11078"
         sodipodi:role="line"
         id="tspan248">Main</tspan><tspan
         style="font-size:28.45277214px;font-variant:normal;font-weight:normal;font-stretch:normal;writing-mode:lr-tb;fill:#000000;fill-opacity:1;fill-rule:nonzero;stroke:none;font-family:Arial;-inkscape-font-specification:ArialMT"
         x="310.26318 333.90176 349.65891 373.29745 389.05463 398.64893"
         y="481.37076"
         sodipodi:role="line"
         id="tspan250">Memory</tspan></text>
<path
       d="m 177.1697,823.13775 -84.342635,0 0,-192.16288 84.342635,0 0,192.16288 z m -84.342635,0 z"
       style="fill:#00ccff;fill-opacity:1;fill-rule:evenodd;stroke:#000000;stroke-width:2.05567122;stroke-linecap:round;stroke-linejoin:miter;stroke-miterlimit:10;stroke-opacity:1;stroke-dasharray:none"
       id="path252"
       inkscape:connector-curvature="0" /><text
       transform="matrix(0,1.0703748,0.93425223,0,0,0)"
       id="text254"
       x="614.84436"
       y="155.03418"
       style="font-size:34.26118469px"><tspan
         style="font-size:28.45277214px;font-variant:normal;font-weight:normal;font-stretch:normal;writing-mode:lr-tb;fill:#000000;fill-opacity:1;fill-rule:nonzero;stroke:none;font-family:Arial;-inkscape-font-specification:ArialMT"
         x="614.84436 633.68866 643.2829 659.03723 673.42578 689.18298 703.57147 717.96002 733.71722"
         y="155.03418"
         sodipodi:role="line"
         id="tspan256">Processor</tspan></text>
<g
       id="g258"
       transform="matrix(2.6673822,0,0,3.0560256,197.01502,726.68958)"><path
         d="M 0,0 7.68,0"
         style="fill:none;stroke:#000000;stroke-width:0.72000003;stroke-linecap:round;stroke-linejoin:round;stroke-miterlimit:10;stroke-opacity:1;stroke-dasharray:none"
         id="path260"
         inkscape:connector-curvature="0" /></g><g
       id="g262"
       transform="matrix(2.6673822,0,0,3.0560256,197.65519,734.75749)"><path
         d="M 0,0 -7.8,-2.64 0,-5.16"
         style="fill:#000000;fill-opacity:1;fill-rule:evenodd;stroke:none"
         id="path264"
         inkscape:connector-curvature="0" /></g><g
       id="g266"
       transform="matrix(2.6673822,0,0,3.0560256,216.86034,718.62167)"><path
         d="M 0,0 7.8,2.76 0,5.16"
         style="fill:#000000;fill-opacity:1;fill-rule:evenodd;stroke:none"
         id="path268"
         inkscape:connector-curvature="0" /></g><g
       id="g270"
       transform="matrix(2.6673822,0,0,3.0560256,341.37374,726.68958)"><path
         d="M 0,0 7.68,0"
         style="fill:none;stroke:#000000;stroke-width:0.72000003;stroke-linecap:round;stroke-linejoin:round;stroke-miterlimit:10;stroke-opacity:1;stroke-dasharray:none"
         id="path272"
         inkscape:connector-curvature="0" /></g><g
       id="g274"
       transform="matrix(2.6673822,0,0,3.0560256,342.01392,734.75749)"><path
         d="M 0,0 -7.8,-2.64 0,-5.16"
         style="fill:#000000;fill-opacity:1;fill-rule:evenodd;stroke:none"
         id="path276"
         inkscape:connector-curvature="0" /></g><g
       id="g278"
       transform="matrix(2.6673822,0,0,3.0560256,361.21907,718.62167)"><path
         d="M 0,0 7.8,2.76 0,5.16"
         style="fill:#000000;fill-opacity:1;fill-rule:evenodd;stroke:none"
         id="path280"
         inkscape:connector-curvature="0" /></g><path
       d="m 321.52842,823.13775 -83.8625,0 0,-192.16288 83.8625,0 0,192.16288 z m -83.8625,0 z"
       style="fill:#ccffcc;fill-opacity:1;fill-rule:evenodd;stroke:#000000;stroke-width:2.05567122;stroke-linecap:round;stroke-linejoin:miter;stroke-miterlimit:10;stroke-opacity:1;stroke-dasharray:none"
       id="path282"
       inkscape:connector-curvature="0" /><text
       transform="matrix(0,1.0703748,0.93425223,0,0,0)"
       id="text284"
       x="637.79938"
       y="309.72342"
       style="font-size:34.26118469px"><tspan
         style="font-size:28.45277214px;font-variant:normal;font-weight:normal;font-stretch:normal;writing-mode:lr-tb;fill:#000000;fill-opacity:1;fill-rule:nonzero;stroke:none;font-family:Arial;-inkscape-font-specification:ArialMT"
         x="637.79938 658.31384 674.1051 688.49371 704.24792"
         y="309.72342"
         sodipodi:role="line"
         id="tspan286">Cache</tspan></text>
<g
       id="g288"
       transform="matrix(2.6673822,0,0,3.0560256,485.89252,726.68958)"><path
         d="M 0,0 7.68,0"
         style="fill:none;stroke:#000000;stroke-width:0.72000003;stroke-linecap:round;stroke-linejoin:round;stroke-miterlimit:10;stroke-opacity:1;stroke-dasharray:none"
         id="path290"
         inkscape:connector-curvature="0" /></g><g
       id="g292"
       transform="matrix(2.6673822,0,0,3.0560256,486.53269,734.75749)"><path
         d="M 0,0 -7.8,-2.64 0,-5.16"
         style="fill:#000000;fill-opacity:1;fill-rule:evenodd;stroke:none"
         id="path294"
         inkscape:connector-curvature="0" /></g><g
       id="g296"
       transform="matrix(2.6673822,0,0,3.0560256,505.73784,718.62167)"><path
         d="M 0,0 7.8,2.76 0,5.16"
         style="fill:#000000;fill-opacity:1;fill-rule:evenodd;stroke:none"
         id="path298"
         inkscape:connector-curvature="0" /></g><path
       d="m 466.36727,823.13775 -84.34262,0 0,-192.16288 84.34262,0 0,192.16288 z m -84.34262,0 z"
       style="fill:#ff00ff;fill-opacity:1;fill-rule:evenodd;stroke:#000000;stroke-width:2.05567122;stroke-linecap:round;stroke-linejoin:miter;stroke-miterlimit:10;stroke-opacity:1;stroke-dasharray:none"
       id="path300"
       inkscape:connector-curvature="0" /><text
       transform="matrix(0,1.0703748,0.93425223,0,0,0)"
       id="text302"
       x="648.42035"
       y="447.11078"
       style="font-size:34.26118469px"><tspan
         style="font-size:28.45277214px;font-variant:normal;font-weight:normal;font-stretch:normal;writing-mode:lr-tb;fill:#000000;fill-opacity:1;fill-rule:nonzero;stroke:none;font-family:Arial;-inkscape-font-specification:ArialMT"
         x="648.42035 672.01337 687.72498 693.93335"
         y="447.11078"
         sodipodi:role="line"
         id="tspan304">Main</tspan><tspan
         style="font-size:28.45277214px;font-variant:normal;font-weight:normal;font-stretch:normal;writing-mode:lr-tb;fill:#000000;fill-opacity:1;fill-rule:nonzero;stroke:none;font-family:Arial;-inkscape-font-specification:ArialMT"
         x="627.52179 651.16034 666.91748 690.55603 706.31323 715.90747"
         y="481.37076"
         sodipodi:role="line"
         id="tspan306">Memory</tspan></text>
<path
       d="m 24.648774,59.990095 57.615457,0 0,132.020315 -57.615457,0 0,-132.020315 z"
       style="fill:#ffff9a;fill-opacity:1;fill-rule:nonzero;stroke:none"
       id="path308"
       inkscape:connector-curvature="0" /><text
       transform="matrix(0,1.0703748,0.93425223,0,0,0)"
       id="text310"
       x="83.796013"
       y="68.353378"
       style="font-size:34.26118469px"><tspan
         style="font-size:28.45277214px;font-variant:normal;font-weight:normal;font-stretch:normal;writing-mode:lr-tb;fill:#000000;fill-opacity:1;fill-rule:nonzero;stroke:none;font-family:Arial;-inkscape-font-specification:ArialMT"
         x="83.796013 104.29339 120.0676 135.84183"
         y="68.353378"
         sodipodi:role="line"
         id="tspan312">Node</tspan></text>
</g></svg>