<?xml version="1.0" encoding="UTF-8" standalone="no"?>
<!-- Created with Inkscape (http://www.inkscape.org/) -->

<svg
   xmlns:dc="http://purl.org/dc/elements/1.1/"
   xmlns:cc="http://creativecommons.org/ns#"
   xmlns:rdf="http://www.w3.org/1999/02/22-rdf-syntax-ns#"
   xmlns:svg="http://www.w3.org/2000/svg"
   xmlns="http://www.w3.org/2000/svg"
   xmlns:sodipodi="http://sodipodi.sourceforge.net/DTD/sodipodi-0.dtd"
   xmlns:inkscape="http://www.inkscape.org/namespaces/inkscape"
   id="svg2"
   version="1.1"
   inkscape:version="0.48.3.1 r9886"
   width="1052.5"
   height="744.025"
   xml:space="preserve"
   sodipodi:docname="Lesson_13A_Multiprocessors.pdf"><metadata
     id="metadata8"><rdf:RDF><cc:Work
         rdf:about=""><dc:format>image/svg+xml</dc:format><dc:type
           rdf:resource="http://purl.org/dc/dcmitype/StillImage" /><dc:title></dc:title></cc:Work></rdf:RDF></metadata><defs
     id="defs6"><clipPath
       clipPathUnits="userSpaceOnUse"
       id="clipPath16"><path
         d="m 567.48,61.011 -540,0 0,720 540,0 0,-720 z"
         clip-rule="evenodd"
         id="path18" /></clipPath><clipPath
       clipPathUnits="userSpaceOnUse"
       id="clipPath22"><path
         d="m 0,841.98 595.2,0 L 595.2,0 0,0 0,841.98 z"
         id="path24" /></clipPath><clipPath
       clipPathUnits="userSpaceOnUse"
       id="clipPath78"><path
         d="m 267.48,479.211 139.56,0 0,78.84 -139.56,0 0,-78.84 z"
         id="path80" /></clipPath><clipPath
       clipPathUnits="userSpaceOnUse"
       id="clipPath92"><path
         d="m 267.48,340.431 139.56,0 0,83.4 -139.56,0 0,-83.4 z"
         id="path94" /></clipPath><clipPath
       clipPathUnits="userSpaceOnUse"
       id="clipPath106"><path
         d="m 267.48,259.011 139.56,0 0,78.6 -139.56,0 0,-78.6 z"
         id="path108" /></clipPath></defs><sodipodi:namedview
     pagecolor="#ffffff"
     bordercolor="#666666"
     borderopacity="1"
     objecttolerance="10"
     gridtolerance="10"
     guidetolerance="10"
     inkscape:pageopacity="0"
     inkscape:pageshadow="2"
     inkscape:window-width="640"
     inkscape:window-height="480"
     id="namedview4"
     showgrid="false"
     inkscape:zoom="0.31719363"
     inkscape:cx="526.25"
     inkscape:cy="372.01251"
     inkscape:window-x="0"
     inkscape:window-y="24"
     inkscape:window-maximized="0"
     inkscape:current-layer="g10" /><g
     id="g10"
     inkscape:groupmode="layer"
     inkscape:label="Lesson_13A_Multiprocessors"
     transform="matrix(0,1.25,1.25,0,0,0)"><g
       id="g74"
       transform="matrix(2.4653002,0,0,2.7293713,-651.6612,-692.63012)"><g
         id="g76"
         clip-path="url(#clipPath78)"><path
           d="m 402.06,557.63 -134.58,0 0,-73.5 134.58,0 0,73.5 z m -134.58,0 z"
           style="fill:#ffff9a;fill-opacity:1;fill-rule:evenodd;stroke:#000000;stroke-width:0.86299998;stroke-linecap:round;stroke-linejoin:miter;stroke-miterlimit:10;stroke-opacity:1;stroke-dasharray:none"
           id="path82"
           inkscape:connector-curvature="0" /></g></g><text
       transform="matrix(0,1.0521954,0.95039381,0,0,0)"
       id="text84"
       x="656.22803"
       y="53.453041"
       style="font-size:31.12773132px"><tspan
         style="font-size:31.02682304px;font-variant:normal;font-weight:normal;font-stretch:normal;writing-mode:lr-tb;fill:#000000;fill-opacity:1;fill-rule:nonzero;stroke:none;font-family:Arial;-inkscape-font-specification:ArialMT"
         x="656.22803 678.56738 695.75623 712.94507"
         y="53.453041"
         sodipodi:role="line"
         id="tspan86">Node</tspan></text>
<g
       id="g88"
       transform="matrix(2.4653002,0,0,2.7293713,-651.6612,-692.63012)"><g
         id="g90"
         clip-path="url(#clipPath92)"><path
           d="m 402.06,418.851 -134.58,0 0,-73.5 134.58,0 0,73.5 z m -134.58,0 z"
           style="fill:#ffff9a;fill-opacity:1;fill-rule:evenodd;stroke:#000000;stroke-width:0.86299998;stroke-linecap:round;stroke-linejoin:miter;stroke-miterlimit:10;stroke-opacity:1;stroke-dasharray:none"
           id="path96"
           inkscape:connector-curvature="0" /></g></g><text
       transform="matrix(0,1.0521954,0.95039381,0,0,0)"
       id="text98"
       x="295.76892"
       y="53.453041"
       style="font-size:31.12773132px"><tspan
         style="font-size:31.02682304px;font-variant:normal;font-weight:normal;font-stretch:normal;writing-mode:lr-tb;fill:#000000;fill-opacity:1;fill-rule:nonzero;stroke:none;font-family:Arial;-inkscape-font-specification:ArialMT"
         x="295.76892 318.2634 335.37778 352.72177"
         y="53.453041"
         sodipodi:role="line"
         id="tspan100">Node</tspan></text>
<g
       id="g102"
       transform="matrix(2.4653002,0,0,2.7293713,-651.6612,-692.63012)"><g
         id="g104"
         clip-path="url(#clipPath106)"><path
           d="m 402.06,332.631 -134.58,0 0,-73.62 134.58,0 0,73.62 z m -134.58,0 z"
           style="fill:#ffff9a;fill-opacity:1;fill-rule:evenodd;stroke:#000000;stroke-width:0.86299998;stroke-linecap:round;stroke-linejoin:miter;stroke-miterlimit:10;stroke-opacity:1;stroke-dasharray:none"
           id="path110"
           inkscape:connector-curvature="0" /></g></g><path
       d="m 440.41748,825.41888 -51.03171,0 0,-802.92643 51.03171,0 0,802.92643 z m -51.03171,0 z"
       style="fill:#969696;fill-opacity:1;fill-rule:evenodd;stroke:#000000;stroke-width:2.23860264;stroke-linecap:round;stroke-linejoin:miter;stroke-miterlimit:10;stroke-opacity:1;stroke-dasharray:none"
       id="path112"
       inkscape:connector-curvature="0" /><text
       transform="matrix(0,1.0521954,0.95039381,0,0,0)"
       id="text114"
       x="318.95908"
       y="452.04364"
       style="font-size:31.12773132px"><tspan
         style="font-size:31.02682304px;font-variant:normal;font-weight:bold;font-stretch:normal;writing-mode:lr-tb;fill:#000000;fill-opacity:1;fill-rule:nonzero;stroke:none;font-family:Arial;-inkscape-font-specification:Arial-BoldMT"
         x="318.95908 339.64777 348.26703 367.21823 386.36798 394.98721 412.2319 420.95358 443.34872 465.7439"
         y="452.04364"
         sodipodi:role="line"
         id="tspan116">Single BUS</tspan></text>
<path
       d="m 330.66231,820.6725 -84.90493,0 0,-178.17335 84.90493,0 0,178.17335 z m -84.90493,0 z"
       style="fill:#ccffcc;fill-opacity:1;fill-rule:evenodd;stroke:#000000;stroke-width:2.23860264;stroke-linecap:round;stroke-linejoin:miter;stroke-miterlimit:10;stroke-opacity:1;stroke-dasharray:none"
       id="path118"
       inkscape:connector-curvature="0" /><text
       transform="matrix(0,1.0521954,0.95039381,0,0,0)"
       id="text120"
       x="650.31378"
       y="312.43576"
       style="font-size:31.12773132px"><tspan
         style="font-size:31.02682304px;font-variant:normal;font-weight:normal;font-stretch:normal;writing-mode:lr-tb;fill:#000000;fill-opacity:1;fill-rule:nonzero;stroke:none;font-family:Arial;-inkscape-font-specification:ArialMT"
         x="650.31378 672.65002 689.83575 705.55389 722.82349"
         y="312.43576"
         sodipodi:role="line"
         id="tspan122">Cache</tspan></text>
<path
       d="m 330.66231,437.63254 -84.90493,0 0,-178.33712 84.90493,0 0,178.33712 z m -84.90493,0 z"
       style="fill:#ccffcc;fill-opacity:1;fill-rule:evenodd;stroke:#000000;stroke-width:2.23860264;stroke-linecap:round;stroke-linejoin:miter;stroke-miterlimit:10;stroke-opacity:1;stroke-dasharray:none"
       id="path124"
       inkscape:connector-curvature="0" /><text
       transform="matrix(0,1.0521954,0.95039381,0,0,0)"
       id="text126"
       x="286.11932"
       y="312.43576"
       style="font-size:31.12773132px"><tspan
         style="font-size:31.02682304px;font-variant:normal;font-weight:normal;font-stretch:normal;writing-mode:lr-tb;fill:#000000;fill-opacity:1;fill-rule:nonzero;stroke:none;font-family:Arial;-inkscape-font-specification:ArialMT"
         x="286.11932 308.53622 325.80264 341.52084 358.63522"
         y="312.43576"
         sodipodi:role="line"
         id="tspan128">Cache</tspan></text>
<path
       d="m 330.66231,203.94378 -84.90493,0 0,-177.84583 84.90493,0 0,177.84583 z m -84.90493,0 z"
       style="fill:#ccffcc;fill-opacity:1;fill-rule:evenodd;stroke:#000000;stroke-width:2.23860264;stroke-linecap:round;stroke-linejoin:miter;stroke-miterlimit:10;stroke-opacity:1;stroke-dasharray:none"
       id="path130"
       inkscape:connector-curvature="0" /><text
       transform="matrix(0,1.0521954,0.95039381,0,0,0)"
       id="text132"
       x="64.02298"
       y="312.43576"
       style="font-size:31.12773132px"><tspan
         style="font-size:31.02682304px;font-variant:normal;font-weight:normal;font-stretch:normal;writing-mode:lr-tb;fill:#000000;fill-opacity:1;fill-rule:nonzero;stroke:none;font-family:Arial;-inkscape-font-specification:ArialMT"
         x="64.02298 86.43985 103.70628 119.42448 136.53888"
         y="312.43576"
         sodipodi:role="line"
         id="tspan134">Cache</tspan></text>
<g
       id="g136"
       transform="matrix(2.4653002,0,0,2.7293713,366.90223,119.27868)"><path
         d="M 0,0 -5.88,0"
         style="fill:none;stroke:#000000;stroke-width:0.86299998;stroke-linecap:round;stroke-linejoin:round;stroke-miterlimit:10;stroke-opacity:1;stroke-dasharray:none"
         id="path138"
         inkscape:connector-curvature="0" /></g><g
       id="g140"
       transform="matrix(2.4653002,0,0,2.7293713,366.16264,110.76305)"><path
         d="M 0,0 9.42,3.12 0,6.18"
         style="fill:#000000;fill-opacity:1;fill-rule:evenodd;stroke:none"
         id="path142"
         inkscape:connector-curvature="0" /></g><g
       id="g144"
       transform="matrix(2.4653002,0,0,2.7293713,353.14585,127.95809)"><path
         d="M 0,0 -9.36,-3.18 0,-6.18"
         style="fill:#000000;fill-opacity:1;fill-rule:evenodd;stroke:none"
         id="path146"
         inkscape:connector-curvature="0" /></g><g
       id="g148"
       transform="matrix(2.4653002,0,0,2.7293713,366.90223,352.96744)"><path
         d="M 0,0 -5.88,0"
         style="fill:none;stroke:#000000;stroke-width:0.86299998;stroke-linecap:round;stroke-linejoin:round;stroke-miterlimit:10;stroke-opacity:1;stroke-dasharray:none"
         id="path150"
         inkscape:connector-curvature="0" /></g><g
       id="g152"
       transform="matrix(2.4653002,0,0,2.7293713,366.16264,344.28804)"><path
         d="M 0,0 9.42,3.18 0,6.24"
         style="fill:#000000;fill-opacity:1;fill-rule:evenodd;stroke:none"
         id="path154"
         inkscape:connector-curvature="0" /></g><g
       id="g156"
       transform="matrix(2.4653002,0,0,2.7293713,353.14585,361.64685)"><path
         d="M 0,0 -9.36,-3.18 0,-6.18"
         style="fill:#000000;fill-opacity:1;fill-rule:evenodd;stroke:none"
         id="path158"
         inkscape:connector-curvature="0" /></g><g
       id="g160"
       transform="matrix(2.4653002,0,0,2.7293713,366.90223,736.16844)"><path
         d="M 0,0 -5.88,0"
         style="fill:none;stroke:#000000;stroke-width:0.86299998;stroke-linecap:round;stroke-linejoin:round;stroke-miterlimit:10;stroke-opacity:1;stroke-dasharray:none"
         id="path162"
         inkscape:connector-curvature="0" /></g><g
       id="g164"
       transform="matrix(2.4653002,0,0,2.7293713,366.16264,727.48904)"><path
         d="M 0,0 9.42,3.18 0,6.18"
         style="fill:#000000;fill-opacity:1;fill-rule:evenodd;stroke:none"
         id="path166"
         inkscape:connector-curvature="0" /></g><g
       id="g168"
       transform="matrix(2.4653002,0,0,2.7293713,353.14585,744.68408)"><path
         d="M 0,0 -9.36,-3.12 0,-6.18"
         style="fill:#000000;fill-opacity:1;fill-rule:evenodd;stroke:none"
         id="path170"
         inkscape:connector-curvature="0" /></g><path
       d="m 187.18185,820.6725 -84.90494,0 0,-178.17335 84.90494,0 0,178.17335 z m -84.90494,0 z"
       style="fill:#00ccff;fill-opacity:1;fill-rule:evenodd;stroke:#000000;stroke-width:2.23860264;stroke-linecap:round;stroke-linejoin:miter;stroke-miterlimit:10;stroke-opacity:1;stroke-dasharray:none"
       id="path172"
       inkscape:connector-curvature="0" /><text
       transform="matrix(0,1.0521954,0.95039381,0,0,0)"
       id="text174"
       x="625.25592"
       y="161.77754"
       style="font-size:31.12773132px"><tspan
         style="font-size:31.02682304px;font-variant:normal;font-weight:normal;font-stretch:normal;writing-mode:lr-tb;fill:#000000;fill-opacity:1;fill-rule:nonzero;stroke:none;font-family:Arial;-inkscape-font-specification:ArialMT"
         x="625.25592 645.80194 656.23004 673.34442 689.06256 706.33215 722.05035 737.76855 754.88293"
         y="161.77754"
         sodipodi:role="line"
         id="tspan176">Processor</tspan></text>
<path
       d="m 187.18185,437.63254 -84.90494,0 0,-178.33712 84.90494,0 0,178.33712 z m -84.90494,0 z"
       style="fill:#00ccff;fill-opacity:1;fill-rule:evenodd;stroke:#000000;stroke-width:2.23860264;stroke-linecap:round;stroke-linejoin:miter;stroke-miterlimit:10;stroke-opacity:1;stroke-dasharray:none"
       id="path178"
       inkscape:connector-curvature="0" /><text
       transform="matrix(0,1.0521954,0.95039381,0,0,0)"
       id="text180"
       x="261.06149"
       y="161.77754"
       style="font-size:31.12773132px"><tspan
         style="font-size:31.02682304px;font-variant:normal;font-weight:normal;font-stretch:normal;writing-mode:lr-tb;fill:#000000;fill-opacity:1;fill-rule:nonzero;stroke:none;font-family:Arial;-inkscape-font-specification:ArialMT"
         x="261.06149 281.60748 292.03558 309.3082 325.0264 342.14081 357.85901 373.57718 390.84979"
         y="161.77754"
         sodipodi:role="line"
         id="tspan182">Processor</tspan></text>
<path
       d="m 187.18185,203.94378 -84.90494,0 0,-177.84583 84.90494,0 0,177.84583 z m -84.90494,0 z"
       style="fill:#00ccff;fill-opacity:1;fill-rule:evenodd;stroke:#000000;stroke-width:2.23860264;stroke-linecap:round;stroke-linejoin:miter;stroke-miterlimit:10;stroke-opacity:1;stroke-dasharray:none"
       id="path184"
       inkscape:connector-curvature="0" /><text
       transform="matrix(0,1.0521954,0.95039381,0,0,0)"
       id="text186"
       x="38.965153"
       y="161.77754"
       style="font-size:31.12773132px"><tspan
         style="font-size:31.02682304px;font-variant:normal;font-weight:normal;font-stretch:normal;writing-mode:lr-tb;fill:#000000;fill-opacity:1;fill-rule:nonzero;stroke:none;font-family:Arial;-inkscape-font-specification:ArialMT"
         x="38.965153 59.517319 70.100578 87.208763 102.92695 120.19958 135.76263 151.48082 168.75346"
         y="161.77754"
         sodipodi:role="line"
         id="tspan188">Processor</tspan></text>
<g
       id="g190"
       transform="matrix(2.4653002,0,0,2.7293713,223.42176,119.27868)"><path
         d="M 0,0 -5.76,0"
         style="fill:none;stroke:#000000;stroke-width:0.86299998;stroke-linecap:round;stroke-linejoin:round;stroke-miterlimit:10;stroke-opacity:1;stroke-dasharray:none"
         id="path192"
         inkscape:connector-curvature="0" /></g><g
       id="g194"
       transform="matrix(2.4653002,0,0,2.7293713,222.68217,110.76305)"><path
         d="M 0,0 9.36,3.12 0,6.18"
         style="fill:#000000;fill-opacity:1;fill-rule:evenodd;stroke:none"
         id="path196"
         inkscape:connector-curvature="0" /></g><g
       id="g198"
       transform="matrix(2.4653002,0,0,2.7293713,209.96122,127.95809)"><path
         d="M 0,0 -9.36,-3.18 0,-6.18"
         style="fill:#000000;fill-opacity:1;fill-rule:evenodd;stroke:none"
         id="path200"
         inkscape:connector-curvature="0" /></g><g
       id="g202"
       transform="matrix(2.4653002,0,0,2.7293713,223.42176,352.96744)"><path
         d="M 0,0 -5.76,0"
         style="fill:none;stroke:#000000;stroke-width:0.86299998;stroke-linecap:round;stroke-linejoin:round;stroke-miterlimit:10;stroke-opacity:1;stroke-dasharray:none"
         id="path204"
         inkscape:connector-curvature="0" /></g><g
       id="g206"
       transform="matrix(2.4653002,0,0,2.7293713,222.68217,344.28804)"><path
         d="M 0,0 9.36,3.18 0,6.24"
         style="fill:#000000;fill-opacity:1;fill-rule:evenodd;stroke:none"
         id="path208"
         inkscape:connector-curvature="0" /></g><g
       id="g210"
       transform="matrix(2.4653002,0,0,2.7293713,209.96122,361.64685)"><path
         d="M 0,0 -9.36,-3.18 0,-6.18"
         style="fill:#000000;fill-opacity:1;fill-rule:evenodd;stroke:none"
         id="path212"
         inkscape:connector-curvature="0" /></g><g
       id="g214"
       transform="matrix(2.4653002,0,0,2.7293713,223.42176,736.16844)"><path
         d="M 0,0 -5.76,0"
         style="fill:none;stroke:#000000;stroke-width:0.86299998;stroke-linecap:round;stroke-linejoin:round;stroke-miterlimit:10;stroke-opacity:1;stroke-dasharray:none"
         id="path216"
         inkscape:connector-curvature="0" /></g><g
       id="g218"
       transform="matrix(2.4653002,0,0,2.7293713,222.68217,727.48904)"><path
         d="M 0,0 9.36,3.18 0,6.18"
         style="fill:#000000;fill-opacity:1;fill-rule:evenodd;stroke:none"
         id="path220"
         inkscape:connector-curvature="0" /></g><g
       id="g222"
       transform="matrix(2.4653002,0,0,2.7293713,209.96122,744.68408)"><path
         d="M 0,0 -9.36,-3.12 0,-6.18"
         style="fill:#000000;fill-opacity:1;fill-rule:evenodd;stroke:none"
         id="path224"
         inkscape:connector-curvature="0" /></g><g
       id="g226"
       transform="matrix(2.4653002,0,0,2.7293713,476.65739,352.96744)"><path
         d="M 0,0 -5.88,0"
         style="fill:none;stroke:#000000;stroke-width:0.86299998;stroke-linecap:round;stroke-linejoin:round;stroke-miterlimit:10;stroke-opacity:1;stroke-dasharray:none"
         id="path228"
         inkscape:connector-curvature="0" /></g><g
       id="g230"
       transform="matrix(2.4653002,0,0,2.7293713,476.06572,344.28804)"><path
         d="M 0,0 9.36,3.18 0,6.24"
         style="fill:#000000;fill-opacity:1;fill-rule:evenodd;stroke:none"
         id="path232"
         inkscape:connector-curvature="0" /></g><g
       id="g234"
       transform="matrix(2.4653002,0,0,2.7293713,462.90102,361.64685)"><path
         d="M 0,0 -9.36,-3.18 0,-6.18"
         style="fill:#000000;fill-opacity:1;fill-rule:evenodd;stroke:none"
         id="path236"
         inkscape:connector-curvature="0" /></g><g
       id="g238"
       transform="matrix(2.4653002,0,0,2.7293713,476.65739,736.16844)"><path
         d="M 0,0 -5.88,0"
         style="fill:none;stroke:#000000;stroke-width:0.86299998;stroke-linecap:round;stroke-linejoin:round;stroke-miterlimit:10;stroke-opacity:1;stroke-dasharray:none"
         id="path240"
         inkscape:connector-curvature="0" /></g><g
       id="g242"
       transform="matrix(2.4653002,0,0,2.7293713,476.06572,727.48904)"><path
         d="M 0,0 9.36,3.18 0,6.18"
         style="fill:#000000;fill-opacity:1;fill-rule:evenodd;stroke:none"
         id="path244"
         inkscape:connector-curvature="0" /></g><g
       id="g246"
       transform="matrix(2.4653002,0,0,2.7293713,462.90102,744.68408)"><path
         d="M 0,0 -9.36,-3.12 0,-6.18"
         style="fill:#000000;fill-opacity:1;fill-rule:evenodd;stroke:none"
         id="path248"
         inkscape:connector-curvature="0" /></g><text
       transform="matrix(0,1.0521954,0.95039381,0,0,0)"
       id="text250"
       x="501.52322"
       y="160.3768"
       style="font-size:31.12773132px"><tspan
         style="font-size:31.02682304px;font-variant:normal;font-weight:normal;font-stretch:normal;writing-mode:lr-tb;fill:#000000;fill-opacity:1;fill-rule:nonzero;stroke:none;font-family:Arial;-inkscape-font-specification:ArialMT"
         x="501.52322"
         y="160.3768"
         id="tspan252">…</tspan><tspan
         style="font-size:31.02682304px;font-variant:normal;font-weight:normal;font-stretch:normal;writing-mode:lr-tb;fill:#000000;fill-opacity:1;fill-rule:nonzero;stroke:none;font-family:Arial;-inkscape-font-specification:ArialMT"
         x="501.52322"
         y="311.34711"
         id="tspan254">…</tspan></text>
<path
       d="m 583.60212,820.6725 -84.46119,0 0,-178.17335 84.46119,0 0,178.17335 z m -84.46119,0 z"
       style="fill:#ffff00;fill-opacity:1;fill-rule:evenodd;stroke:#000000;stroke-width:2.23860264;stroke-linecap:round;stroke-linejoin:miter;stroke-miterlimit:10;stroke-opacity:1;stroke-dasharray:none"
       id="path256"
       inkscape:connector-curvature="0" /><text
       transform="matrix(0,1.0521954,0.95039381,0,0,0)"
       id="text258"
       x="618.40784"
       y="579.04474"
       style="font-size:31.12773132px"><tspan
         style="font-size:31.02682304px;font-variant:normal;font-weight:normal;font-stretch:normal;writing-mode:lr-tb;fill:#000000;fill-opacity:1;fill-rule:nonzero;stroke:none;font-family:Arial;-inkscape-font-specification:ArialMT"
         x="618.40784 627.19153 635.75806 660.05511 668.62164 689.1676 704.83929 720.51093 729.07745 746.34698"
         y="579.04474"
         sodipodi:role="line"
         id="tspan260">I/O System</tspan></text>
<path
       d="m 583.60212,437.63254 -84.46119,0 0,-178.33712 84.46119,0 0,178.33712 z m -84.46119,0 z"
       style="fill:#ff00ff;fill-opacity:1;fill-rule:evenodd;stroke:#000000;stroke-width:2.23860264;stroke-linecap:round;stroke-linejoin:miter;stroke-miterlimit:10;stroke-opacity:1;stroke-dasharray:none"
       id="path262"
       inkscape:connector-curvature="0" /><text
       transform="matrix(0,1.0521954,0.95039381,0,0,0)"
       id="text264"
       x="297.6366"
       y="560.36816"
       style="font-size:31.12773132px"><tspan
         style="font-size:31.02682304px;font-variant:normal;font-weight:normal;font-stretch:normal;writing-mode:lr-tb;fill:#000000;fill-opacity:1;fill-rule:nonzero;stroke:none;font-family:Arial;-inkscape-font-specification:ArialMT"
         x="297.6366 323.48816 340.74527 347.43155"
         y="560.36816"
         sodipodi:role="line"
         id="tspan266">Main</tspan><tspan
         style="font-size:31.02682304px;font-variant:normal;font-weight:normal;font-stretch:normal;writing-mode:lr-tb;fill:#000000;fill-opacity:1;fill-rule:nonzero;stroke:none;font-family:Arial;-inkscape-font-specification:ArialMT"
         x="274.91257 300.68344 317.85986 343.63074 360.80722 371.39047"
         y="597.72131"
         sodipodi:role="line"
         id="tspan268">Memory</tspan><tspan
         style="font-size:31.02682304px;font-variant:normal;font-weight:normal;font-stretch:normal;writing-mode:lr-tb;fill:#000000;fill-opacity:1;fill-rule:nonzero;stroke:none;font-family:Arial;-inkscape-font-specification:ArialMT"
         x="72.270149 94.609459 111.79832 128.98718"
         y="53.454948"
         sodipodi:role="line"
         id="tspan270">Node</tspan><tspan
         style="font-size:31.02682304px;font-variant:normal;font-weight:normal;font-stretch:normal;writing-mode:lr-tb;fill:#000000;fill-opacity:1;fill-rule:nonzero;stroke:none;font-family:Arial;-inkscape-font-specification:ArialMT"
         x="501.52005"
         y="60.612846"
         id="tspan272">…</tspan></text>
</g></svg>