<?xml version="1.0" encoding="UTF-8" standalone="no"?>
<!-- Created with Inkscape (http://www.inkscape.org/) -->

<svg
   xmlns:dc="http://purl.org/dc/elements/1.1/"
   xmlns:cc="http://creativecommons.org/ns#"
   xmlns:rdf="http://www.w3.org/1999/02/22-rdf-syntax-ns#"
   xmlns:svg="http://www.w3.org/2000/svg"
   xmlns="http://www.w3.org/2000/svg"
   xmlns:sodipodi="http://sodipodi.sourceforge.net/DTD/sodipodi-0.dtd"
   xmlns:inkscape="http://www.inkscape.org/namespaces/inkscape"
   id="svg2"
   version="1.1"
   inkscape:version="0.48.3.1 r9886"
   width="1052.5"
   height="744.025"
   xml:space="preserve"
   sodipodi:docname="Lesson_13B_Multiprocessors.pdf"><metadata
     id="metadata8"><rdf:RDF><cc:Work
         rdf:about=""><dc:format>image/svg+xml</dc:format><dc:type
           rdf:resource="http://purl.org/dc/dcmitype/StillImage" /><dc:title></dc:title></cc:Work></rdf:RDF></metadata><defs
     id="defs6"><clipPath
       clipPathUnits="userSpaceOnUse"
       id="clipPath16"><path
         d="m 567.48,61.011 -540,0 0,720 540,0 0,-720 z"
         clip-rule="evenodd"
         id="path18" /></clipPath><clipPath
       clipPathUnits="userSpaceOnUse"
       id="clipPath22"><path
         d="m 0,841.98 595.2,0 L 595.2,0 0,0 0,841.98 z"
         id="path24" /></clipPath><clipPath
       clipPathUnits="userSpaceOnUse"
       id="clipPath40"><path
         d="m 310.92,97.011 36.6,0 0,654 -36.6,0 0,-654 z"
         id="path42" /></clipPath><clipPath
       clipPathUnits="userSpaceOnUse"
       id="clipPath56"><path
         d="m 241.02,97.011 53.04,0 0,72.12 -53.04,0 0,-72.12 z"
         id="path58" /></clipPath><clipPath
       clipPathUnits="userSpaceOnUse"
       id="clipPath92"><path
         d="m 177.48,97.011 46.68,0 0,195.48 -46.68,0 0,-195.48 z"
         id="path94" /></clipPath><clipPath
       clipPathUnits="userSpaceOnUse"
       id="clipPath150"><path
         d="m 362.52,471.771 49.5,0 0,93.42 -49.5,0 0,-93.42 z"
         id="path152" /></clipPath><clipPath
       clipPathUnits="userSpaceOnUse"
       id="clipPath164"><path
         d="m 362.52,303.471 49.5,0 0,93.24 -49.5,0 0,-93.24 z"
         id="path166" /></clipPath><clipPath
       clipPathUnits="userSpaceOnUse"
       id="clipPath230"><path
         d="m 177.48,292.731 46.68,0 0,200.88 -46.68,0 0,-200.88 z"
         id="path232" /></clipPath><clipPath
       clipPathUnits="userSpaceOnUse"
       id="clipPath288"><path
         d="m 241.02,646.071 53.04,0 0,104.94 -53.04,0 0,-104.94 z"
         id="path290" /></clipPath><clipPath
       clipPathUnits="userSpaceOnUse"
       id="clipPath316"><path
         d="m 177.48,551.631 46.68,0 0,199.38 -46.68,0 0,-199.38 z"
         id="path318" /></clipPath></defs><sodipodi:namedview
     pagecolor="#ffffff"
     bordercolor="#666666"
     borderopacity="1"
     objecttolerance="10"
     gridtolerance="10"
     guidetolerance="10"
     inkscape:pageopacity="0"
     inkscape:pageshadow="2"
     inkscape:window-width="640"
     inkscape:window-height="480"
     id="namedview4"
     showgrid="false"
     inkscape:zoom="0.31719363"
     inkscape:cx="235.28287"
     inkscape:cy="372.01251"
     inkscape:window-x="0"
     inkscape:window-y="24"
     inkscape:window-maximized="0"
     inkscape:current-layer="g10" /><g
     id="g10"
     inkscape:groupmode="layer"
     inkscape:label="Lesson_13B_Multiprocessors"
     transform="matrix(0,1.25,1.25,0,0,0)"><g
       id="g36"
       transform="matrix(1.6677337,0,0,1.2387851,-196.81452,-101.24751)"><g
         id="g38"
         clip-path="url(#clipPath40)"><path
           d="m 341.64,750.651 -24.9,0 0,-653.28 24.9,0 0,653.28 z m -24.9,0 z"
           style="fill:none;stroke:#000000;stroke-width:1.03699994;stroke-linecap:round;stroke-linejoin:miter;stroke-miterlimit:10;stroke-opacity:1;stroke-dasharray:none"
           id="path44"
           inkscape:connector-curvature="0" /></g></g><text
       transform="matrix(0,0.86185584,1.1602869,0,0,0)"
       id="text46"
       x="436.1759"
       y="313.92621"
       style="font-size:17.24815369px"><tspan
         style="font-size:20.63454056px;font-variant:normal;font-weight:bold;font-stretch:normal;writing-mode:lr-tb;fill:#000000;fill-opacity:1;fill-rule:nonzero;stroke:none;font-family:Arial;-inkscape-font-specification:Arial-BoldMT"
         x="436.1759 449.80295 455.58475 468.22546 480.86618 486.56131 498.06714 503.76227 518.69342 533.62457"
         y="313.92621"
         sodipodi:role="line"
         id="tspan48">Single BUS</tspan></text>
<path
       d="m 214.84888,19.374236 68.94411,0 0,81.611164 -68.94411,0 0,-81.611164 z"
       style="fill:#ffcc9a;fill-opacity:1;fill-rule:nonzero;stroke:none"
       id="path50"
       inkscape:connector-curvature="0" /><g
       id="g52"
       transform="matrix(1.6677337,0,0,1.2387851,-196.81452,-101.24751)"><g
         id="g54"
         clip-path="url(#clipPath56)"><path
           d="m 288.18,163.251 -41.34,0 0,-65.88 41.34,0 0,65.88 z m -41.34,0 z"
           style="fill:none;stroke:#ff0000;stroke-width:1.03699994;stroke-linecap:round;stroke-linejoin:miter;stroke-miterlimit:10;stroke-opacity:1;stroke-dasharray:none"
           id="path60"
           inkscape:connector-curvature="0" /></g></g><text
       transform="matrix(0,0.86185584,1.1602869,0,0,0)"
       id="text62"
       x="37.398605"
       y="209.31618"
       style="font-size:17.24815369px"><tspan
         style="font-size:20.63454056px;font-variant:normal;font-weight:bold;font-stretch:normal;writing-mode:lr-tb;fill:#000000;fill-opacity:1;fill-rule:nonzero;stroke:none;font-family:Arial;-inkscape-font-specification:Arial-BoldMT"
         x="37.398605 51.025654 63.705578 76.385506 89.06543"
         y="209.31618"
         sodipodi:role="line"
         id="tspan64">Snoop</tspan><tspan
         style="font-size:20.63454056px;font-variant:normal;font-weight:bold;font-stretch:normal;writing-mode:lr-tb;fill:#000000;fill-opacity:1;fill-rule:nonzero;stroke:none;font-family:Arial;-inkscape-font-specification:Arial-BoldMT"
         x="51.283588 63.924305 75.430122"
         y="234.15396"
         sodipodi:role="line"
         id="tspan66">Tag</tspan></text>
<path
       d="m 283.79299,253.80193 -68.94411,0 0,-117.43683 68.94411,0 0,117.43683 z m -68.94411,0 z"
       style="fill:none;stroke:#000000;stroke-width:1.49052775;stroke-linecap:round;stroke-linejoin:miter;stroke-miterlimit:10;stroke-opacity:1;stroke-dasharray:none"
       id="path68"
       inkscape:connector-curvature="0" /><text
       transform="matrix(0,0.86185584,1.1602869,0,0,0)"
       id="text70"
       x="173.8315"
       y="209.31618"
       style="font-size:17.24815369px"><tspan
         style="font-size:20.63454056px;font-variant:normal;font-weight:bold;font-stretch:normal;writing-mode:lr-tb;fill:#000000;fill-opacity:1;fill-rule:nonzero;stroke:none;font-family:Arial;-inkscape-font-specification:Arial-BoldMT"
         x="173.8315 188.71312 200.16942 211.62572 224.21692 235.67322 241.455 254.0462 265.5025"
         y="209.31618"
         sodipodi:role="line"
         id="tspan72">Cache Tag</tspan><tspan
         style="font-size:20.63454056px;font-variant:normal;font-weight:bold;font-stretch:normal;writing-mode:lr-tb;fill:#000000;fill-opacity:1;fill-rule:nonzero;stroke:none;font-family:Arial;-inkscape-font-specification:Arial-BoldMT"
         x="182.2834 193.81192 206.47534 219.13875 224.83389 239.78773 251.31625 258.24326"
         y="234.15396"
         sodipodi:role="line"
         id="tspan74">and Data</tspan></text>
<g
       id="g76"
       transform="matrix(1.6677337,0,0,1.2387851,313.21181,60.10549)"><path
         d="M 0,0 -7.08,0"
         style="fill:none;stroke:#ff0000;stroke-width:1.03699994;stroke-linecap:round;stroke-linejoin:round;stroke-miterlimit:10;stroke-opacity:1;stroke-dasharray:none"
         id="path78"
         inkscape:connector-curvature="0" /></g><g
       id="g80"
       transform="matrix(1.6677337,0,0,1.2387851,312.61143,55.348555)"><path
         d="M 0,0 11.28,3.84 0,7.44"
         style="fill:#ff0000;fill-opacity:1;fill-rule:evenodd;stroke:none"
         id="path82"
         inkscape:connector-curvature="0" /></g><g
       id="g84"
       transform="matrix(1.6677337,0,0,1.2387851,302.00464,64.788098)"><path
         d="M 0,0 -11.28,-3.78 0,-7.44"
         style="fill:#ff0000;fill-opacity:1;fill-rule:evenodd;stroke:none"
         id="path86"
         inkscape:connector-curvature="0" /></g><g
       id="g88"
       transform="matrix(1.6677337,0,0,1.2387851,-196.81452,-101.24751)"><g
         id="g90"
         clip-path="url(#clipPath92)"><path
           d="m 218.28,286.611 -41.34,0 0,-189.24 41.34,0 0,189.24 z m -41.34,0 z"
           style="fill:none;stroke:#000000;stroke-width:1.03699994;stroke-linecap:round;stroke-linejoin:miter;stroke-miterlimit:10;stroke-opacity:1;stroke-dasharray:none"
           id="path96"
           inkscape:connector-curvature="0" /></g></g><text
       transform="matrix(0,0.86185584,1.1602869,0,0,0)"
       id="text98"
       x="107.94355"
       y="121.52307"
       style="font-size:17.24815369px"><tspan
         style="font-size:20.63454056px;font-variant:normal;font-weight:bold;font-stretch:normal;writing-mode:lr-tb;fill:#000000;fill-opacity:1;fill-rule:nonzero;stroke:none;font-family:Arial;-inkscape-font-specification:Arial-BoldMT"
         x="107.94355 121.69234 129.70474 142.29799 153.75636 165.21472 176.67308 188.13144 200.72469"
         y="121.52307"
         sodipodi:role="line"
         id="tspan100">Processor</tspan></text>
<g
       id="g102"
       transform="matrix(1.6677337,0,0,1.2387851,196.63722,197.38765)"><path
         d="M 0,0 -6.9,0"
         style="fill:none;stroke:#000000;stroke-width:1.03699994;stroke-linecap:round;stroke-linejoin:round;stroke-miterlimit:10;stroke-opacity:1;stroke-dasharray:none"
         id="path104"
         inkscape:connector-curvature="0" /></g><g
       id="g106"
       transform="matrix(1.6677337,0,0,1.2387851,196.1369,192.70505)"><path
         d="M 0,0 11.22,3.78 0,7.44"
         style="fill:#000000;fill-opacity:1;fill-rule:evenodd;stroke:none"
         id="path108"
         inkscape:connector-curvature="0" /></g><g
       id="g110"
       transform="matrix(1.6677337,0,0,1.2387851,185.73024,202.14459)"><path
         d="M 0,0 -11.28,-3.84 0,-7.44"
         style="fill:#000000;fill-opacity:1;fill-rule:evenodd;stroke:none"
         id="path112"
         inkscape:connector-curvature="0" /></g><g
       id="g114"
       transform="matrix(1.6677337,0,0,1.2387851,402.36886,334.74415)"><path
         d="M 0,0 -7.08,0"
         style="fill:none;stroke:#000000;stroke-width:1.03699994;stroke-linecap:round;stroke-linejoin:round;stroke-miterlimit:10;stroke-opacity:1;stroke-dasharray:none"
         id="path116"
         inkscape:connector-curvature="0" /></g><g
       id="g118"
       transform="matrix(1.6677337,0,0,1.2387851,401.76847,330.06154)"><path
         d="M 0,0 11.22,3.78 0,7.44"
         style="fill:#000000;fill-opacity:1;fill-rule:evenodd;stroke:none"
         id="path120"
         inkscape:connector-curvature="0" /></g><g
       id="g122"
       transform="matrix(1.6677337,0,0,1.2387851,391.06162,339.50108)"><path
         d="M 0,0 -11.22,-3.66 0,-7.44"
         style="fill:#000000;fill-opacity:1;fill-rule:evenodd;stroke:none"
         id="path124"
         inkscape:connector-curvature="0" /></g><g
       id="g126"
       transform="matrix(1.6677337,0,0,1.2387851,402.36886,543.45342)"><path
         d="M 0,0 -7.08,0"
         style="fill:none;stroke:#000000;stroke-width:1.03699994;stroke-linecap:round;stroke-linejoin:round;stroke-miterlimit:10;stroke-opacity:1;stroke-dasharray:none"
         id="path128"
         inkscape:connector-curvature="0" /></g><g
       id="g130"
       transform="matrix(1.6677337,0,0,1.2387851,401.76847,538.77205)"><path
         d="M 0,0 11.22,3.78 0,7.44"
         style="fill:#000000;fill-opacity:1;fill-rule:evenodd;stroke:none"
         id="path132"
         inkscape:connector-curvature="0" /></g><g
       id="g134"
       transform="matrix(1.6677337,0,0,1.2387851,391.06162,548.21159)"><path
         d="M 0,0 -11.22,-3.84 0,-7.44"
         style="fill:#000000;fill-opacity:1;fill-rule:evenodd;stroke:none"
         id="path136"
         inkscape:connector-curvature="0" /></g><text
       transform="matrix(0,0.86185584,1.1602869,0,0,0)"
       id="text138"
       x="624.35327"
       y="262.26801"
       style="font-size:17.24815369px"><tspan
         style="font-size:20.63454056px;font-variant:normal;font-weight:bold;font-stretch:normal;writing-mode:lr-tb;fill:#000000;fill-opacity:1;fill-rule:nonzero;stroke:none;font-family:Arial;-inkscape-font-specification:Arial-BoldMT"
         x="624.35327"
         y="262.26801"
         id="tspan140">…</tspan><tspan
         style="font-size:20.63454056px;font-variant:normal;font-weight:bold;font-stretch:normal;writing-mode:lr-tb;fill:#000000;fill-opacity:1;fill-rule:nonzero;stroke:none;font-family:Arial;-inkscape-font-specification:Arial-BoldMT"
         x="624.35327"
         y="220.95766"
         id="tspan142">…</tspan><tspan
         style="font-size:20.63454056px;font-variant:normal;font-weight:bold;font-stretch:normal;writing-mode:lr-tb;fill:#000000;fill-opacity:1;fill-rule:nonzero;stroke:none;font-family:Arial;-inkscape-font-specification:Arial-BoldMT"
         x="624.35327"
         y="120.57268"
         id="tspan144">…</tspan></text>
<g
       id="g146"
       transform="matrix(1.6677337,0,0,1.2387851,-196.81452,-101.24751)"><g
         id="g148"
         clip-path="url(#clipPath150)"><path
           d="m 411.36,557.63 -41.34,0 0,-78.36 41.34,0 0,78.36 z m -41.34,0 z"
           style="fill:none;stroke:#000000;stroke-width:1.38300002;stroke-linecap:round;stroke-linejoin:miter;stroke-miterlimit:10;stroke-opacity:1;stroke-dasharray:none"
           id="path154"
           inkscape:connector-curvature="0" /></g></g><text
       transform="matrix(0,0.86185584,1.1602869,0,0,0)"
       id="text156"
       x="613.65936"
       y="399.21832"
       style="font-size:17.24815369px"><tspan
         style="font-size:20.63454056px;font-variant:normal;font-weight:bold;font-stretch:normal;writing-mode:lr-tb;fill:#000000;fill-opacity:1;fill-rule:nonzero;stroke:none;font-family:Arial;-inkscape-font-specification:Arial-BoldMT"
         x="613.65936 619.39783 625.13629"
         y="399.21832"
         sodipodi:role="line"
         id="tspan158">I/O</tspan></text>
<g
       id="g160"
       transform="matrix(1.6677337,0,0,1.2387851,-196.81452,-101.24751)"><g
         id="g162"
         clip-path="url(#clipPath164)"><path
           d="m 411.36,389.151 -41.34,0 0,-78.18 41.34,0 0,78.18 z m -41.34,0 z"
           style="fill:none;stroke:#000000;stroke-width:1.38300002;stroke-linecap:round;stroke-linejoin:miter;stroke-miterlimit:10;stroke-opacity:1;stroke-dasharray:none"
           id="path168"
           inkscape:connector-curvature="0" /></g></g><text
       transform="matrix(0,0.86185584,1.1602869,0,0,0)"
       id="text170"
       x="345.88181"
       y="399.21832"
       style="font-size:17.24815369px"><tspan
         style="font-size:20.63454056px;font-variant:normal;font-weight:bold;font-stretch:normal;writing-mode:lr-tb;fill:#000000;fill-opacity:1;fill-rule:nonzero;stroke:none;font-family:Arial;-inkscape-font-specification:Arial-BoldMT"
         x="345.88181 363.0477 374.4978 392.81921 405.40421 413.40836"
         y="399.21832"
         sodipodi:role="line"
         id="tspan172">Memory</tspan></text>
<g
       id="g174"
       transform="matrix(1.6677337,0,0,1.2387851,249.17084,114.28995)"><path
         d="M 0,0 0,6.9"
         style="fill:none;stroke:#ff0000;stroke-width:1.03699994;stroke-linecap:round;stroke-linejoin:round;stroke-miterlimit:10;stroke-opacity:1;stroke-dasharray:none"
         id="path176"
         inkscape:connector-curvature="0" /></g><g
       id="g178"
       transform="matrix(1.6677337,0,0,1.2387851,242.8668,114.73591)"><path
         d="M 0,0 3.78,-11.28 7.44,0"
         style="fill:#ff0000;fill-opacity:1;fill-rule:evenodd;stroke:none"
         id="path180"
         inkscape:connector-curvature="0" /></g><g
       id="g182"
       transform="matrix(1.6677337,0,0,1.2387851,255.47487,122.3916)"><path
         d="M 0,0 -3.78,11.28 -7.38,0"
         style="fill:#ff0000;fill-opacity:1;fill-rule:evenodd;stroke:none"
         id="path184"
         inkscape:connector-curvature="0" /></g><g
       id="g186"
       transform="matrix(1.6677337,0,0,1.2387851,313.21181,197.38765)"><path
         d="M 0,0 -7.08,0"
         style="fill:none;stroke:#000000;stroke-width:1.03699994;stroke-linecap:round;stroke-linejoin:round;stroke-miterlimit:10;stroke-opacity:1;stroke-dasharray:none"
         id="path188"
         inkscape:connector-curvature="0" /></g><g
       id="g190"
       transform="matrix(1.6677337,0,0,1.2387851,312.61143,192.70505)"><path
         d="M 0,0 11.28,3.78 0,7.44"
         style="fill:#000000;fill-opacity:1;fill-rule:evenodd;stroke:none"
         id="path192"
         inkscape:connector-curvature="0" /></g><g
       id="g194"
       transform="matrix(1.6677337,0,0,1.2387851,302.00464,202.14459)"><path
         d="M 0,0 -11.28,-3.84 0,-7.44"
         style="fill:#000000;fill-opacity:1;fill-rule:evenodd;stroke:none"
         id="path196"
         inkscape:connector-curvature="0" /></g><path
       d="m 283.79299,350.42717 -68.94411,0 0,-81.83415 68.94411,0 0,81.83415 z m -68.94411,0 z"
       style="fill:#ffcc9a;fill-opacity:1;fill-rule:evenodd;stroke:#ff0000;stroke-width:1.49052775;stroke-linecap:round;stroke-linejoin:miter;stroke-miterlimit:10;stroke-opacity:1;stroke-dasharray:none"
       id="path198"
       inkscape:connector-curvature="0" /><text
       transform="matrix(0,0.86185584,1.1602869,0,0,0)"
       id="text200"
       x="326.73636"
       y="209.31618"
       style="font-size:17.24815369px"><tspan
         style="font-size:20.63454056px;font-variant:normal;font-weight:bold;font-stretch:normal;writing-mode:lr-tb;fill:#000000;fill-opacity:1;fill-rule:nonzero;stroke:none;font-family:Arial;-inkscape-font-specification:Arial-BoldMT"
         x="326.73636 340.44803 353.12796 365.80786 378.48779"
         y="209.31618"
         sodipodi:role="line"
         id="tspan202">Snoop</tspan><tspan
         style="font-size:20.63454056px;font-variant:normal;font-weight:bold;font-stretch:normal;writing-mode:lr-tb;fill:#000000;fill-opacity:1;fill-rule:nonzero;stroke:none;font-family:Arial;-inkscape-font-specification:Arial-BoldMT"
         x="340.70801 353.38794 364.76788"
         y="234.15396"
         sodipodi:role="line"
         id="tspan204">Tag</tspan></text>
<path
       d="m 283.79299,502.94639 -68.94411,0 0,-117.21385 68.94411,0 0,117.21385 z m -68.94411,0 z"
       style="fill:none;stroke:#000000;stroke-width:1.49052775;stroke-linecap:round;stroke-linejoin:miter;stroke-miterlimit:10;stroke-opacity:1;stroke-dasharray:none"
       id="path206"
       inkscape:connector-curvature="0" /><text
       transform="matrix(0,0.86185584,1.1602869,0,0,0)"
       id="text208"
       x="463.25549"
       y="209.31618"
       style="font-size:17.24815369px"><tspan
         style="font-size:20.63454056px;font-variant:normal;font-weight:bold;font-stretch:normal;writing-mode:lr-tb;fill:#000000;fill-opacity:1;fill-rule:nonzero;stroke:none;font-family:Arial;-inkscape-font-specification:Arial-BoldMT"
         x="463.25549 478.16394 489.64706 501.02701 513.70697 525.19006 530.88519 543.50323 554.98633"
         y="209.31618"
         sodipodi:role="line"
         id="tspan210">Cache Tag</tspan><tspan
         style="font-size:20.63454056px;font-variant:normal;font-weight:bold;font-stretch:normal;writing-mode:lr-tb;fill:#000000;fill-opacity:1;fill-rule:nonzero;stroke:none;font-family:Arial;-inkscape-font-specification:Arial-BoldMT"
         x="471.7074 483.2153 495.85806 508.50085 514.19598 529.12921 540.63708 547.54346"
         y="234.15396"
         sodipodi:role="line"
         id="tspan212">and Data</tspan></text>
<g
       id="g214"
       transform="matrix(1.6677337,0,0,1.2387851,313.21181,309.24995)"><path
         d="M 0,0 -7.08,0"
         style="fill:none;stroke:#ff0000;stroke-width:1.03699994;stroke-linecap:round;stroke-linejoin:round;stroke-miterlimit:10;stroke-opacity:1;stroke-dasharray:none"
         id="path216"
         inkscape:connector-curvature="0" /></g><g
       id="g218"
       transform="matrix(1.6677337,0,0,1.2387851,312.61143,304.56734)"><path
         d="M 0,0 11.28,3.78 0,7.44"
         style="fill:#ff0000;fill-opacity:1;fill-rule:evenodd;stroke:none"
         id="path220"
         inkscape:connector-curvature="0" /></g><g
       id="g222"
       transform="matrix(1.6677337,0,0,1.2387851,302.00464,314.00688)"><path
         d="M 0,0 -11.28,-3.66 0,-7.44"
         style="fill:#ff0000;fill-opacity:1;fill-rule:evenodd;stroke:none"
         id="path224"
         inkscape:connector-curvature="0" /></g><g
       id="g226"
       transform="matrix(1.6677337,0,0,1.2387851,-196.81452,-101.24751)"><g
         id="g228"
         clip-path="url(#clipPath230)"><path
           d="m 218.28,487.731 -41.34,0 0,-189.18 41.34,0 0,189.18 z m -41.34,0 z"
           style="fill:none;stroke:#000000;stroke-width:1.03699994;stroke-linecap:round;stroke-linejoin:miter;stroke-miterlimit:10;stroke-opacity:1;stroke-dasharray:none"
           id="path234"
           inkscape:connector-curvature="0" /></g></g><text
       transform="matrix(0,0.86185584,1.1602869,0,0,0)"
       id="text236"
       x="397.36755"
       y="121.52307"
       style="font-size:17.24815369px"><tspan
         style="font-size:20.63454056px;font-variant:normal;font-weight:bold;font-stretch:normal;writing-mode:lr-tb;fill:#000000;fill-opacity:1;fill-rule:nonzero;stroke:none;font-family:Arial;-inkscape-font-specification:Arial-BoldMT"
         x="397.36755 411.05856 419.01318 431.69312 443.15973 454.5603 465.96088 477.36148 490.04141"
         y="121.52307"
         sodipodi:role="line"
         id="tspan238">Processor</tspan></text>
<g
       id="g240"
       transform="matrix(1.6677337,0,0,1.2387851,196.63722,446.82942)"><path
         d="M 0,0 -6.9,0"
         style="fill:none;stroke:#000000;stroke-width:1.03699994;stroke-linecap:round;stroke-linejoin:round;stroke-miterlimit:10;stroke-opacity:1;stroke-dasharray:none"
         id="path242"
         inkscape:connector-curvature="0" /></g><g
       id="g244"
       transform="matrix(1.6677337,0,0,1.2387851,196.1369,442.14681)"><path
         d="M 0,0 11.22,3.78 0,7.44"
         style="fill:#000000;fill-opacity:1;fill-rule:evenodd;stroke:none"
         id="path246"
         inkscape:connector-curvature="0" /></g><g
       id="g248"
       transform="matrix(1.6677337,0,0,1.2387851,185.73024,451.51203)"><path
         d="M 0,0 -11.28,-3.78 0,-7.38"
         style="fill:#000000;fill-opacity:1;fill-rule:evenodd;stroke:none"
         id="path250"
         inkscape:connector-curvature="0" /></g><g
       id="g252"
       transform="matrix(1.6677337,0,0,1.2387851,249.17084,363.50874)"><path
         d="M 0,0 0,7.08"
         style="fill:none;stroke:#ff0000;stroke-width:1.03699994;stroke-linecap:round;stroke-linejoin:round;stroke-miterlimit:10;stroke-opacity:1;stroke-dasharray:none"
         id="path254"
         inkscape:connector-curvature="0" /></g><g
       id="g256"
       transform="matrix(1.6677337,0,0,1.2387851,242.8668,363.88037)"><path
         d="M 0,0 3.78,-11.22 7.44,0"
         style="fill:#ff0000;fill-opacity:1;fill-rule:evenodd;stroke:none"
         id="path258"
         inkscape:connector-curvature="0" /></g><g
       id="g260"
       transform="matrix(1.6677337,0,0,1.2387851,255.47487,371.83337)"><path
         d="M 0,0 -3.78,11.22 -7.38,0"
         style="fill:#ff0000;fill-opacity:1;fill-rule:evenodd;stroke:none"
         id="path262"
         inkscape:connector-curvature="0" /></g><g
       id="g264"
       transform="matrix(1.6677337,0,0,1.2387851,313.21181,446.82942)"><path
         d="M 0,0 -7.08,0"
         style="fill:none;stroke:#000000;stroke-width:1.03699994;stroke-linecap:round;stroke-linejoin:round;stroke-miterlimit:10;stroke-opacity:1;stroke-dasharray:none"
         id="path266"
         inkscape:connector-curvature="0" /></g><g
       id="g268"
       transform="matrix(1.6677337,0,0,1.2387851,312.61143,442.14681)"><path
         d="M 0,0 11.28,3.78 0,7.44"
         style="fill:#000000;fill-opacity:1;fill-rule:evenodd;stroke:none"
         id="path270"
         inkscape:connector-curvature="0" /></g><g
       id="g272"
       transform="matrix(1.6677337,0,0,1.2387851,302.00464,451.51203)"><path
         d="M 0,0 -11.28,-3.78 0,-7.38"
         style="fill:#000000;fill-opacity:1;fill-rule:evenodd;stroke:none"
         id="path274"
         inkscape:connector-curvature="0" /></g><path
       d="m 283.79299,670.92565 -68.94411,0 0,-81.61117 68.94411,0 0,81.61117 z m -68.94411,0 z"
       style="fill:#ffcc9a;fill-opacity:1;fill-rule:evenodd;stroke:#ff0000;stroke-width:1.49052775;stroke-linecap:round;stroke-linejoin:miter;stroke-miterlimit:10;stroke-opacity:1;stroke-dasharray:none"
       id="path276"
       inkscape:connector-curvature="0" /><text
       transform="matrix(0,0.86185584,1.1602869,0,0,0)"
       id="text278"
       x="698.69281"
       y="209.31618"
       style="font-size:17.24815369px"><tspan
         style="font-size:20.63454056px;font-variant:normal;font-weight:bold;font-stretch:normal;writing-mode:lr-tb;fill:#000000;fill-opacity:1;fill-rule:nonzero;stroke:none;font-family:Arial;-inkscape-font-specification:Arial-BoldMT"
         x="698.69281 712.40442 725.08435 737.76428 750.44421"
         y="209.31618"
         sodipodi:role="line"
         id="tspan280">Snoop</tspan><tspan
         style="font-size:20.63454056px;font-variant:normal;font-weight:bold;font-stretch:normal;writing-mode:lr-tb;fill:#000000;fill-opacity:1;fill-rule:nonzero;stroke:none;font-family:Arial;-inkscape-font-specification:Arial-BoldMT"
         x="712.66443 725.34436 736.7243"
         y="234.15396"
         sodipodi:role="line"
         id="tspan282">Tag</tspan></text>
<g
       id="g284"
       transform="matrix(1.6677337,0,0,1.2387851,-196.81452,-101.24751)"><g
         id="g286"
         clip-path="url(#clipPath288)"><path
           d="m 288.18,746.691 -41.34,0 0,-94.8 41.34,0 0,94.8 z m -41.34,0 z"
           style="fill:none;stroke:#000000;stroke-width:1.03699994;stroke-linecap:round;stroke-linejoin:miter;stroke-miterlimit:10;stroke-opacity:1;stroke-dasharray:none"
           id="path292"
           inkscape:connector-curvature="0" /></g></g><text
       transform="matrix(0,0.86185584,1.1602869,0,0,0)"
       id="text294"
       x="835.21191"
       y="209.31618"
       style="font-size:17.24815369px"><tspan
         style="font-size:20.63454056px;font-variant:normal;font-weight:bold;font-stretch:normal;writing-mode:lr-tb;fill:#000000;fill-opacity:1;fill-rule:nonzero;stroke:none;font-family:Arial;-inkscape-font-specification:Arial-BoldMT"
         x="835.21191 850.11621 861.59521 873.07422 885.68811 897.16711 902.86224 915.47614 926.95514"
         y="209.31618"
         sodipodi:role="line"
         id="tspan296">Cache Tag</tspan><tspan
         style="font-size:20.63454056px;font-variant:normal;font-weight:bold;font-stretch:normal;writing-mode:lr-tb;fill:#000000;fill-opacity:1;fill-rule:nonzero;stroke:none;font-family:Arial;-inkscape-font-specification:Arial-BoldMT"
         x="843.66382 855.04376 867.71954 880.39539 886.17719 901.14337 912.52332 919.46271"
         y="234.15396"
         sodipodi:role="line"
         id="tspan298">and Data</tspan></text>
<g
       id="g300"
       transform="matrix(1.6677337,0,0,1.2387851,313.21181,630.04574)"><path
         d="M 0,0 -7.08,0"
         style="fill:none;stroke:#ff0000;stroke-width:1.03699994;stroke-linecap:round;stroke-linejoin:round;stroke-miterlimit:10;stroke-opacity:1;stroke-dasharray:none"
         id="path302"
         inkscape:connector-curvature="0" /></g><g
       id="g304"
       transform="matrix(1.6677337,0,0,1.2387851,312.61143,625.28756)"><path
         d="M 0,0 11.28,3.84 0,7.44"
         style="fill:#ff0000;fill-opacity:1;fill-rule:evenodd;stroke:none"
         id="path306"
         inkscape:connector-curvature="0" /></g><g
       id="g308"
       transform="matrix(1.6677337,0,0,1.2387851,302.00464,634.72711)"><path
         d="M 0,0 -11.28,-3.78 0,-7.44"
         style="fill:#ff0000;fill-opacity:1;fill-rule:evenodd;stroke:none"
         id="path310"
         inkscape:connector-curvature="0" /></g><g
       id="g312"
       transform="matrix(1.6677337,0,0,1.2387851,-196.81452,-101.24751)"><g
         id="g314"
         clip-path="url(#clipPath316)"><path
           d="m 218.28,746.691 -41.34,0 0,-189.24 41.34,0 0,189.24 z m -41.34,0 z"
           style="fill:none;stroke:#000000;stroke-width:1.03699994;stroke-linecap:round;stroke-linejoin:miter;stroke-miterlimit:10;stroke-opacity:1;stroke-dasharray:none"
           id="path320"
           inkscape:connector-curvature="0" /></g></g><text
       transform="matrix(0,0.86185584,1.1602869,0,0,0)"
       id="text322"
       x="769.32397"
       y="121.52307"
       style="font-size:17.24815369px"><tspan
         style="font-size:20.63454056px;font-variant:normal;font-weight:bold;font-stretch:normal;writing-mode:lr-tb;fill:#000000;fill-opacity:1;fill-rule:nonzero;stroke:none;font-family:Arial;-inkscape-font-specification:Arial-BoldMT"
         x="769.32397 782.95099 790.96753 803.61444 814.99438 826.50641 838.01843 849.39838 862.04529"
         y="121.52307"
         sodipodi:role="line"
         id="tspan324">Processor</tspan></text>
<g
       id="g326"
       transform="matrix(1.6677337,0,0,1.2387851,196.63722,767.40223)"><path
         d="M 0,0 -6.9,0"
         style="fill:none;stroke:#000000;stroke-width:1.03699994;stroke-linecap:round;stroke-linejoin:round;stroke-miterlimit:10;stroke-opacity:1;stroke-dasharray:none"
         id="path328"
         inkscape:connector-curvature="0" /></g><g
       id="g330"
       transform="matrix(1.6677337,0,0,1.2387851,196.1369,762.64406)"><path
         d="M 0,0 11.22,3.84 0,7.44"
         style="fill:#000000;fill-opacity:1;fill-rule:evenodd;stroke:none"
         id="path332"
         inkscape:connector-curvature="0" /></g><g
       id="g334"
       transform="matrix(1.6677337,0,0,1.2387851,185.73024,772.0836)"><path
         d="M 0,0 -11.28,-3.78 0,-7.44"
         style="fill:#000000;fill-opacity:1;fill-rule:evenodd;stroke:none"
         id="path336"
         inkscape:connector-curvature="0" /></g><g
       id="g338"
       transform="matrix(1.6677337,0,0,1.2387851,249.17084,684.22896)"><path
         d="M 0,0 0,6.96"
         style="fill:none;stroke:#ff0000;stroke-width:1.03699994;stroke-linecap:round;stroke-linejoin:round;stroke-miterlimit:10;stroke-opacity:1;stroke-dasharray:none"
         id="path340"
         inkscape:connector-curvature="0" /></g><g
       id="g342"
       transform="matrix(1.6677337,0,0,1.2387851,242.8668,684.67616)"><path
         d="M 0,0 3.78,-11.22 7.44,0"
         style="fill:#ff0000;fill-opacity:1;fill-rule:evenodd;stroke:none"
         id="path344"
         inkscape:connector-curvature="0" /></g><g
       id="g346"
       transform="matrix(1.6677337,0,0,1.2387851,255.47487,692.40618)"><path
         d="M 0,0 -3.78,11.22 -7.38,0"
         style="fill:#ff0000;fill-opacity:1;fill-rule:evenodd;stroke:none"
         id="path348"
         inkscape:connector-curvature="0" /></g><g
       id="g350"
       transform="matrix(1.6677337,0,0,1.2387851,313.21181,767.40223)"><path
         d="M 0,0 -7.08,0"
         style="fill:none;stroke:#000000;stroke-width:1.03699994;stroke-linecap:round;stroke-linejoin:round;stroke-miterlimit:10;stroke-opacity:1;stroke-dasharray:none"
         id="path352"
         inkscape:connector-curvature="0" /></g><g
       id="g354"
       transform="matrix(1.6677337,0,0,1.2387851,312.61143,762.64406)"><path
         d="M 0,0 11.28,3.84 0,7.44"
         style="fill:#000000;fill-opacity:1;fill-rule:evenodd;stroke:none"
         id="path356"
         inkscape:connector-curvature="0" /></g><g
       id="g358"
       transform="matrix(1.6677337,0,0,1.2387851,302.00464,772.0836)"><path
         d="M 0,0 -11.28,-3.78 0,-7.44"
         style="fill:#000000;fill-opacity:1;fill-rule:evenodd;stroke:none"
         id="path360"
         inkscape:connector-curvature="0" /></g></g></svg>