<?xml version="1.0" encoding="UTF-8" standalone="no"?>
<!-- Created with Inkscape (http://www.inkscape.org/) -->

<svg
   xmlns:dc="http://purl.org/dc/elements/1.1/"
   xmlns:cc="http://creativecommons.org/ns#"
   xmlns:rdf="http://www.w3.org/1999/02/22-rdf-syntax-ns#"
   xmlns:svg="http://www.w3.org/2000/svg"
   xmlns="http://www.w3.org/2000/svg"
   xmlns:sodipodi="http://sodipodi.sourceforge.net/DTD/sodipodi-0.dtd"
   xmlns:inkscape="http://www.inkscape.org/namespaces/inkscape"
   id="svg2"
   version="1.1"
   inkscape:version="0.48.3.1 r9886"
   width="1052.5"
   height="744.025"
   xml:space="preserve"
   sodipodi:docname="Lesson_13A_Multiprocessors.pdf"><metadata
     id="metadata8"><rdf:RDF><cc:Work
         rdf:about=""><dc:format>image/svg+xml</dc:format><dc:type
           rdf:resource="http://purl.org/dc/dcmitype/StillImage" /><dc:title></dc:title></cc:Work></rdf:RDF></metadata><defs
     id="defs6"><clipPath
       clipPathUnits="userSpaceOnUse"
       id="clipPath16"><path
         d="m 567.48,61.011 -540,0 0,720 540,0 0,-720 z"
         clip-rule="evenodd"
         id="path18" /></clipPath><clipPath
       clipPathUnits="userSpaceOnUse"
       id="clipPath22"><path
         d="m 0,841.98 595.2,0 L 595.2,0 0,0 0,841.98 z"
         id="path24" /></clipPath><clipPath
       clipPathUnits="userSpaceOnUse"
       id="clipPath48"><path
         d="m 503.76,103.011 -116.28,0 0,633.78 116.28,0 0,-633.78 z"
         clip-rule="evenodd"
         id="path50" /></clipPath><clipPath
       clipPathUnits="userSpaceOnUse"
       id="clipPath54"><path
         d="m 0,841.98 595.2,0 L 595.2,0 0,0 0,841.98 z"
         id="path56" /></clipPath><clipPath
       clipPathUnits="userSpaceOnUse"
       id="clipPath68"><path
         d="m 503.76,103.011 -116.28,0 0,633.78 116.28,0 0,-633.78 z"
         clip-rule="evenodd"
         id="path70" /></clipPath><clipPath
       clipPathUnits="userSpaceOnUse"
       id="clipPath74"><path
         d="m 0,841.98 595.2,0 L 595.2,0 0,0 0,841.98 z"
         id="path76" /></clipPath><clipPath
       clipPathUnits="userSpaceOnUse"
       id="clipPath88"><path
         d="m 503.76,103.011 -116.28,0 0,633.78 116.28,0 0,-633.78 z"
         clip-rule="evenodd"
         id="path90" /></clipPath><clipPath
       clipPathUnits="userSpaceOnUse"
       id="clipPath94"><path
         d="m 0,841.98 595.2,0 L 595.2,0 0,0 0,841.98 z"
         id="path96" /></clipPath><clipPath
       clipPathUnits="userSpaceOnUse"
       id="clipPath108"><path
         d="m 503.76,103.011 -116.28,0 0,633.78 116.28,0 0,-633.78 z"
         clip-rule="evenodd"
         id="path110" /></clipPath><clipPath
       clipPathUnits="userSpaceOnUse"
       id="clipPath114"><path
         d="m 0,841.98 595.2,0 L 595.2,0 0,0 0,841.98 z"
         id="path116" /></clipPath><clipPath
       clipPathUnits="userSpaceOnUse"
       id="clipPath128"><path
         d="m 503.76,103.011 -116.28,0 0,633.78 116.28,0 0,-633.78 z"
         clip-rule="evenodd"
         id="path130" /></clipPath><clipPath
       clipPathUnits="userSpaceOnUse"
       id="clipPath134"><path
         d="m 0,841.98 595.2,0 L 595.2,0 0,0 0,841.98 z"
         id="path136" /></clipPath><clipPath
       clipPathUnits="userSpaceOnUse"
       id="clipPath148"><path
         d="m 503.76,103.011 -116.28,0 0,633.78 116.28,0 0,-633.78 z"
         clip-rule="evenodd"
         id="path150" /></clipPath><clipPath
       clipPathUnits="userSpaceOnUse"
       id="clipPath154"><path
         d="m 0,841.98 595.2,0 L 595.2,0 0,0 0,841.98 z"
         id="path156" /></clipPath><clipPath
       clipPathUnits="userSpaceOnUse"
       id="clipPath168"><path
         d="m 503.76,103.011 -116.28,0 0,633.78 116.28,0 0,-633.78 z"
         clip-rule="evenodd"
         id="path170" /></clipPath><clipPath
       clipPathUnits="userSpaceOnUse"
       id="clipPath174"><path
         d="m 0,841.98 595.2,0 L 595.2,0 0,0 0,841.98 z"
         id="path176" /></clipPath><clipPath
       clipPathUnits="userSpaceOnUse"
       id="clipPath210"><path
         d="m 215.52,545.151 32.1,0 0,33.9 -32.1,0 0,-33.9 z"
         id="path212" /></clipPath><clipPath
       clipPathUnits="userSpaceOnUse"
       id="clipPath226"><path
         d="m 215.52,637.611 32.1,0 0,33.9 -32.1,0 0,-33.9 z"
         id="path228" /></clipPath><clipPath
       clipPathUnits="userSpaceOnUse"
       id="clipPath242"><path
         d="m 215.52,360.051 32.1,0 0,33.9 -32.1,0 0,-33.9 z"
         id="path244" /></clipPath><clipPath
       clipPathUnits="userSpaceOnUse"
       id="clipPath258"><path
         d="m 215.52,452.511 32.1,0 0,33.9 -32.1,0 0,-33.9 z"
         id="path260" /></clipPath><clipPath
       clipPathUnits="userSpaceOnUse"
       id="clipPath274"><path
         d="m 215.52,174.951 32.1,0 0,33.9 -32.1,0 0,-33.9 z"
         id="path276" /></clipPath><clipPath
       clipPathUnits="userSpaceOnUse"
       id="clipPath290"><path
         d="m 215.52,267.411 32.1,0 0,33.9 -32.1,0 0,-33.9 z"
         id="path292" /></clipPath></defs><sodipodi:namedview
     pagecolor="#ffffff"
     bordercolor="#666666"
     borderopacity="1"
     objecttolerance="10"
     gridtolerance="10"
     guidetolerance="10"
     inkscape:pageopacity="0"
     inkscape:pageshadow="2"
     inkscape:window-width="640"
     inkscape:window-height="480"
     id="namedview4"
     showgrid="false"
     inkscape:zoom="0.31719363"
     inkscape:cx="526.25"
     inkscape:cy="372.01251"
     inkscape:window-x="356"
     inkscape:window-y="119"
     inkscape:window-maximized="0"
     inkscape:current-layer="g10" /><g
     id="g10"
     inkscape:groupmode="layer"
     inkscape:label="Lesson_13A_Multiprocessors"
     transform="matrix(0,1.25,1.25,0,0,0)"><g
       id="g206"
       transform="matrix(1.8424687,0,0,1.2377502,-97.638856,-95.336185)"><g
         id="g208"
         clip-path="url(#clipPath210)"><path
           d="m 215.52,545.151 32.1,0 0,33.84 -32.1,0 0,-33.84 z"
           style="fill:#000000;fill-opacity:1;fill-rule:nonzero;stroke:none"
           id="path214"
           inkscape:connector-curvature="0" /></g></g><g
       id="g216"
       transform="matrix(0,1.2535934,1.8191983,0,-97.638856,-95.336185)"><g
         id="g218"
         transform="translate(554.855,176.711)"><path
           d="M 0,0 0.178,41.565"
           style="fill:none;stroke:#000000;stroke-width:2.27099991;stroke-linecap:round;stroke-linejoin:round;stroke-miterlimit:10;stroke-opacity:1;stroke-dasharray:none"
           id="path220"
           inkscape:connector-curvature="0" /></g></g><g
       id="g222"
       transform="matrix(1.8424687,0,0,1.2377502,-97.638856,-95.336185)"><g
         id="g224"
         clip-path="url(#clipPath226)"><path
           d="m 215.52,637.611 32.1,0 0,33.84 -32.1,0 0,-33.84 z"
           style="fill:#000000;fill-opacity:1;fill-rule:nonzero;stroke:none"
           id="path230"
           inkscape:connector-curvature="0" /></g></g><g
       id="g232"
       transform="matrix(0,1.2535934,1.8191983,0,-97.638856,-95.336185)"><g
         id="g234"
         transform="translate(646.148,176.711)"><path
           d="M 0,0 0.178,41.565"
           style="fill:none;stroke:#000000;stroke-width:2.27099991;stroke-linecap:round;stroke-linejoin:round;stroke-miterlimit:10;stroke-opacity:1;stroke-dasharray:none"
           id="path236"
           inkscape:connector-curvature="0" /></g></g><g
       id="g238"
       transform="matrix(1.8424687,0,0,1.2377502,-97.638856,-95.336185)"><g
         id="g240"
         clip-path="url(#clipPath242)"><path
           d="m 215.52,360.051 32.1,0 0,33.84 -32.1,0 0,-33.84 z"
           style="fill:#000000;fill-opacity:1;fill-rule:nonzero;stroke:none"
           id="path246"
           inkscape:connector-curvature="0" /></g></g><g
       id="g248"
       transform="matrix(0,1.2535934,1.8191983,0,-97.638856,-95.336185)"><g
         id="g250"
         transform="translate(372.152,176.711)"><path
           d="M 0,0 0.178,41.565"
           style="fill:none;stroke:#000000;stroke-width:2.27099991;stroke-linecap:round;stroke-linejoin:round;stroke-miterlimit:10;stroke-opacity:1;stroke-dasharray:none"
           id="path252"
           inkscape:connector-curvature="0" /></g></g><g
       id="g254"
       transform="matrix(1.8424687,0,0,1.2377502,-97.638856,-95.336185)"><g
         id="g256"
         clip-path="url(#clipPath258)"><path
           d="m 215.52,452.511 32.1,0 0,33.84 -32.1,0 0,-33.84 z"
           style="fill:#000000;fill-opacity:1;fill-rule:nonzero;stroke:none"
           id="path262"
           inkscape:connector-curvature="0" /></g></g><g
       id="g264"
       transform="matrix(0,1.2535934,1.8191983,0,-97.638856,-95.336185)"><g
         id="g266"
         transform="translate(463.385,176.711)"><path
           d="M 0,0 0.178,41.565"
           style="fill:none;stroke:#000000;stroke-width:2.27099991;stroke-linecap:round;stroke-linejoin:round;stroke-miterlimit:10;stroke-opacity:1;stroke-dasharray:none"
           id="path268"
           inkscape:connector-curvature="0" /></g></g><g
       id="g270"
       transform="matrix(1.8424687,0,0,1.2377502,-97.638856,-95.336185)"><g
         id="g272"
         clip-path="url(#clipPath274)"><path
           d="m 215.52,174.951 32.1,0 0,33.84 -32.1,0 0,-33.84 z"
           style="fill:#000000;fill-opacity:1;fill-rule:nonzero;stroke:none"
           id="path278"
           inkscape:connector-curvature="0" /></g></g><g
       id="g280"
       transform="matrix(0,1.2535934,1.8191983,0,-97.638856,-95.336185)"><g
         id="g282"
         transform="translate(189.389,176.711)"><path
           d="M 0,0 0.178,41.565"
           style="fill:none;stroke:#000000;stroke-width:2.27099991;stroke-linecap:round;stroke-linejoin:round;stroke-miterlimit:10;stroke-opacity:1;stroke-dasharray:none"
           id="path284"
           inkscape:connector-curvature="0" /></g></g><g
       id="g286"
       transform="matrix(1.8424687,0,0,1.2377502,-97.638856,-95.336185)"><g
         id="g288"
         clip-path="url(#clipPath290)"><path
           d="m 215.52,267.411 32.1,0 0,33.84 -32.1,0 0,-33.84 z"
           style="fill:#000000;fill-opacity:1;fill-rule:nonzero;stroke:none"
           id="path294"
           inkscape:connector-curvature="0" /></g></g><g
       id="g296"
       transform="matrix(0,1.2535934,1.8191983,0,-97.638856,-95.336185)"><g
         id="g298"
         transform="translate(280.681,176.711)"><path
           d="M 0,0 0.178,41.565"
           style="fill:none;stroke:#000000;stroke-width:2.27099991;stroke-linecap:round;stroke-linejoin:round;stroke-miterlimit:10;stroke-opacity:1;stroke-dasharray:none"
           id="path300"
           inkscape:connector-curvature="0" /></g></g><g
       id="g302"
       transform="matrix(0,1.2535934,1.8191983,0,-97.638856,-95.336185)"><g
         id="g304"
         transform="translate(96.852,179.142)"><path
           d="M 0,0 629.569,0"
           style="fill:none;stroke:#000000;stroke-width:8.73499966;stroke-linecap:round;stroke-linejoin:round;stroke-miterlimit:10;stroke-opacity:1;stroke-dasharray:none"
           id="path306"
           inkscape:connector-curvature="0" /></g></g></g></svg>