<?xml version="1.0" encoding="UTF-8" standalone="no"?>
<!-- Created with Inkscape (http://www.inkscape.org/) -->

<svg
   xmlns:dc="http://purl.org/dc/elements/1.1/"
   xmlns:cc="http://creativecommons.org/ns#"
   xmlns:rdf="http://www.w3.org/1999/02/22-rdf-syntax-ns#"
   xmlns:svg="http://www.w3.org/2000/svg"
   xmlns="http://www.w3.org/2000/svg"
   xmlns:sodipodi="http://sodipodi.sourceforge.net/DTD/sodipodi-0.dtd"
   xmlns:inkscape="http://www.inkscape.org/namespaces/inkscape"
   id="svg2"
   version="1.1"
   inkscape:version="0.48.3.1 r9886"
   width="1052.5"
   height="744.025"
   xml:space="preserve"
   sodipodi:docname="Lesson_13A_Multiprocessors.pdf"><metadata
     id="metadata8"><rdf:RDF><cc:Work
         rdf:about=""><dc:format>image/svg+xml</dc:format><dc:type
           rdf:resource="http://purl.org/dc/dcmitype/StillImage" /><dc:title></dc:title></cc:Work></rdf:RDF></metadata><defs
     id="defs6"><clipPath
       clipPathUnits="userSpaceOnUse"
       id="clipPath16"><path
         d="m 567.48,61.011 -540,0 0,720 540,0 0,-720 z"
         clip-rule="evenodd"
         id="path18" /></clipPath><clipPath
       clipPathUnits="userSpaceOnUse"
       id="clipPath22"><path
         d="m 0,841.98 595.2,0 L 595.2,0 0,0 0,841.98 z"
         id="path24" /></clipPath></defs><sodipodi:namedview
     pagecolor="#ffffff"
     bordercolor="#666666"
     borderopacity="1"
     objecttolerance="10"
     gridtolerance="10"
     guidetolerance="10"
     inkscape:pageopacity="0"
     inkscape:pageshadow="2"
     inkscape:window-width="1366"
     inkscape:window-height="692"
     id="namedview4"
     showgrid="false"
     inkscape:zoom="0.31719363"
     inkscape:cx="526.25"
     inkscape:cy="372.01251"
     inkscape:window-x="0"
     inkscape:window-y="24"
     inkscape:window-maximized="1"
     inkscape:current-layer="g10" /><g
     id="g10"
     inkscape:groupmode="layer"
     inkscape:label="Lesson_13A_Multiprocessors"
     transform="matrix(0,1.25,1.25,0,0,0)"><text
       transform="matrix(0,0.95933291,1.042391,0,0,0)"
       id="text40"
       x="51.254429"
       y="105.88268"
       style="font-size:15.65322971px"><tspan
         style="font-size:31.30645943px;font-variant:normal;font-weight:normal;font-stretch:normal;writing-mode:lr-tb;fill:#00009a;fill-opacity:1;fill-rule:nonzero;stroke:none;font-family:Tahoma;-inkscape-font-specification:Tahoma"
         x="51.254429 68.688995 75.855026 93.320908 110.63024 117.7963 134.26038 144.05928 151.22534 168.2216 185.53094 192.69701 207.12614 223.55888 230.72493 237.89098 253.47847 263.59048 277.55005 295.0159 311.44864 322.71585 339.17996 356.48929"
         y="105.88268"
         sodipodi:role="line"
         id="tspan42">Single logically shared </tspan><tspan
         style="font-size:31.30645943px;font-variant:normal;font-weight:normal;font-stretch:normal;writing-mode:lr-tb;fill:#00009a;fill-opacity:1;fill-rule:nonzero;stroke:none;font-family:Tahoma;-inkscape-font-specification:Tahoma"
         x="51.254429 67.705948 85.034081 102.36221 113.64819 130.13104 144.10938 158.08774 167.88663 181.86496 199.19308 215.64461 230.09254"
         y="143.45041"
         sodipodi:role="line"
         id="tspan44">address space</tspan></text>
<text
       transform="matrix(0,0.95933291,1.042391,0,0,0)"
       id="text50"
       x="570.96014"
       y="101.26219"
       style="font-size:15.65322971px"><tspan
         style="font-size:31.30645943px;font-variant:normal;font-weight:normal;font-stretch:normal;writing-mode:lr-tb;fill:#00009a;fill-opacity:1;fill-rule:nonzero;stroke:none;font-family:Tahoma;-inkscape-font-specification:Tahoma"
         x="570.96014 595.09735 612.56641 619.73553 630.19202 637.36115 654.67365 661.84277 678.31 688.14642 704.58228 722.05133 739.36377 749.20032 766.51276 777.78308 784.95233 800.54285 816.97876 827.43518 843.90228"
         y="101.26219"
         sodipodi:role="line"
         id="tspan52">Multiple and private </tspan><tspan
         style="font-size:31.30645943px;font-variant:normal;font-weight:normal;font-stretch:normal;writing-mode:lr-tb;fill:#00009a;fill-opacity:1;fill-rule:nonzero;stroke:none;font-family:Tahoma;-inkscape-font-specification:Tahoma"
         x="570.96014 587.41479 604.74609 622.07733 633.36646 649.85242 663.83386 677.81531 687.6142 701.5957 718.92694 735.38159 749.8327 766.3186"
         y="138.82994"
         sodipodi:role="line"
         id="tspan54">address spaces</tspan></text>
<text
       transform="matrix(0,1.0609662,0.94253711,0,0,0)"
       id="text56"
       x="304.15778"
       y="400.28302"
       style="font-size:14.1537571px"><tspan
         style="font-size:18.565485px;font-variant:normal;font-weight:bold;font-stretch:normal;writing-mode:lr-tb;fill:#000000;fill-opacity:1;fill-rule:nonzero;stroke:none;font-family:Arial;-inkscape-font-specification:Arial-BoldMT"
         x="304.15778 316.50568 326.79279 331.91873 337.06506 349.41296 359.7001 364.82605 369.97241 382.32031 392.60745 397.73334 402.87973 415.22763"
         y="400.28302"
         sodipodi:role="line"
         id="tspan58">P0, P1, P2, P3</tspan></text>
<path
       d="m 375.51891,274.1953 -61.67745,0 0,-107.51928 61.67745,0 0,107.51928 z m -61.67745,0 z"
       style="fill:#00ff00;fill-opacity:1;fill-rule:evenodd;stroke:#000000;stroke-width:1.48444796;stroke-linecap:round;stroke-linejoin:miter;stroke-miterlimit:10;stroke-opacity:1;stroke-dasharray:none"
       id="path60"
       inkscape:connector-curvature="0" /><text
       transform="matrix(0,0.95933291,1.042391,0,0,0)"
       id="text62"
       x="206.61272"
       y="336.92435"
       style="font-size:15.65322971px"><tspan
         style="font-size:20.53234291px;font-variant:normal;font-weight:bold;font-stretch:normal;writing-mode:lr-tb;fill:#000000;fill-opacity:1;fill-rule:nonzero;stroke:none;font-family:Arial;-inkscape-font-specification:Arial-BoldMT"
         x="206.61272 223.7141 240.81548"
         y="336.92435"
         sodipodi:role="line"
         id="tspan64">MM1</tspan></text>
<path
       d="m 312.53611,274.1953 -61.59586,0 0,-107.51928 61.59586,0 0,107.51928 z m -61.59586,0 z"
       style="fill:#ffff00;fill-opacity:1;fill-rule:evenodd;stroke:#000000;stroke-width:1.48444796;stroke-linecap:round;stroke-linejoin:miter;stroke-miterlimit:10;stroke-opacity:1;stroke-dasharray:none"
       id="path66"
       inkscape:connector-curvature="0" /><text
       transform="matrix(0,0.95933291,1.042391,0,0,0)"
       id="text68"
       x="206.61272"
       y="276.81595"
       style="font-size:15.65322971px"><tspan
         style="font-size:20.53234291px;font-variant:normal;font-weight:bold;font-stretch:normal;writing-mode:lr-tb;fill:#000000;fill-opacity:1;fill-rule:nonzero;stroke:none;font-family:Arial;-inkscape-font-specification:Arial-BoldMT"
         x="206.61272 223.7141 240.81548"
         y="276.81595"
         sodipodi:role="line"
         id="tspan70">MM0</tspan><tspan
         style="font-size:20.53234291px;font-variant:normal;font-weight:bold;font-stretch:normal;writing-mode:lr-tb;fill:#000000;fill-opacity:1;fill-rule:nonzero;stroke:none;font-family:Arial;-inkscape-font-specification:Arial-BoldMT"
         x="207.395 224.4738 235.86514 241.54848"
         y="187.7487"
         sodipodi:role="line"
         id="tspan72">Main</tspan><tspan
         style="font-size:20.53234291px;font-variant:normal;font-weight:bold;font-stretch:normal;writing-mode:lr-tb;fill:#000000;fill-opacity:1;fill-rule:nonzero;stroke:none;font-family:Arial;-inkscape-font-specification:Arial-BoldMT"
         x="191.50706 208.65775 220.00389 238.30437 250.89687 258.79773"
         y="212.55997"
         sodipodi:role="line"
         id="tspan74">Memory</tspan></text>
<path
       d="m 436.87003,274.1953 -61.35112,0 0,-107.51928 61.35112,0 0,107.51928 z m -61.35112,0 z"
       style="fill:#ff00ff;fill-opacity:1;fill-rule:evenodd;stroke:#000000;stroke-width:1.48444796;stroke-linecap:round;stroke-linejoin:miter;stroke-miterlimit:10;stroke-opacity:1;stroke-dasharray:none"
       id="path76"
       inkscape:connector-curvature="0" /><text
       transform="matrix(0,0.95933291,1.042391,0,0,0)"
       id="text78"
       x="206.61272"
       y="396.09351"
       style="font-size:15.65322971px"><tspan
         style="font-size:20.53234291px;font-variant:normal;font-weight:bold;font-stretch:normal;writing-mode:lr-tb;fill:#000000;fill-opacity:1;fill-rule:nonzero;stroke:none;font-family:Arial;-inkscape-font-specification:Arial-BoldMT"
         x="206.61272 223.7141 240.81548"
         y="396.09351"
         sodipodi:role="line"
         id="tspan80">MM2</tspan></text>
<path
       d="m 498.71065,274.1953 -61.35112,0 0,-107.51928 61.35112,0 0,107.51928 z m -61.35112,0 z"
       style="fill:#0000ff;fill-opacity:1;fill-rule:evenodd;stroke:#000000;stroke-width:1.48444796;stroke-linecap:round;stroke-linejoin:miter;stroke-miterlimit:10;stroke-opacity:1;stroke-dasharray:none"
       id="path82"
       inkscape:connector-curvature="0" /><text
       transform="matrix(0,0.95933291,1.042391,0,0,0)"
       id="text84"
       x="206.61272"
       y="455.41928"
       style="font-size:15.65322971px"><tspan
         style="font-size:20.53234291px;font-variant:normal;font-weight:bold;font-stretch:normal;writing-mode:lr-tb;fill:#000000;fill-opacity:1;fill-rule:nonzero;stroke:none;font-family:Arial;-inkscape-font-specification:Arial-BoldMT"
         x="206.61272 223.7141 240.81548"
         y="455.41928"
         sodipodi:role="line"
         id="tspan86">MM3</tspan></text>
<g
       id="g88"
       transform="matrix(1.3597322,0,0,1.2513882,251.42975,278.02455)"><path
         d="m 0,0 0.42,2.64 0.72,2.28 1.32,2.28 1.92,1.86 2.28,1.56 2.46,1.32 2.82,0.78 3.06,0.18 59.94,0 c 4.796,-0.537 12.105,3.368 13.8,7.98 l 0.78,2.22 0.36,2.7 0.42,-2.7 0.72,-2.22 c 2.529,-4.483 5.907,-6.595 10.86,-7.8 l 3,-0.18 59.94,0 c 4.921,0.493 11.977,-3.341 13.86,-7.98 L 179.4,2.64 179.82,0"
         style="fill:none;stroke:#000000;stroke-width:1.13800001;stroke-linecap:round;stroke-linejoin:round;stroke-miterlimit:10;stroke-opacity:1;stroke-dasharray:none"
         id="path90"
         inkscape:connector-curvature="0" /></g><path
       d="m 376.1687,691.37454 -61.59587,0 0,-107.51928 61.59587,0 0,107.51928 z m -61.59587,0 z"
       style="fill:#00ff00;fill-opacity:1;fill-rule:evenodd;stroke:#000000;stroke-width:1.48444796;stroke-linecap:round;stroke-linejoin:miter;stroke-miterlimit:10;stroke-opacity:1;stroke-dasharray:none"
       id="path92"
       inkscape:connector-curvature="0" /><text
       transform="matrix(0,0.95933291,1.042391,0,0,0)"
       id="text94"
       x="641.79102"
       y="337.86075"
       style="font-size:15.65322971px"><tspan
         style="font-size:20.53234291px;font-variant:normal;font-weight:bold;font-stretch:normal;writing-mode:lr-tb;fill:#000000;fill-opacity:1;fill-rule:nonzero;stroke:none;font-family:Arial;-inkscape-font-specification:Arial-BoldMT"
         x="641.79102 658.85333 675.91565"
         y="337.86075"
         sodipodi:role="line"
         id="tspan96">MM1</tspan></text>
<path
       d="m 313.51224,691.37454 -61.59587,0 0,-107.51928 61.59587,0 0,107.51928 z m -61.59587,0 z"
       style="fill:#ffff00;fill-opacity:1;fill-rule:evenodd;stroke:#000000;stroke-width:1.48444796;stroke-linecap:round;stroke-linejoin:miter;stroke-miterlimit:10;stroke-opacity:1;stroke-dasharray:none"
       id="path98"
       inkscape:connector-curvature="0" /><text
       transform="matrix(0,0.95933291,1.042391,0,0,0)"
       id="text100"
       x="641.79102"
       y="277.51755"
       style="font-size:15.65322971px"><tspan
         style="font-size:20.53234291px;font-variant:normal;font-weight:bold;font-stretch:normal;writing-mode:lr-tb;fill:#000000;fill-opacity:1;fill-rule:nonzero;stroke:none;font-family:Arial;-inkscape-font-specification:Arial-BoldMT"
         x="641.79102 658.85333 675.91565"
         y="277.51755"
         sodipodi:role="line"
         id="tspan102">MM0</tspan><tspan
         style="font-size:20.53234291px;font-variant:normal;font-weight:bold;font-stretch:normal;writing-mode:lr-tb;fill:#000000;fill-opacity:1;fill-rule:nonzero;stroke:none;font-family:Arial;-inkscape-font-specification:Arial-BoldMT"
         x="642.4953 659.55762 670.9325 676.59943"
         y="188.45032"
         sodipodi:role="line"
         id="tspan104">Main</tspan><tspan
         style="font-size:20.53234291px;font-variant:normal;font-weight:bold;font-stretch:normal;writing-mode:lr-tb;fill:#000000;fill-opacity:1;fill-rule:nonzero;stroke:none;font-family:Arial;-inkscape-font-specification:Arial-BoldMT"
         x="626.68536 643.76007 655.14728 673.37177 686.05457 694.01288"
         y="213.18153"
         sodipodi:role="line"
         id="tspan106">Memory</tspan></text>
<path
       d="m 437.84615,691.37454 -61.67745,0 0,-107.51928 61.67745,0 0,107.51928 z m -61.67745,0 z"
       style="fill:#ff00ff;fill-opacity:1;fill-rule:evenodd;stroke:#000000;stroke-width:1.48444796;stroke-linecap:round;stroke-linejoin:miter;stroke-miterlimit:10;stroke-opacity:1;stroke-dasharray:none"
       id="path108"
       inkscape:connector-curvature="0" /><text
       transform="matrix(0,0.95933291,1.042391,0,0,0)"
       id="text110"
       x="641.79102"
       y="396.71689"
       style="font-size:15.65322971px"><tspan
         style="font-size:20.53234291px;font-variant:normal;font-weight:bold;font-stretch:normal;writing-mode:lr-tb;fill:#000000;fill-opacity:1;fill-rule:nonzero;stroke:none;font-family:Arial;-inkscape-font-specification:Arial-BoldMT"
         x="641.79102 658.85333 675.91565"
         y="396.71689"
         sodipodi:role="line"
         id="tspan112">MM2</tspan></text>
<path
       d="m 499.68677,691.37454 -61.59587,0 0,-107.51928 61.59587,0 0,107.51928 z m -61.59587,0 z"
       style="fill:#0000ff;fill-opacity:1;fill-rule:evenodd;stroke:#000000;stroke-width:1.48444796;stroke-linecap:round;stroke-linejoin:miter;stroke-miterlimit:10;stroke-opacity:1;stroke-dasharray:none"
       id="path114"
       inkscape:connector-curvature="0" /><text
       transform="matrix(0,0.95933291,1.042391,0,0,0)"
       id="text116"
       x="641.79102"
       y="456.12091"
       style="font-size:15.65322971px"><tspan
         style="font-size:20.53234291px;font-variant:normal;font-weight:bold;font-stretch:normal;writing-mode:lr-tb;fill:#000000;fill-opacity:1;fill-rule:nonzero;stroke:none;font-family:Arial;-inkscape-font-specification:Arial-BoldMT"
         x="641.79102 658.85333 675.91565"
         y="456.12091"
         sodipodi:role="line"
         id="tspan118">MM3</tspan></text>
<g
       id="g120"
       transform="matrix(1.3597322,0,0,1.2513882,253.14013,697.30612)"><path
         d="m 0,0 0.42,2.1 0.72,1.92 0.6,0.72 0.54,0.6 0.6,0.18 0.72,0.18 14.46,0 0.72,0.18 0.6,0.18 1.14,1.38 0.72,1.68 0.42,2.1 0.18,-2.1 0.78,-1.68 1.14,-1.38 0.72,-0.18 0.78,-0.18 14.22,0 0.78,-0.18 0.72,-0.18 0.6,-0.6 L 42.12,4.02 42.9,2.1 43.08,0"
         style="fill:none;stroke:#000000;stroke-width:1.13800001;stroke-linecap:round;stroke-linejoin:round;stroke-miterlimit:10;stroke-opacity:1;stroke-dasharray:none"
         id="path122"
         inkscape:connector-curvature="0" /></g><text
       transform="matrix(0,0.95933291,1.042391,0,0,0)"
       id="text124"
       x="763.72961"
       y="281.74396"
       style="font-size:15.65322971px"><tspan
         style="font-size:20.53234291px;font-variant:normal;font-weight:bold;font-stretch:normal;writing-mode:lr-tb;fill:#000000;fill-opacity:1;fill-rule:nonzero;stroke:none;font-family:Arial;-inkscape-font-specification:Arial-BoldMT"
         x="763.72961 777.34869"
         y="281.74396"
         sodipodi:role="line"
         id="tspan126">P0</tspan></text>
<g
       id="g128"
       transform="matrix(1.3597322,0,0,1.2513882,316.12293,697.83295)"><path
         d="m 0,0 0.18,2.04 0.72,1.92 0.6,0.78 0.54,0.54 1.56,0.36 14.22,0 0.72,0.24 0.78,0.18 1.14,1.32 0.78,1.68 0.18,2.1 0.36,-2.1 0.78,-1.68 1.14,-1.32 0.54,-0.18 0.78,-0.24 14.4,0 L 40.2,5.46 40.74,5.28 41.34,4.74 41.88,3.96 42.66,2.04 43.02,0"
         style="fill:none;stroke:#000000;stroke-width:1.13800001;stroke-linecap:round;stroke-linejoin:round;stroke-miterlimit:10;stroke-opacity:1;stroke-dasharray:none"
         id="path130"
         inkscape:connector-curvature="0" /></g><text
       transform="matrix(0,0.95933291,1.042391,0,0,0)"
       id="text132"
       x="764.27753"
       y="342.32196"
       style="font-size:15.65322971px"><tspan
         style="font-size:20.53234291px;font-variant:normal;font-weight:bold;font-stretch:normal;writing-mode:lr-tb;fill:#000000;fill-opacity:1;fill-rule:nonzero;stroke:none;font-family:Arial;-inkscape-font-specification:Arial-BoldMT"
         x="764.27753 777.89661"
         y="342.32196"
         sodipodi:role="line"
         id="tspan134">P1</tspan></text>
<g
       id="g136"
       transform="matrix(1.3597322,0,0,1.2513882,377.47404,699.25954)"><path
         d="m 0,0 0.36,2.04 0.78,1.92 0.54,0.78 0.6,0.54 0.54,0.18 0.78,0.18 14.4,0 0.78,0.24 0.54,0.18 1.14,1.32 0.78,1.68 0.36,2.1 0.18,-2.1 0.78,-1.68 1.14,-1.32 0.78,-0.18 0.72,-0.24 14.22,0 1.56,-0.36 0.54,-0.54 0.6,-0.78 L 42.84,2.04 43.02,0"
         style="fill:none;stroke:#000000;stroke-width:1.13800001;stroke-linecap:round;stroke-linejoin:round;stroke-miterlimit:10;stroke-opacity:1;stroke-dasharray:none"
         id="path138"
         inkscape:connector-curvature="0" /></g><text
       transform="matrix(0,0.95933291,1.042391,0,0,0)"
       id="text140"
       x="765.76453"
       y="401.17807"
       style="font-size:15.65322971px"><tspan
         style="font-size:20.53234291px;font-variant:normal;font-weight:bold;font-stretch:normal;writing-mode:lr-tb;fill:#000000;fill-opacity:1;fill-rule:nonzero;stroke:none;font-family:Arial;-inkscape-font-specification:Arial-BoldMT"
         x="765.76453 779.38361"
         y="401.17807"
         sodipodi:role="line"
         id="tspan142">P2</tspan></text>
<g
       id="g144"
       transform="matrix(1.3597322,0,0,1.2513882,439.31466,701.13662)"><path
         d="m 0,0 0.42,2.28 0.72,1.68 0.6,0.78 0.54,0.54 0.6,0.24 0.78,0.18 14.4,0 0.72,0.18 0.6,0.18 0.54,0.6 0.6,0.72 0.72,1.92 0.42,2.1 0.18,-2.1 0.78,-1.92 0.54,-0.72 0.6,-0.6 0.72,-0.18 0.78,-0.18 14.22,0 0.78,-0.18 0.72,-0.24 0.6,-0.54 L 42.12,3.96 42.9,2.28 43.08,0"
         style="fill:none;stroke:#000000;stroke-width:1.13800001;stroke-linecap:round;stroke-linejoin:round;stroke-miterlimit:10;stroke-opacity:1;stroke-dasharray:none"
         id="path146"
         inkscape:connector-curvature="0" /></g><text
       transform="matrix(0,0.95933291,1.042391,0,0,0)"
       id="text148"
       x="767.95605"
       y="460.58203"
       style="font-size:15.65322971px"><tspan
         style="font-size:20.53234291px;font-variant:normal;font-weight:bold;font-stretch:normal;writing-mode:lr-tb;fill:#000000;fill-opacity:1;fill-rule:nonzero;stroke:none;font-family:Arial;-inkscape-font-specification:Arial-BoldMT"
         x="767.95605 781.57507"
         y="460.58203"
         sodipodi:role="line"
         id="tspan150">P3</tspan></text>
</g></svg>