<?xml version="1.0" encoding="UTF-8" standalone="no"?>
<!-- Created with Inkscape (http://www.inkscape.org/) -->

<svg
   xmlns:dc="http://purl.org/dc/elements/1.1/"
   xmlns:cc="http://creativecommons.org/ns#"
   xmlns:rdf="http://www.w3.org/1999/02/22-rdf-syntax-ns#"
   xmlns:svg="http://www.w3.org/2000/svg"
   xmlns="http://www.w3.org/2000/svg"
   xmlns:sodipodi="http://sodipodi.sourceforge.net/DTD/sodipodi-0.dtd"
   xmlns:inkscape="http://www.inkscape.org/namespaces/inkscape"
   id="svg2"
   version="1.1"
   inkscape:version="0.48.3.1 r9886"
   width="1052.5"
   height="744.025"
   xml:space="preserve"
   sodipodi:docname="Multiproc_bus2.svg"><metadata
     id="metadata8"><rdf:RDF><cc:Work
         rdf:about=""><dc:format>image/svg+xml</dc:format><dc:type
           rdf:resource="http://purl.org/dc/dcmitype/StillImage" /><dc:title></dc:title></cc:Work></rdf:RDF></metadata><defs
     id="defs6"><clipPath
       clipPathUnits="userSpaceOnUse"
       id="clipPath16"><path
         d="m 567.48,61.011 -540,0 0,720 540,0 0,-720 z"
         clip-rule="evenodd"
         id="path18" /></clipPath><clipPath
       clipPathUnits="userSpaceOnUse"
       id="clipPath22"><path
         d="m 0,841.98 595.2,0 L 595.2,0 0,0 0,841.98 z"
         id="path24" /></clipPath><clipPath
       clipPathUnits="userSpaceOnUse"
       id="clipPath48"><path
         d="m 503.76,103.011 -116.28,0 0,633.78 116.28,0 0,-633.78 z"
         clip-rule="evenodd"
         id="path50" /></clipPath><clipPath
       clipPathUnits="userSpaceOnUse"
       id="clipPath54"><path
         d="m 0,841.98 595.2,0 L 595.2,0 0,0 0,841.98 z"
         id="path56" /></clipPath><clipPath
       clipPathUnits="userSpaceOnUse"
       id="clipPath68"><path
         d="m 503.76,103.011 -116.28,0 0,633.78 116.28,0 0,-633.78 z"
         clip-rule="evenodd"
         id="path70" /></clipPath><clipPath
       clipPathUnits="userSpaceOnUse"
       id="clipPath74"><path
         d="m 0,841.98 595.2,0 L 595.2,0 0,0 0,841.98 z"
         id="path76" /></clipPath><clipPath
       clipPathUnits="userSpaceOnUse"
       id="clipPath88"><path
         d="m 503.76,103.011 -116.28,0 0,633.78 116.28,0 0,-633.78 z"
         clip-rule="evenodd"
         id="path90" /></clipPath><clipPath
       clipPathUnits="userSpaceOnUse"
       id="clipPath94"><path
         d="m 0,841.98 595.2,0 L 595.2,0 0,0 0,841.98 z"
         id="path96" /></clipPath><clipPath
       clipPathUnits="userSpaceOnUse"
       id="clipPath108"><path
         d="m 503.76,103.011 -116.28,0 0,633.78 116.28,0 0,-633.78 z"
         clip-rule="evenodd"
         id="path110" /></clipPath><clipPath
       clipPathUnits="userSpaceOnUse"
       id="clipPath114"><path
         d="m 0,841.98 595.2,0 L 595.2,0 0,0 0,841.98 z"
         id="path116" /></clipPath><clipPath
       clipPathUnits="userSpaceOnUse"
       id="clipPath128"><path
         d="m 503.76,103.011 -116.28,0 0,633.78 116.28,0 0,-633.78 z"
         clip-rule="evenodd"
         id="path130" /></clipPath><clipPath
       clipPathUnits="userSpaceOnUse"
       id="clipPath134"><path
         d="m 0,841.98 595.2,0 L 595.2,0 0,0 0,841.98 z"
         id="path136" /></clipPath><clipPath
       clipPathUnits="userSpaceOnUse"
       id="clipPath148"><path
         d="m 503.76,103.011 -116.28,0 0,633.78 116.28,0 0,-633.78 z"
         clip-rule="evenodd"
         id="path150" /></clipPath><clipPath
       clipPathUnits="userSpaceOnUse"
       id="clipPath154"><path
         d="m 0,841.98 595.2,0 L 595.2,0 0,0 0,841.98 z"
         id="path156" /></clipPath><clipPath
       clipPathUnits="userSpaceOnUse"
       id="clipPath168"><path
         d="m 503.76,103.011 -116.28,0 0,633.78 116.28,0 0,-633.78 z"
         clip-rule="evenodd"
         id="path170" /></clipPath><clipPath
       clipPathUnits="userSpaceOnUse"
       id="clipPath174"><path
         d="m 0,841.98 595.2,0 L 595.2,0 0,0 0,841.98 z"
         id="path176" /></clipPath><clipPath
       clipPathUnits="userSpaceOnUse"
       id="clipPath210"><path
         d="m 215.52,545.151 32.1,0 0,33.9 -32.1,0 0,-33.9 z"
         id="path212" /></clipPath><clipPath
       clipPathUnits="userSpaceOnUse"
       id="clipPath226"><path
         d="m 215.52,637.611 32.1,0 0,33.9 -32.1,0 0,-33.9 z"
         id="path228" /></clipPath><clipPath
       clipPathUnits="userSpaceOnUse"
       id="clipPath242"><path
         d="m 215.52,360.051 32.1,0 0,33.9 -32.1,0 0,-33.9 z"
         id="path244" /></clipPath><clipPath
       clipPathUnits="userSpaceOnUse"
       id="clipPath258"><path
         d="m 215.52,452.511 32.1,0 0,33.9 -32.1,0 0,-33.9 z"
         id="path260" /></clipPath><clipPath
       clipPathUnits="userSpaceOnUse"
       id="clipPath274"><path
         d="m 215.52,174.951 32.1,0 0,33.9 -32.1,0 0,-33.9 z"
         id="path276" /></clipPath><clipPath
       clipPathUnits="userSpaceOnUse"
       id="clipPath290"><path
         d="m 215.52,267.411 32.1,0 0,33.9 -32.1,0 0,-33.9 z"
         id="path292" /></clipPath></defs><sodipodi:namedview
     pagecolor="#ffffff"
     bordercolor="#666666"
     borderopacity="1"
     objecttolerance="10"
     gridtolerance="10"
     guidetolerance="10"
     inkscape:pageopacity="0"
     inkscape:pageshadow="2"
     inkscape:window-width="640"
     inkscape:window-height="480"
     id="namedview4"
     showgrid="false"
     inkscape:zoom="0.31719363"
     inkscape:cx="526.25"
     inkscape:cy="372.01251"
     inkscape:window-x="356"
     inkscape:window-y="119"
     inkscape:window-maximized="0"
     inkscape:current-layer="g10" /><g
     id="g10"
     inkscape:groupmode="layer"
     inkscape:label="Lesson_13A_Multiprocessors"
     transform="matrix(0,1.25,1.25,0,0,0)"><g
       id="g44"
       transform="matrix(1.8054466,0,0,1.2986325,-524.29136,-124.18921)"><g
         id="g46"
         clip-path="url(#clipPath48)"><g
           id="g52"
           clip-path="url(#clipPath54)"><path
             d="m 472.26,552.351 31.5,0 0,34.14 -31.5,0 0,-34.14 z"
             style="fill:#000000;fill-opacity:1;fill-rule:nonzero;stroke:none"
             id="path58"
             inkscape:connector-curvature="0" /></g></g></g><g
       id="g60"
       transform="matrix(1.8054466,0,0,1.2986325,253.17005,615.24043)"><path
         d="M 0,0 41.64,0"
         style="fill:none;stroke:#000000;stroke-width:2.13400006;stroke-linecap:round;stroke-linejoin:miter;stroke-miterlimit:10;stroke-opacity:1;stroke-dasharray:none"
         id="path62"
         inkscape:connector-curvature="0" /></g><g
       id="g64"
       transform="matrix(1.8054466,0,0,1.2986325,-524.29136,-124.18921)"><g
         id="g66"
         clip-path="url(#clipPath68)"><g
           id="g72"
           clip-path="url(#clipPath74)"><path
             d="m 472.26,645.531 31.5,0 0,34.14 -31.5,0 0,-34.14 z"
             style="fill:#000000;fill-opacity:1;fill-rule:nonzero;stroke:none"
             id="path78"
             inkscape:connector-curvature="0" /></g></g></g><g
       id="g80"
       transform="matrix(1.8054466,0,0,1.2986325,253.17005,735.85742)"><path
         d="M 0,0 41.64,0"
         style="fill:none;stroke:#000000;stroke-width:2.13400006;stroke-linecap:round;stroke-linejoin:miter;stroke-miterlimit:10;stroke-opacity:1;stroke-dasharray:none"
         id="path82"
         inkscape:connector-curvature="0" /></g><g
       id="g84"
       transform="matrix(1.8054466,0,0,1.2986325,-524.29136,-124.18921)"><g
         id="g86"
         clip-path="url(#clipPath88)"><g
           id="g92"
           clip-path="url(#clipPath94)"><path
             d="m 472.26,366.651 31.5,0 0,34.14 -31.5,0 0,-34.14 z"
             style="fill:#000000;fill-opacity:1;fill-rule:nonzero;stroke:none"
             id="path98"
             inkscape:connector-curvature="0" /></g></g></g><g
       id="g100"
       transform="matrix(1.8054466,0,0,1.2986325,253.17005,373.6948)"><path
         d="M 0,0 41.64,0"
         style="fill:none;stroke:#000000;stroke-width:2.13400006;stroke-linecap:round;stroke-linejoin:miter;stroke-miterlimit:10;stroke-opacity:1;stroke-dasharray:none"
         id="path102"
         inkscape:connector-curvature="0" /></g><g
       id="g104"
       transform="matrix(1.8054466,0,0,1.2986325,-524.29136,-124.18921)"><g
         id="g106"
         clip-path="url(#clipPath108)"><g
           id="g112"
           clip-path="url(#clipPath114)"><path
             d="m 472.26,459.471 31.5,0 0,34.2 -31.5,0 0,-34.2 z"
             style="fill:#000000;fill-opacity:1;fill-rule:nonzero;stroke:none"
             id="path118"
             inkscape:connector-curvature="0" /></g></g></g><g
       id="g120"
       transform="matrix(1.8054466,0,0,1.2986325,253.17005,494.70136)"><path
         d="M 0,0 41.64,0"
         style="fill:none;stroke:#000000;stroke-width:2.13400006;stroke-linecap:round;stroke-linejoin:miter;stroke-miterlimit:10;stroke-opacity:1;stroke-dasharray:none"
         id="path122"
         inkscape:connector-curvature="0" /></g><g
       id="g124"
       transform="matrix(1.8054466,0,0,1.2986325,-524.29136,-124.18921)"><g
         id="g126"
         clip-path="url(#clipPath128)"><g
           id="g132"
           clip-path="url(#clipPath134)"><path
             d="m 472.26,180.591 31.5,0 0,34.14 -31.5,0 0,-34.14 z"
             style="fill:#000000;fill-opacity:1;fill-rule:nonzero;stroke:none"
             id="path138"
             inkscape:connector-curvature="0" /></g></g></g><g
       id="g140"
       transform="matrix(1.8054466,0,0,1.2986325,253.17005,132.53874)"><path
         d="M 0,0 41.64,0"
         style="fill:none;stroke:#000000;stroke-width:2.13400006;stroke-linecap:round;stroke-linejoin:miter;stroke-miterlimit:10;stroke-opacity:1;stroke-dasharray:none"
         id="path142"
         inkscape:connector-curvature="0" /></g><g
       id="g144"
       transform="matrix(1.8054466,0,0,1.2986325,-524.29136,-124.18921)"><g
         id="g146"
         clip-path="url(#clipPath148)"><g
           id="g152"
           clip-path="url(#clipPath154)"><path
             d="m 472.26,273.771 31.5,0 0,34.2 -31.5,0 0,-34.2 z"
             style="fill:#000000;fill-opacity:1;fill-rule:nonzero;stroke:none"
             id="path158"
             inkscape:connector-curvature="0" /></g></g></g><g
       id="g160"
       transform="matrix(1.8054466,0,0,1.2986325,253.17005,253.07781)"><path
         d="M 0,0 41.64,0"
         style="fill:none;stroke:#000000;stroke-width:2.13400006;stroke-linecap:round;stroke-linejoin:miter;stroke-miterlimit:10;stroke-opacity:1;stroke-dasharray:none"
         id="path162"
         inkscape:connector-curvature="0" /></g><g
       id="g164"
       transform="matrix(1.8054466,0,0,1.2986325,-524.29136,-124.18921)"><g
         id="g166"
         clip-path="url(#clipPath168)"><g
           id="g172"
           clip-path="url(#clipPath174)"><g
             id="g178"
             transform="translate(389.28,725.211)"><path
               d="m 0,0 c 0,5.94 4.68,10.68 10.5,10.68 l 17.52,0 c 5.76,0 10.5,-4.74 10.5,-10.68 l 0,-609.72 c 0,-5.88 -4.74,-10.68 -10.5,-10.68 l -17.52,0 c -5.82,0 -10.5,4.8 -10.5,10.68 L 0,0 z"
               style="fill:none;stroke:#000000;stroke-width:2.84599996;stroke-linecap:round;stroke-linejoin:miter;stroke-miterlimit:10;stroke-opacity:1;stroke-dasharray:none"
               id="path180"
               inkscape:connector-curvature="0" /></g></g></g></g><g
       id="g182"
       transform="matrix(1.8054466,0,0,1.2986325,251.22017,140.33053)"><path
         d="m 0,0 c 3.9,0 7.02,-3.24 7.02,-7.26 0,-4.02 -3.12,-7.32 -7.02,-7.32 -3.84,0 -7.02,3.3 -7.02,7.32 C -7.02,-3.24 -3.84,0 0,0"
         style="fill:#ff0000;fill-opacity:1;fill-rule:evenodd;stroke:none"
         id="path184"
         inkscape:connector-curvature="0" /></g><g
       id="g186"
       transform="matrix(1.8054466,0,0,1.2986325,251.22017,260.94752)"><path
         d="m 0,0 c 3.9,0 7.02,-3.3 7.02,-7.32 0,-4.02 -3.12,-7.26 -7.02,-7.26 -3.84,0 -7.02,3.24 -7.02,7.26 C -7.02,-3.3 -3.84,0 0,0"
         style="fill:#ff0000;fill-opacity:1;fill-rule:evenodd;stroke:none"
         id="path188"
         inkscape:connector-curvature="0" /></g><g
       id="g190"
       transform="matrix(1.8054466,0,0,1.2986325,251.22017,381.01908)"><path
         d="m 0,0 c 3.9,0 7.02,-3.06 7.02,-6.9 0,-3.84 -3.12,-6.96 -7.02,-6.96 -3.84,0 -7.02,3.12 -7.02,6.96 0,3.84 3.18,6.9 7.02,6.9"
         style="fill:#ff0000;fill-opacity:1;fill-rule:evenodd;stroke:none"
         id="path192"
         inkscape:connector-curvature="0" /></g><g
       id="g194"
       transform="matrix(1.8054466,0,0,1.2986325,251.22017,502.10358)"><path
         d="m 0,0 c 3.9,0 7.02,-3.18 7.02,-7.14 0,-3.9 -3.12,-7.08 -7.02,-7.08 -3.84,0 -7.02,3.18 -7.02,7.08 C -7.02,-3.18 -3.84,0 0,0"
         style="fill:#ff0000;fill-opacity:1;fill-rule:evenodd;stroke:none"
         id="path196"
         inkscape:connector-curvature="0" /></g><g
       id="g198"
       transform="matrix(1.8054466,0,0,1.2986325,251.22017,623.11015)"><path
         d="m 0,0 c 3.9,0 7.02,-3.24 7.02,-7.26 0,-4.02 -3.12,-7.32 -7.02,-7.32 -3.84,0 -7.02,3.3 -7.02,7.32 C -7.02,-3.24 -3.84,0 0,0"
         style="fill:#ff0000;fill-opacity:1;fill-rule:evenodd;stroke:none"
         id="path200"
         inkscape:connector-curvature="0" /></g><g
       id="g202"
       transform="matrix(1.8054466,0,0,1.2986325,251.22017,743.72713)"><path
         d="m 0,0 c 3.9,0 7.02,-3.3 7.02,-7.32 0,-4.02 -3.12,-7.26 -7.02,-7.26 -3.84,0 -7.02,3.24 -7.02,7.26 C -7.02,-3.3 -3.84,0 0,0"
         style="fill:#ff0000;fill-opacity:1;fill-rule:evenodd;stroke:none"
         id="path204"
         inkscape:connector-curvature="0" /></g></g></svg>